G04 #@! TF.GenerationSoftware,KiCad,Pcbnew,10.0.5*
G04 #@! TF.CreationDate,2026-09-21T01:48:34-04:00*
G04 #@! TF.ProjectId,Handheld_Chess,48616e64-6865-46c6-945f-43686573732e,rev?*
G04 #@! TF.SameCoordinates,Original*
G04 #@! TF.FileFunction,Copper,L1,Top*
G04 #@! TF.FilePolarity,Positive*
%FSLAX46Y46*%
G04 Gerber Fmt 4.6, Leading zero omitted, Abs format (unit mm)*
G04 Created by KiCad (PCBNEW 10.0.5) date 2026-09-21 01:48:34*
%MOMM*%
%LPD*%
G01*
G04 APERTURE LIST*
G04 Aperture macros list*
%AMRoundRect*
0 Rectangle with rounded corners*
0 $1 Rounding radius*
0 $2 $3 $4 $5 $6 $7 $8 $9 X,Y pos of 4 corners*
0 Add a 4 corners polygon primitive as box body*
4,1,4,$2,$3,$4,$5,$6,$7,$8,$9,$2,$3,0*
0 Add four circle primitives for the rounded corners*
1,1,$1+$1,$2,$3*
1,1,$1+$1,$4,$5*
1,1,$1+$1,$6,$7*
1,1,$1+$1,$8,$9*
0 Add four rect primitives between the rounded corners*
20,1,$1+$1,$2,$3,$4,$5,0*
20,1,$1+$1,$4,$5,$6,$7,0*
20,1,$1+$1,$6,$7,$8,$9,0*
20,1,$1+$1,$8,$9,$2,$3,0*%
G04 Aperture macros list end*
%ADD10C,0.300000*%
%ADD11C,0.250000*%
G04 #@! TA.AperFunction,ComponentPad*
%ADD12RoundRect,0.170000X0.680000X-0.680000X0.680000X0.680000X-0.680000X0.680000X-0.680000X-0.680000X0*%
G04 #@! TD*
G04 #@! TA.AperFunction,ComponentPad*
%ADD13C,1.700000*%
G04 #@! TD*
G04 #@! TA.AperFunction,ComponentPad*
%ADD14R,1.700000X1.700000*%
G04 #@! TD*
G04 #@! TA.AperFunction,ComponentPad*
%ADD15C,2.000000*%
G04 #@! TD*
G04 #@! TA.AperFunction,ComponentPad*
%ADD16O,2.200000X3.500000*%
G04 #@! TD*
G04 #@! TA.AperFunction,ComponentPad*
%ADD17R,1.500000X2.500000*%
G04 #@! TD*
G04 #@! TA.AperFunction,ComponentPad*
%ADD18O,1.500000X2.500000*%
G04 #@! TD*
G04 #@! TA.AperFunction,ComponentPad*
%ADD19R,2.790000X2.790000*%
G04 #@! TD*
G04 #@! TA.AperFunction,ComponentPad*
%ADD20C,1.600000*%
G04 #@! TD*
G04 #@! TA.AperFunction,ComponentPad*
%ADD21RoundRect,0.250000X0.550000X0.550000X-0.550000X0.550000X-0.550000X-0.550000X0.550000X-0.550000X0*%
G04 #@! TD*
G04 #@! TA.AperFunction,ComponentPad*
%ADD22RoundRect,0.249999X0.850001X0.850001X-0.850001X0.850001X-0.850001X-0.850001X0.850001X-0.850001X0*%
G04 #@! TD*
G04 #@! TA.AperFunction,ComponentPad*
%ADD23C,2.200000*%
G04 #@! TD*
G04 #@! TA.AperFunction,ComponentPad*
%ADD24RoundRect,0.250000X0.350000X0.625000X-0.350000X0.625000X-0.350000X-0.625000X0.350000X-0.625000X0*%
G04 #@! TD*
G04 #@! TA.AperFunction,ComponentPad*
%ADD25O,1.200000X1.750000*%
G04 #@! TD*
G04 #@! TA.AperFunction,ViaPad*
%ADD26C,0.600000*%
G04 #@! TD*
G04 #@! TA.AperFunction,Conductor*
%ADD27C,0.200000*%
G04 #@! TD*
G04 #@! TA.AperFunction,Conductor*
%ADD28C,0.500000*%
G04 #@! TD*
G04 #@! TA.AperFunction,Conductor*
%ADD29C,0.800000*%
G04 #@! TD*
G04 APERTURE END LIST*
D10*
G36*
X139212120Y-41521696D02*
G01*
X138938538Y-41521696D01*
X138849752Y-41350027D01*
X138780717Y-41190006D01*
X138729527Y-41040568D01*
X138691672Y-40887460D01*
X138669315Y-40736904D01*
X138661933Y-40588200D01*
X138669353Y-40439492D01*
X138691871Y-40288272D01*
X138730076Y-40133817D01*
X138781645Y-39982951D01*
X138850563Y-39822882D01*
X138938538Y-39652689D01*
X139212120Y-39652689D01*
X139138745Y-39816620D01*
X139079975Y-39974747D01*
X139034891Y-40127588D01*
X139001613Y-40283170D01*
X138981941Y-40435820D01*
X138975449Y-40586093D01*
X138981878Y-40736444D01*
X139001366Y-40889310D01*
X139034342Y-41045239D01*
X139079248Y-41198344D01*
X139138184Y-41356980D01*
X139212120Y-41521696D01*
G37*
G36*
X141057680Y-41615943D02*
G01*
X140113926Y-41615943D01*
X140113926Y-41499165D01*
X140219530Y-41499165D01*
X140953175Y-41499165D01*
X140953175Y-39883224D01*
X140219530Y-39883224D01*
X140219530Y-41499165D01*
X140113926Y-41499165D01*
X140113926Y-39765346D01*
X141057680Y-39765346D01*
X141057680Y-41615943D01*
G37*
G36*
X141684117Y-39679621D02*
G01*
X141741682Y-39699309D01*
X141794636Y-39730704D01*
X141842066Y-39773589D01*
X141880775Y-39825900D01*
X141908653Y-39884231D01*
X141925534Y-39947253D01*
X141931276Y-40015389D01*
X141925565Y-40082727D01*
X141908653Y-40146090D01*
X141881052Y-40204427D01*
X141844173Y-40254167D01*
X141796492Y-40297791D01*
X141742690Y-40329455D01*
X141683997Y-40349044D01*
X141622797Y-40355559D01*
X141540345Y-40344590D01*
X141468531Y-40312455D01*
X141404535Y-40257739D01*
X141356005Y-40188104D01*
X141326624Y-40108287D01*
X141316425Y-40015389D01*
X141465993Y-40015389D01*
X141471256Y-40062776D01*
X141486448Y-40103625D01*
X141511605Y-40139404D01*
X141544706Y-40167446D01*
X141581953Y-40183952D01*
X141624812Y-40189596D01*
X141667045Y-40183938D01*
X141704159Y-40167298D01*
X141737561Y-40138854D01*
X141763106Y-40102773D01*
X141778439Y-40062082D01*
X141783722Y-40015389D01*
X141778367Y-39967990D01*
X141762844Y-39926792D01*
X141737011Y-39890368D01*
X141703262Y-39861563D01*
X141666309Y-39844824D01*
X141624812Y-39839168D01*
X141582668Y-39844863D01*
X141545552Y-39861638D01*
X141512063Y-39890368D01*
X141486608Y-39926748D01*
X141471285Y-39967948D01*
X141465993Y-40015389D01*
X141316425Y-40015389D01*
X141326703Y-39922533D01*
X141356385Y-39842362D01*
X141405543Y-39772032D01*
X141470290Y-39716607D01*
X141542456Y-39684158D01*
X141624812Y-39673114D01*
X141684117Y-39679621D01*
G37*
G36*
X143134233Y-41615943D02*
G01*
X142190478Y-41615943D01*
X142190478Y-41499165D01*
X142296083Y-41499165D01*
X143029727Y-41499165D01*
X143029727Y-39883224D01*
X142296083Y-39883224D01*
X142296083Y-41499165D01*
X142190478Y-41499165D01*
X142190478Y-39765346D01*
X143134233Y-39765346D01*
X143134233Y-41615943D01*
G37*
G36*
X143760670Y-39679621D02*
G01*
X143818235Y-39699309D01*
X143871188Y-39730704D01*
X143918619Y-39773589D01*
X143957328Y-39825900D01*
X143985205Y-39884231D01*
X144002087Y-39947253D01*
X144007828Y-40015389D01*
X144002118Y-40082727D01*
X143985205Y-40146090D01*
X143957605Y-40204427D01*
X143920725Y-40254167D01*
X143873045Y-40297791D01*
X143819242Y-40329455D01*
X143760550Y-40349044D01*
X143699350Y-40355559D01*
X143616898Y-40344590D01*
X143545084Y-40312455D01*
X143481088Y-40257739D01*
X143432558Y-40188104D01*
X143403176Y-40108287D01*
X143392978Y-40015389D01*
X143542546Y-40015389D01*
X143547809Y-40062776D01*
X143563001Y-40103625D01*
X143588158Y-40139404D01*
X143621259Y-40167446D01*
X143658506Y-40183952D01*
X143701365Y-40189596D01*
X143743597Y-40183938D01*
X143780712Y-40167298D01*
X143814113Y-40138854D01*
X143839658Y-40102773D01*
X143854991Y-40062082D01*
X143860275Y-40015389D01*
X143854920Y-39967990D01*
X143839397Y-39926792D01*
X143813564Y-39890368D01*
X143779815Y-39861563D01*
X143742862Y-39844824D01*
X143701365Y-39839168D01*
X143659220Y-39844863D01*
X143622105Y-39861638D01*
X143588616Y-39890368D01*
X143563161Y-39926748D01*
X143547838Y-39967948D01*
X143542546Y-40015389D01*
X143392978Y-40015389D01*
X143403256Y-39922533D01*
X143432937Y-39842362D01*
X143482096Y-39772032D01*
X143546843Y-39716607D01*
X143619008Y-39684158D01*
X143701365Y-39673114D01*
X143760670Y-39679621D01*
G37*
G36*
X144324459Y-41521696D02*
G01*
X144397798Y-41357023D01*
X144456377Y-41198383D01*
X144501138Y-41045239D01*
X144534166Y-40889307D01*
X144553683Y-40736442D01*
X144560122Y-40586093D01*
X144553679Y-40435810D01*
X144534158Y-40283157D01*
X144501138Y-40127588D01*
X144456359Y-39974760D01*
X144397776Y-39816635D01*
X144324459Y-39652689D01*
X144598041Y-39652689D01*
X144686014Y-39822904D01*
X144754771Y-39982970D01*
X144806045Y-40133817D01*
X144843939Y-40288254D01*
X144866277Y-40439478D01*
X144873639Y-40588200D01*
X144866306Y-40736916D01*
X144844098Y-40887475D01*
X144806502Y-41040568D01*
X144755615Y-41189991D01*
X144686769Y-41350009D01*
X144598041Y-41521696D01*
X144324459Y-41521696D01*
G37*
G36*
X145956795Y-39715154D02*
G01*
X146288812Y-39715154D01*
X146288812Y-40302253D01*
X146241734Y-40730624D01*
X146003964Y-40730624D01*
X145956795Y-40302253D01*
X145956795Y-39715154D01*
G37*
G36*
X145956795Y-40880192D02*
G01*
X146288812Y-40880192D01*
X146288812Y-41245000D01*
X145956795Y-41245000D01*
X145956795Y-40880192D01*
G37*
G36*
X146817018Y-39715154D02*
G01*
X147149036Y-39715154D01*
X147149036Y-40302253D01*
X147101958Y-40730624D01*
X146864187Y-40730624D01*
X146817018Y-40302253D01*
X146817018Y-39715154D01*
G37*
G36*
X146817018Y-40880192D02*
G01*
X147149036Y-40880192D01*
X147149036Y-41245000D01*
X146817018Y-41245000D01*
X146817018Y-40880192D01*
G37*
D11*
G36*
X174627250Y-152817028D02*
G01*
X174627250Y-152948187D01*
X174758408Y-152948187D01*
X174758408Y-152817028D01*
X174627250Y-152817028D01*
G37*
G36*
X174754501Y-152689778D02*
G01*
X174754501Y-152820936D01*
X174885720Y-152820936D01*
X174885720Y-152689778D01*
X174754501Y-152689778D01*
G37*
G36*
X174754501Y-152944279D02*
G01*
X174754501Y-153075498D01*
X174885720Y-153075498D01*
X174885720Y-152944279D01*
X174754501Y-152944279D01*
G37*
G36*
X174881812Y-153071591D02*
G01*
X174881812Y-153202749D01*
X175012971Y-153202749D01*
X175012971Y-153071591D01*
X174881812Y-153071591D01*
G37*
G36*
X174881812Y-152562466D02*
G01*
X174881812Y-152693686D01*
X175012971Y-152693686D01*
X175012971Y-152562466D01*
X174881812Y-152562466D01*
G37*
G36*
X175009063Y-152435216D02*
G01*
X175009063Y-152566374D01*
X175140221Y-152566374D01*
X175140221Y-152435216D01*
X175009063Y-152435216D01*
G37*
G36*
X175009063Y-153198841D02*
G01*
X175009063Y-153330000D01*
X175140221Y-153330000D01*
X175140221Y-153198841D01*
X175009063Y-153198841D01*
G37*
G36*
X176030242Y-152817028D02*
G01*
X175644521Y-152817028D01*
X175644521Y-152948187D01*
X176030242Y-152948187D01*
X176030242Y-152817028D01*
G37*
G36*
X177424563Y-152562466D02*
G01*
X177424563Y-152693686D01*
X177810284Y-152693686D01*
X177810284Y-152562466D01*
X177424563Y-152562466D01*
G37*
G36*
X177297313Y-152689778D02*
G01*
X177297313Y-153202749D01*
X177428471Y-153202749D01*
X177428471Y-152689778D01*
X177297313Y-152689778D01*
G37*
G36*
X177424563Y-153198841D02*
G01*
X177424563Y-153330000D01*
X177810284Y-153330000D01*
X177810284Y-153198841D01*
X177424563Y-153198841D01*
G37*
G36*
X177806376Y-152689778D02*
G01*
X177806376Y-152820936D01*
X177937595Y-152820936D01*
X177937595Y-152689778D01*
X177806376Y-152689778D01*
G37*
G36*
X177806376Y-153071591D02*
G01*
X177806376Y-153202749D01*
X177937595Y-153202749D01*
X177937595Y-153071591D01*
X177806376Y-153071591D01*
G37*
G36*
X178187334Y-152307904D02*
G01*
X178187334Y-153330000D01*
X178318492Y-153330000D01*
X178318492Y-152820936D01*
X178445804Y-152820936D01*
X178445804Y-152689778D01*
X178318492Y-152689778D01*
X178318492Y-152307904D01*
X178187334Y-152307904D01*
G37*
G36*
X178696397Y-152689778D02*
G01*
X178696397Y-153330000D01*
X178827616Y-153330000D01*
X178827616Y-152689778D01*
X178696397Y-152689778D01*
G37*
G36*
X178441896Y-152562466D02*
G01*
X178441896Y-152693686D01*
X178700305Y-152693686D01*
X178700305Y-152562466D01*
X178441896Y-152562466D01*
G37*
G36*
X179077355Y-152944279D02*
G01*
X179077355Y-153202749D01*
X179208513Y-153202749D01*
X179208513Y-152944279D01*
X179077355Y-152944279D01*
G37*
G36*
X179204605Y-153198841D02*
G01*
X179204605Y-153330000D01*
X179463075Y-153330000D01*
X179463075Y-153198841D01*
X179204605Y-153198841D01*
G37*
G36*
X179459167Y-153071591D02*
G01*
X179459167Y-153202749D01*
X179586418Y-153202749D01*
X179586418Y-153330000D01*
X179717637Y-153330000D01*
X179717637Y-152689778D01*
X179586418Y-152689778D01*
X179586418Y-152817028D01*
X179204605Y-152817028D01*
X179204605Y-152948187D01*
X179586418Y-152948187D01*
X179586418Y-153071591D01*
X179459167Y-153071591D01*
G37*
G36*
X179204605Y-152562466D02*
G01*
X179204605Y-152693686D01*
X179590326Y-152693686D01*
X179590326Y-152562466D01*
X179204605Y-152562466D01*
G37*
G36*
X180225846Y-152562466D02*
G01*
X179967376Y-152562466D01*
X179967376Y-152693686D01*
X180094626Y-152693686D01*
X180094626Y-153198841D01*
X179967376Y-153198841D01*
X179967376Y-153330000D01*
X180480347Y-153330000D01*
X180480347Y-153198841D01*
X180225846Y-153198841D01*
X180225846Y-152820936D01*
X180353096Y-152820936D01*
X180353096Y-152689778D01*
X180225846Y-152689778D01*
X180225846Y-152562466D01*
G37*
G36*
X180607658Y-152562466D02*
G01*
X180349188Y-152562466D01*
X180349188Y-152693686D01*
X180607658Y-152693686D01*
X180607658Y-152562466D01*
G37*
G36*
X180984647Y-152562466D02*
G01*
X180984647Y-152693686D01*
X181243117Y-152693686D01*
X181243117Y-152562466D01*
X180984647Y-152562466D01*
G37*
G36*
X180857397Y-152689778D02*
G01*
X180857397Y-153202749D01*
X180988555Y-153202749D01*
X180988555Y-152689778D01*
X180857397Y-152689778D01*
G37*
G36*
X180984647Y-153198841D02*
G01*
X180984647Y-153330000D01*
X181243117Y-153330000D01*
X181243117Y-153198841D01*
X180984647Y-153198841D01*
G37*
G36*
X180984647Y-153453403D02*
G01*
X180984647Y-153584562D01*
X181370368Y-153584562D01*
X181370368Y-153453403D01*
X180984647Y-153453403D01*
G37*
G36*
X181239209Y-153071591D02*
G01*
X181239209Y-153202749D01*
X181366460Y-153202749D01*
X181366460Y-153457311D01*
X181497679Y-153457311D01*
X181497679Y-152562466D01*
X181366460Y-152562466D01*
X181366460Y-152689778D01*
X181239209Y-152689778D01*
X181239209Y-152820936D01*
X181366460Y-152820936D01*
X181366460Y-153071591D01*
X181239209Y-153071591D01*
G37*
G36*
X181874668Y-152562466D02*
G01*
X181874668Y-152693686D01*
X182260389Y-152693686D01*
X182260389Y-152562466D01*
X181874668Y-152562466D01*
G37*
G36*
X181747418Y-152689778D02*
G01*
X181747418Y-153202749D01*
X181878576Y-153202749D01*
X181878576Y-152948187D01*
X182387700Y-152948187D01*
X182387700Y-152689778D01*
X182256481Y-152689778D01*
X182256481Y-152817028D01*
X181878576Y-152817028D01*
X181878576Y-152689778D01*
X181747418Y-152689778D01*
G37*
G36*
X181874668Y-153198841D02*
G01*
X181874668Y-153330000D01*
X182260389Y-153330000D01*
X182260389Y-153198841D01*
X181874668Y-153198841D01*
G37*
G36*
X182256481Y-153071591D02*
G01*
X182256481Y-153202749D01*
X182387700Y-153202749D01*
X182387700Y-153071591D01*
X182256481Y-153071591D01*
G37*
D12*
G04 #@! TO.P,display,1,GND_1*
G04 #@! TO.N,GND*
X124000000Y-36620000D03*
D13*
G04 #@! TO.P,display,2,VCC_2*
G04 #@! TO.N,+3V3*
X124000000Y-34080000D03*
G04 #@! TO.P,display,3,SCL_3*
G04 #@! TO.N,/OLED_SCL*
X124000000Y-31540000D03*
G04 #@! TO.P,display,4,SDA_4*
G04 #@! TO.N,/OLED_SDA*
X124000000Y-29000000D03*
G04 #@! TD*
D14*
G04 #@! TO.P,display,1,Pin_1_1*
G04 #@! TO.N,+3V3*
X172720000Y-83820000D03*
D13*
G04 #@! TO.P,display,2,Pin_2_2*
G04 #@! TO.N,GND*
X172720000Y-81280000D03*
G04 #@! TO.P,display,3,Pin_3_3*
G04 #@! TO.N,/DISP_CS*
X172720000Y-78740000D03*
G04 #@! TO.P,display,4,Pin_4_4*
G04 #@! TO.N,+3V3*
X172720000Y-76200000D03*
G04 #@! TO.P,display,5,Pin_5_5*
G04 #@! TO.N,/DISP_DC*
X172720000Y-73660000D03*
G04 #@! TO.P,display,6,Pin_6_6*
G04 #@! TO.N,/DISP_MOSI*
X172720000Y-71120000D03*
G04 #@! TO.P,display,7,Pin_7_7*
G04 #@! TO.N,/DISP_SCK*
X172720000Y-68580000D03*
G04 #@! TO.P,display,8,Pin_8_8*
G04 #@! TO.N,+3V3*
X172720000Y-66040000D03*
G04 #@! TO.P,display,9,Pin_9_9*
G04 #@! TO.N,/DISP_MISO*
X172720000Y-63500000D03*
G04 #@! TO.P,display,10,Pin_10_10*
G04 #@! TO.N,/DISP_SCK*
X172720000Y-60960000D03*
G04 #@! TO.P,display,11,Pin_11_11*
G04 #@! TO.N,/TOUCH_CS*
X172720000Y-58420000D03*
G04 #@! TO.P,display,12,Pin_12_12*
G04 #@! TO.N,/DISP_MOSI*
X172720000Y-55880000D03*
G04 #@! TO.P,display,13,Pin_13_13*
G04 #@! TO.N,/DISP_MISO*
X172720000Y-53340000D03*
G04 #@! TO.P,display,14,Pin_14_14*
G04 #@! TO.N,/TOUCH_IRQ*
X172720000Y-50800000D03*
G04 #@! TD*
D15*
G04 #@! TO.P,home,1,1_1*
G04 #@! TO.N,/BTN_BACK*
X173250000Y-97250000D03*
X179750000Y-97250000D03*
G04 #@! TO.P,home,2,2_2*
G04 #@! TO.N,GND*
X173250000Y-101750000D03*
X179750000Y-101750000D03*
G04 #@! TD*
D16*
G04 #@! TO.P,on/off!,*
G04 #@! TO.N,*
X149100000Y-149000000D03*
X140900000Y-149000000D03*
D17*
G04 #@! TO.P,on/off!,1,A_1*
G04 #@! TO.N,unconnected-(SW6-A-Pad1)*
X147000000Y-149000000D03*
D18*
G04 #@! TO.P,on/off!,2,B_2*
G04 #@! TO.N,/OUT_P*
X145000000Y-149000000D03*
G04 #@! TO.P,on/off!,3,C_3*
G04 #@! TO.N,/SYS_VBAT*
X143000000Y-149000000D03*
G04 #@! TD*
D14*
G04 #@! TO.P,sd,1,Pin_1_1*
G04 #@! TO.N,/SD_CS*
X100330000Y-71120000D03*
D13*
G04 #@! TO.P,sd,2,Pin_2_2*
G04 #@! TO.N,/DISP_MOSI*
X100330000Y-68580000D03*
G04 #@! TO.P,sd,3,Pin_3_3*
G04 #@! TO.N,/DISP_MISO*
X100330000Y-66040000D03*
G04 #@! TO.P,sd,4,Pin_4_4*
G04 #@! TO.N,/DISP_SCK*
X100330000Y-63500000D03*
G04 #@! TD*
D15*
G04 #@! TO.P,back,1,1_1*
G04 #@! TO.N,/BTN_A*
X159750000Y-106750000D03*
X166250000Y-106750000D03*
G04 #@! TO.P,back,2,2_2*
G04 #@! TO.N,GND*
X159750000Y-111250000D03*
X166250000Y-111250000D03*
G04 #@! TD*
G04 #@! TO.P,SW8,1,1_1*
G04 #@! TO.N,/BTN_B*
X185750000Y-106250000D03*
X192250000Y-106250000D03*
G04 #@! TO.P,SW8,2,2_2*
G04 #@! TO.N,GND*
X185750000Y-110750000D03*
X192250000Y-110750000D03*
G04 #@! TD*
D14*
G04 #@! TO.P,joystick,1,Pin_1_1*
G04 #@! TO.N,/SW*
X86750000Y-105580000D03*
D13*
G04 #@! TO.P,joystick,2,Pin_2_2*
G04 #@! TO.N,/VRY*
X86750000Y-103040000D03*
G04 #@! TO.P,joystick,3,Pin_3_3*
G04 #@! TO.N,/VRX*
X86750000Y-100500000D03*
G04 #@! TO.P,joystick,4,Pin_4_4*
G04 #@! TO.N,+3V3*
X86750000Y-97960000D03*
G04 #@! TO.P,joystick,5,Pin_5_5*
G04 #@! TO.N,GND*
X86750000Y-95420000D03*
G04 #@! TD*
D19*
G04 #@! TO.P,J2,1,Pin_1_1*
G04 #@! TO.N,/IN+*
X171680000Y-153000000D03*
G04 #@! TO.P,J2,2,Pin_2_2*
G04 #@! TO.N,/IN-*
X157320000Y-153000000D03*
G04 #@! TO.P,J2,3,Pin_3_3*
G04 #@! TO.N,/BAT_P*
X168510000Y-129550000D03*
G04 #@! TO.P,J2,4,Pin_4_4*
G04 #@! TO.N,/BAT_N*
X160490000Y-129550000D03*
G04 #@! TO.P,J2,5,Pin_5_5*
G04 #@! TO.N,/OUT_P*
X171680000Y-129550000D03*
G04 #@! TO.P,J2,6,Pin_6_6*
G04 #@! TO.N,GND*
X157320000Y-129550000D03*
G04 #@! TD*
D20*
G04 #@! TO.P,R1,1*
G04 #@! TO.N,/SYS_VBAT*
X80190000Y-145000000D03*
G04 #@! TO.P,R1,2*
G04 #@! TO.N,/SENS_BAT*
X87810000Y-145000000D03*
G04 #@! TD*
D14*
G04 #@! TO.P,J5,1,Pin_1_1*
G04 #@! TO.N,unconnected-(J5-Pin_1-Pad1)*
X98000000Y-114440000D03*
D13*
G04 #@! TO.P,J5,2,Pin_2_2*
G04 #@! TO.N,unconnected-(J5-Pin_2-Pad2)*
X98000000Y-116980000D03*
G04 #@! TO.P,J5,3,Pin_3_3*
G04 #@! TO.N,/SENS_BAT*
X98000000Y-119520000D03*
G04 #@! TO.P,J5,4,Pin_4_4*
G04 #@! TO.N,/VRX*
X98000000Y-122060000D03*
G04 #@! TO.P,J5,5,Pin_5_5*
G04 #@! TO.N,/VRY*
X98000000Y-124600000D03*
G04 #@! TO.P,J5,6,Pin_6_6*
G04 #@! TO.N,/SW*
X98000000Y-127140000D03*
G04 #@! TO.P,J5,7,Pin_7_7*
G04 #@! TO.N,/BTN_B*
X98000000Y-129680000D03*
G04 #@! TO.P,J5,8,Pin_8_8*
G04 #@! TO.N,/SD_CS*
X98000000Y-132220000D03*
G04 #@! TO.P,J5,9,Pin_9_9*
G04 #@! TO.N,/TOUCH_IRQ*
X98000000Y-134760000D03*
G04 #@! TO.P,J5,10,Pin_10_10*
G04 #@! TO.N,unconnected-(J5-Pin_10-Pad10)*
X98000000Y-137300000D03*
G04 #@! TO.P,J5,11,Pin_11_11*
G04 #@! TO.N,/BTN_BACK*
X98000000Y-139840000D03*
G04 #@! TO.P,J5,12,Pin_12_12*
G04 #@! TO.N,unconnected-(J5-Pin_12-Pad12)*
X98000000Y-142380000D03*
G04 #@! TO.P,J5,13,Pin_13_13*
G04 #@! TO.N,/BTN_A*
X98000000Y-144920000D03*
G04 #@! TO.P,J5,14,Pin_14_14*
G04 #@! TO.N,GND*
X98000000Y-147460000D03*
G04 #@! TO.P,J5,15,Pin_15_15*
G04 #@! TO.N,unconnected-(J5-Pin_15-Pad15)*
X98000000Y-150000000D03*
G04 #@! TD*
D20*
G04 #@! TO.P,C1,1*
G04 #@! TO.N,+3V3*
X144500000Y-124500000D03*
G04 #@! TO.P,C1,2*
G04 #@! TO.N,GND*
X142000000Y-124500000D03*
G04 #@! TD*
D21*
G04 #@! TO.P,CP1,1*
G04 #@! TO.N,+3V3*
X144500000Y-116000000D03*
D20*
G04 #@! TO.P,CP1,2*
G04 #@! TO.N,GND*
X142000000Y-116000000D03*
G04 #@! TD*
D22*
G04 #@! TO.P,D1,1,K_1*
G04 #@! TO.N,+3V3*
X150910000Y-138000000D03*
D23*
G04 #@! TO.P,D1,2,A_2*
G04 #@! TO.N,/SYS_VBAT*
X140750000Y-138000000D03*
G04 #@! TD*
D20*
G04 #@! TO.P,R2,1*
G04 #@! TO.N,/SENS_BAT*
X80190000Y-136500000D03*
G04 #@! TO.P,R2,2*
G04 #@! TO.N,GND*
X87810000Y-136500000D03*
G04 #@! TD*
D14*
G04 #@! TO.P,J6,1,Pin_1_1*
G04 #@! TO.N,+3V3*
X123400000Y-150000000D03*
D13*
G04 #@! TO.P,J6,2,Pin_2_2*
G04 #@! TO.N,unconnected-(J6-Pin_2-Pad2)*
X123400000Y-147460000D03*
G04 #@! TO.P,J6,3,Pin_3_3*
G04 #@! TO.N,/DISP_DC*
X123400000Y-144920000D03*
G04 #@! TO.P,J6,4,Pin_4_4*
G04 #@! TO.N,unconnected-(J6-Pin_4-Pad4)*
X123400000Y-142380000D03*
G04 #@! TO.P,J6,5,Pin_5_5*
G04 #@! TO.N,unconnected-(J6-Pin_5-Pad5)*
X123400000Y-139840000D03*
G04 #@! TO.P,J6,6,Pin_6_6*
G04 #@! TO.N,/TOUCH_CS*
X123400000Y-137300000D03*
G04 #@! TO.P,J6,7,Pin_7_7*
G04 #@! TO.N,unconnected-(J6-Pin_7-Pad7)*
X123400000Y-134760000D03*
G04 #@! TO.P,J6,8,Pin_8_8*
G04 #@! TO.N,/DISP_CS*
X123400000Y-132220000D03*
G04 #@! TO.P,J6,9,Pin_9_9*
G04 #@! TO.N,/DISP_SCK*
X123400000Y-129680000D03*
G04 #@! TO.P,J6,10,Pin_10_10*
G04 #@! TO.N,/DISP_MISO*
X123400000Y-127140000D03*
G04 #@! TO.P,J6,11,Pin_11_11*
G04 #@! TO.N,/OLED_SDA*
X123400000Y-124600000D03*
G04 #@! TO.P,J6,12,Pin_12_12*
G04 #@! TO.N,unconnected-(J6-Pin_12-Pad12)*
X123400000Y-122060000D03*
G04 #@! TO.P,J6,13,Pin_13_13*
G04 #@! TO.N,unconnected-(J6-Pin_13-Pad13)*
X123400000Y-119520000D03*
G04 #@! TO.P,J6,14,Pin_14_14*
G04 #@! TO.N,/OLED_SCL*
X123400000Y-116980000D03*
G04 #@! TO.P,J6,15,Pin_15_15*
G04 #@! TO.N,/DISP_MOSI*
X123400000Y-114440000D03*
G04 #@! TD*
D24*
G04 #@! TO.P,J1,1,Pin_1_1*
G04 #@! TO.N,/BAT_P*
X186000000Y-141550000D03*
D25*
G04 #@! TO.P,J1,2,Pin_2_2*
G04 #@! TO.N,/BAT_N*
X184000000Y-141550000D03*
G04 #@! TD*
D26*
G04 #@! TO.N,+3V3*
X147000000Y-113500000D03*
G04 #@! TO.N,/SENS_BAT*
X81000000Y-134000000D03*
G04 #@! TD*
G04 #@! TO.N,/DISP_SCK*
D27*
X99150000Y-132696346D02*
X99303654Y-132696346D01*
X99303654Y-132696346D02*
X102320000Y-129680000D01*
X98476346Y-131070000D02*
X98476346Y-130830000D01*
X98476346Y-123450000D02*
X98476346Y-123210000D01*
X98476346Y-125990000D02*
X98476346Y-125750000D01*
X98476346Y-128530000D02*
X98476346Y-128290000D01*
G04 #@! TO.N,/DISP_MISO*
X98922032Y-128410000D02*
X99550000Y-129037969D01*
X99550000Y-126497969D02*
X99550000Y-127782032D01*
X122000000Y-128540000D02*
X123400000Y-127140000D01*
X99550000Y-129037969D02*
X99550000Y-131884314D01*
X99550000Y-122857968D02*
X99000000Y-123407968D01*
X99066016Y-120933984D02*
X99550000Y-121417969D01*
X99550000Y-127782032D02*
X98922032Y-128410000D01*
X99550000Y-123957969D02*
X99550000Y-125242032D01*
X99000000Y-123407968D02*
X99550000Y-123957969D01*
X98922032Y-125870000D02*
X99550000Y-126497969D01*
X99550000Y-125242032D02*
X98922032Y-125870000D01*
X99150000Y-120850001D02*
X99066016Y-120933984D01*
X99150000Y-117456346D02*
X99150000Y-120850001D01*
X99550000Y-131884314D02*
X102154315Y-129280000D01*
X102154315Y-129280000D02*
X122000000Y-129280000D01*
X122000000Y-129280000D02*
X122000000Y-128540000D01*
G04 #@! TO.N,+3V3*
D28*
X192300000Y-107700000D02*
X176034314Y-123965686D01*
X150910000Y-126184158D02*
X150910000Y-138000000D01*
X151906496Y-123015686D02*
X152118628Y-123015686D01*
X150422182Y-124500000D02*
X151906496Y-123015686D01*
X170634314Y-104500000D02*
X194749390Y-104500000D01*
X144500000Y-116000000D02*
X144500000Y-128900000D01*
X169662132Y-124115686D02*
X152978472Y-124115686D01*
X144500000Y-128900000D02*
X148900000Y-124500000D01*
X193700000Y-106300000D02*
X193700000Y-106850610D01*
X152118628Y-123015686D02*
X170634314Y-104500000D01*
X144500000Y-116000000D02*
X147000000Y-113500000D01*
X152978472Y-124115686D02*
X150910000Y-126184158D01*
X148900000Y-124500000D02*
X150422182Y-124500000D01*
X176034314Y-123965686D02*
X169812131Y-123965686D01*
X192850610Y-107700000D02*
X192300000Y-107700000D01*
X193700000Y-106850610D02*
X192850610Y-107700000D01*
X169812131Y-123965686D02*
X169662132Y-124115686D01*
X194749390Y-105250610D02*
X193700000Y-106300000D01*
X194749390Y-104500000D02*
X194749390Y-105250610D01*
X144500000Y-128900000D02*
X123400000Y-150000000D01*
G04 #@! TO.N,/OLED_SCL*
D27*
X124000000Y-31540000D02*
X106000000Y-49540000D01*
X106000000Y-49540000D02*
X106000000Y-63475686D01*
X106000000Y-63475686D02*
X101487843Y-67987843D01*
X123400000Y-116980000D02*
X124550000Y-115830000D01*
X101487843Y-67987843D02*
X124550000Y-91050000D01*
X124550000Y-91050000D02*
X124550000Y-115830000D01*
G04 #@! TO.N,/OLED_SDA*
X125150000Y-30150000D02*
X125150000Y-45350000D01*
X124000000Y-29000000D02*
X125150000Y-30150000D01*
X125500000Y-122500000D02*
X123400000Y-124600000D01*
X102500000Y-68000000D02*
X125500000Y-91000000D01*
X125500000Y-91000000D02*
X125500000Y-122500000D01*
X125150000Y-45350000D02*
X102500000Y-68000000D01*
G04 #@! TO.N,/DISP_CS*
X122923654Y-146070000D02*
X122250000Y-145396346D01*
X128800000Y-122660000D02*
X128800000Y-141146346D01*
X172720000Y-78740000D02*
X128800000Y-122660000D01*
X128800000Y-141146346D02*
X123876346Y-146070000D01*
X122250000Y-145396346D02*
X122250000Y-133370000D01*
X123876346Y-146070000D02*
X122923654Y-146070000D01*
X122250000Y-133370000D02*
X123400000Y-132220000D01*
G04 #@! TO.N,/DISP_DC*
X128400000Y-117980000D02*
X128400000Y-139920000D01*
X123400000Y-144920000D02*
X128400000Y-139920000D01*
X172720000Y-73660000D02*
X128400000Y-117980000D01*
G04 #@! TO.N,/DISP_MOSI*
X123400000Y-114440000D02*
X123400000Y-91650000D01*
X172243654Y-54490000D02*
X171570000Y-53816346D01*
X118565686Y-25000000D02*
X104900000Y-38665686D01*
X104900000Y-38665686D02*
X104900000Y-64010000D01*
X170000000Y-32631372D02*
X162268628Y-24900000D01*
X104900000Y-64010000D02*
X100330000Y-68580000D01*
X172243654Y-52190000D02*
X173196346Y-52190000D01*
X173196346Y-49650000D02*
X172650000Y-49650000D01*
X162268628Y-24900000D02*
X162168628Y-25000000D01*
X174500000Y-52125686D02*
X173816016Y-52809670D01*
X171570000Y-53816346D02*
X171570000Y-52863654D01*
X174500000Y-52125686D02*
X174500000Y-54100000D01*
X173870000Y-53816346D02*
X173196346Y-54490000D01*
X173870000Y-50870000D02*
X173870000Y-50323654D01*
X173816016Y-52809670D02*
X173870000Y-52863654D01*
X170000000Y-47000000D02*
X170000000Y-32631372D01*
X171570000Y-52863654D02*
X172243654Y-52190000D01*
X174500000Y-54100000D02*
X172720000Y-55880000D01*
X174247157Y-51247157D02*
X173870000Y-50870000D01*
X162168628Y-25000000D02*
X118565686Y-25000000D01*
X123400000Y-91650000D02*
X100330000Y-68580000D01*
X173196346Y-52190000D02*
X173250330Y-52243984D01*
X173250330Y-52243984D02*
X174247157Y-51247157D01*
X173870000Y-50323654D02*
X173196346Y-49650000D01*
X172650000Y-49650000D02*
X170000000Y-47000000D01*
X173196346Y-54490000D02*
X172243654Y-54490000D01*
X173870000Y-52863654D02*
X173870000Y-53816346D01*
G04 #@! TO.N,/DISP_SCK*
X98476346Y-120910000D02*
X99150000Y-121583654D01*
X176590000Y-64710000D02*
X172720000Y-68580000D01*
X97000000Y-100280000D02*
X97000000Y-113290000D01*
X102320000Y-129680000D02*
X123400000Y-129680000D01*
X99150000Y-127616346D02*
X98476346Y-128290000D01*
X96850000Y-119996346D02*
X97000000Y-120146346D01*
X162600000Y-24100000D02*
X117900000Y-24100000D01*
X178900000Y-54780000D02*
X178900000Y-40400000D01*
X99150000Y-122536346D02*
X98476346Y-123210000D01*
X99150000Y-125076346D02*
X98476346Y-125750000D01*
X176590000Y-57090000D02*
X176590000Y-64710000D01*
X99150000Y-121583654D02*
X99150000Y-122536346D01*
X99150000Y-130156346D02*
X98476346Y-130830000D01*
X99150000Y-126663654D02*
X99150000Y-127616346D01*
X97523654Y-120910000D02*
X98476346Y-120910000D01*
X97000000Y-117606346D02*
X97000000Y-118893654D01*
X104000000Y-38000000D02*
X104000000Y-59830000D01*
X98476346Y-125990000D02*
X99150000Y-126663654D01*
X99150000Y-124123654D02*
X99150000Y-125076346D01*
X96500000Y-63500000D02*
X90500000Y-69500000D01*
X96850000Y-119043654D02*
X96850000Y-119996346D01*
X90500000Y-96780000D02*
X93500000Y-96780000D01*
X96850000Y-113290000D02*
X96850000Y-115590000D01*
X98476346Y-123450000D02*
X99150000Y-124123654D01*
X93500000Y-96780000D02*
X97000000Y-100280000D01*
X123400000Y-129100000D02*
X123500000Y-129000000D01*
X104000000Y-59830000D02*
X100330000Y-63500000D01*
X117900000Y-24100000D02*
X104000000Y-38000000D01*
X97469670Y-120963984D02*
X97523654Y-120910000D01*
X96850000Y-115590000D02*
X97000000Y-115590000D01*
X90500000Y-69500000D02*
X90500000Y-96780000D01*
X100330000Y-63500000D02*
X96500000Y-63500000D01*
X178900000Y-40400000D02*
X162600000Y-24100000D01*
X98476346Y-131070000D02*
X99150000Y-131743654D01*
X99150000Y-131743654D02*
X99150000Y-132696346D01*
X97000000Y-120146346D02*
X97000000Y-120494314D01*
X172720000Y-60960000D02*
X176590000Y-57090000D01*
X96850000Y-116503654D02*
X96850000Y-117456346D01*
X176590000Y-57090000D02*
X178900000Y-54780000D01*
X97000000Y-115590000D02*
X97000000Y-116353654D01*
X99150000Y-129203654D02*
X99150000Y-130156346D01*
X96850000Y-117456346D02*
X97000000Y-117606346D01*
X97000000Y-120494314D02*
X97469670Y-120963984D01*
X97000000Y-118893654D02*
X96850000Y-119043654D01*
X97000000Y-113290000D02*
X96850000Y-113290000D01*
X97000000Y-116353654D02*
X96850000Y-116503654D01*
X123400000Y-129680000D02*
X123400000Y-129100000D01*
X98476346Y-128530000D02*
X99150000Y-129203654D01*
G04 #@! TO.N,/DISP_MISO*
X104500000Y-38500000D02*
X118500000Y-24500000D01*
X162434314Y-24500000D02*
X178500000Y-40565686D01*
X174780000Y-51280000D02*
X172720000Y-53340000D01*
X173152032Y-59614314D02*
X174900000Y-57866346D01*
X99150000Y-96890000D02*
X99150000Y-117456346D01*
X178500000Y-47560000D02*
X174780000Y-51280000D01*
X100330000Y-66040000D02*
X97370000Y-69000000D01*
X171570000Y-62350000D02*
X171570000Y-60483654D01*
X92000000Y-69000000D02*
X92000000Y-95740000D01*
X118500000Y-24500000D02*
X162434314Y-24500000D01*
X97370000Y-69000000D02*
X92000000Y-69000000D01*
X174900000Y-57866346D02*
X174900000Y-51400000D01*
X174900000Y-51400000D02*
X174780000Y-51280000D01*
X172439340Y-59614314D02*
X173152032Y-59614314D01*
X171570000Y-60483654D02*
X172439340Y-59614314D01*
X98000000Y-95740000D02*
X99150000Y-96890000D01*
X178500000Y-40565686D02*
X178500000Y-47560000D01*
X172720000Y-63500000D02*
X171570000Y-62350000D01*
X100330000Y-66040000D02*
X104500000Y-61870000D01*
X104500000Y-61870000D02*
X104500000Y-38500000D01*
X92000000Y-95740000D02*
X98000000Y-95740000D01*
G04 #@! TO.N,/TOUCH_CS*
X128000000Y-103140000D02*
X128000000Y-132700000D01*
X128000000Y-132700000D02*
X123400000Y-137300000D01*
X123350000Y-137250000D02*
X123400000Y-137300000D01*
X172720000Y-58420000D02*
X128000000Y-103140000D01*
G04 #@! TO.N,/TOUCH_IRQ*
X125900000Y-129046346D02*
X123876346Y-131070000D01*
X101690000Y-131070000D02*
X98000000Y-134760000D01*
X172720000Y-50800000D02*
X125900000Y-97620000D01*
X123876346Y-131070000D02*
X101690000Y-131070000D01*
X125900000Y-97620000D02*
X125900000Y-129046346D01*
G04 #@! TO.N,/BTN_B*
X124550000Y-151150000D02*
X92404365Y-151150000D01*
X96850000Y-138016346D02*
X96850000Y-130830000D01*
X185750000Y-106250000D02*
X192250000Y-106250000D01*
X97523654Y-138690000D02*
X96850000Y-138016346D01*
X99150000Y-139363654D02*
X98476346Y-138690000D01*
X152134314Y-123565686D02*
X124550000Y-151150000D01*
X186000000Y-106000000D02*
X168434314Y-123565686D01*
X168434314Y-123565686D02*
X152134314Y-123565686D01*
X97523654Y-140990000D02*
X98476346Y-140990000D01*
X79090000Y-126410000D02*
X82943654Y-126410000D01*
X99150000Y-140316346D02*
X99150000Y-139363654D01*
X82943654Y-126410000D02*
X97523654Y-140990000D01*
X96850000Y-130830000D02*
X98000000Y-129680000D01*
X98476346Y-140990000D02*
X99150000Y-140316346D01*
X79090000Y-137835635D02*
X79090000Y-126410000D01*
X92404365Y-151150000D02*
X79090000Y-137835635D01*
X98476346Y-138690000D02*
X97523654Y-138690000D01*
G04 #@! TO.N,/OUT_P*
D29*
X147471165Y-146062311D02*
X147822637Y-145710839D01*
X147822637Y-143927126D02*
X148174109Y-143575654D01*
X171680000Y-126680000D02*
X171680000Y-129775000D01*
X171000000Y-126000000D02*
X171680000Y-126680000D01*
X153500000Y-143575654D02*
X153500000Y-126000000D01*
X147822637Y-145710839D02*
X147822637Y-143927126D01*
X148174109Y-143575654D02*
X153500000Y-143575654D01*
X153500000Y-126000000D02*
X171000000Y-126000000D01*
X145000000Y-149000000D02*
X145000000Y-146062311D01*
X145000000Y-146062311D02*
X147471165Y-146062311D01*
G04 #@! TO.N,/SYS_VBAT*
X140750000Y-145750000D02*
X140750000Y-138000000D01*
X140750000Y-138000000D02*
X125750000Y-153000000D01*
X143000000Y-149000000D02*
X143000000Y-148000000D01*
X88190000Y-153000000D02*
X80190000Y-145000000D01*
X143000000Y-148000000D02*
X140750000Y-145750000D01*
X125750000Y-153000000D02*
X88190000Y-153000000D01*
G04 #@! TO.N,/BTN_A*
D27*
X97830000Y-144750000D02*
X98000000Y-144920000D01*
X166250000Y-106500000D02*
X148000000Y-106500000D01*
X148000000Y-106500000D02*
X139000000Y-115500000D01*
X139000000Y-115500000D02*
X139000000Y-133486346D01*
X97920000Y-145000000D02*
X98000000Y-144920000D01*
X139000000Y-133486346D02*
X123876346Y-148610000D01*
X123876346Y-148610000D02*
X101690000Y-148610000D01*
X101690000Y-148610000D02*
X98282843Y-145202843D01*
G04 #@! TO.N,/BTN_BACK*
X173250000Y-97250000D02*
X179750000Y-97250000D01*
X84000000Y-125840000D02*
X84000000Y-57434314D01*
X179300000Y-85700000D02*
X173000000Y-92000000D01*
X84000000Y-57434314D02*
X117734314Y-23700000D01*
X179300000Y-40234314D02*
X179300000Y-85700000D01*
X162765685Y-23700000D02*
X179300000Y-40234314D01*
X173000000Y-97000000D02*
X173250000Y-97250000D01*
X173000000Y-92000000D02*
X173000000Y-97000000D01*
X117734314Y-23700000D02*
X162765685Y-23700000D01*
X98000000Y-139840000D02*
X84000000Y-125840000D01*
G04 #@! TO.N,/SW*
X86750000Y-105580000D02*
X86750000Y-115890000D01*
X86750000Y-115890000D02*
X98000000Y-127140000D01*
G04 #@! TO.N,/VRY*
X88000000Y-104290000D02*
X88000000Y-114600000D01*
X88000000Y-114600000D02*
X98000000Y-124600000D01*
X86750000Y-103040000D02*
X88000000Y-104290000D01*
G04 #@! TO.N,/VRX*
X86750000Y-100500000D02*
X89000000Y-102750000D01*
X89000000Y-102750000D02*
X89000000Y-113060000D01*
X90940000Y-115000000D02*
X98000000Y-122060000D01*
X89000000Y-113060000D02*
X91470000Y-115530000D01*
G04 #@! TO.N,/SENS_BAT*
X80190000Y-134810000D02*
X81000000Y-134000000D01*
X80190000Y-136500000D02*
X80190000Y-134810000D01*
X80190000Y-136500000D02*
X87810000Y-144120000D01*
X87810000Y-144120000D02*
X87810000Y-145000000D01*
G04 #@! TO.N,/BAT_P*
D29*
X169500000Y-134500000D02*
X186000000Y-134500000D01*
X168510000Y-133510000D02*
X169500000Y-134500000D01*
X168510000Y-129775000D02*
X168510000Y-133510000D01*
X186000000Y-134500000D02*
X186000000Y-141550000D01*
G04 #@! TO.N,/BAT_N*
X167166000Y-138000000D02*
X160490000Y-131324000D01*
X160490000Y-131324000D02*
X160490000Y-129550000D01*
X184000000Y-141550000D02*
X180450000Y-138000000D01*
X160490000Y-129550000D02*
X160490000Y-129775000D01*
X180450000Y-138000000D02*
X167166000Y-138000000D01*
G04 #@! TO.N,/DISP_MISO*
D27*
X99550000Y-121417969D02*
X99550000Y-122857968D01*
G04 #@! TD*
G04 #@! TA.AperFunction,Conductor*
G04 #@! TO.N,GND*
G36*
X82710596Y-127030185D02*
G01*
X82731238Y-127046819D01*
X96989579Y-141305160D01*
X97023064Y-141366483D01*
X97018080Y-141436175D01*
X96989583Y-141480518D01*
X96969899Y-141500203D01*
X96969892Y-141500211D01*
X96844951Y-141672179D01*
X96748444Y-141861585D01*
X96682753Y-142063760D01*
X96657214Y-142225009D01*
X96649500Y-142273713D01*
X96649500Y-142486287D01*
X96657546Y-142537084D01*
X96679413Y-142675154D01*
X96682754Y-142696243D01*
X96731046Y-142844871D01*
X96748444Y-142898414D01*
X96844951Y-143087820D01*
X96969890Y-143259786D01*
X97120213Y-143410109D01*
X97292182Y-143535050D01*
X97300946Y-143539516D01*
X97351742Y-143587491D01*
X97368536Y-143655312D01*
X97345998Y-143721447D01*
X97300946Y-143760484D01*
X97292182Y-143764949D01*
X97120213Y-143889890D01*
X96969890Y-144040213D01*
X96844951Y-144212179D01*
X96748444Y-144401585D01*
X96748443Y-144401587D01*
X96748443Y-144401588D01*
X96724215Y-144476153D01*
X96682753Y-144603760D01*
X96649500Y-144813713D01*
X96649500Y-145026286D01*
X96682753Y-145236239D01*
X96682753Y-145236241D01*
X96682754Y-145236243D01*
X96737431Y-145404522D01*
X96748444Y-145438414D01*
X96844951Y-145627820D01*
X96969890Y-145799786D01*
X97120213Y-145950109D01*
X97292179Y-146075048D01*
X97292181Y-146075049D01*
X97292184Y-146075051D01*
X97301493Y-146079794D01*
X97352290Y-146127766D01*
X97369087Y-146195587D01*
X97346552Y-146261722D01*
X97301505Y-146300760D01*
X97292446Y-146305376D01*
X97292440Y-146305380D01*
X97238282Y-146344727D01*
X97238282Y-146344728D01*
X97870591Y-146977037D01*
X97807007Y-146994075D01*
X97692993Y-147059901D01*
X97599901Y-147152993D01*
X97534075Y-147267007D01*
X97517037Y-147330591D01*
X96884728Y-146698282D01*
X96884727Y-146698282D01*
X96845380Y-146752439D01*
X96748904Y-146941782D01*
X96683242Y-147143869D01*
X96683242Y-147143872D01*
X96650000Y-147353753D01*
X96650000Y-147566246D01*
X96683242Y-147776127D01*
X96683242Y-147776130D01*
X96748904Y-147978217D01*
X96845375Y-148167550D01*
X96884728Y-148221716D01*
X97517037Y-147589408D01*
X97534075Y-147652993D01*
X97599901Y-147767007D01*
X97692993Y-147860099D01*
X97807007Y-147925925D01*
X97870590Y-147942962D01*
X97238282Y-148575269D01*
X97238282Y-148575270D01*
X97292452Y-148614626D01*
X97292451Y-148614626D01*
X97301495Y-148619234D01*
X97352292Y-148667208D01*
X97369087Y-148735029D01*
X97346550Y-148801164D01*
X97301499Y-148840202D01*
X97292182Y-148844949D01*
X97120213Y-148969890D01*
X96969890Y-149120213D01*
X96844951Y-149292179D01*
X96748444Y-149481585D01*
X96682753Y-149683760D01*
X96649500Y-149893713D01*
X96649500Y-150106286D01*
X96672435Y-150251096D01*
X96682754Y-150316243D01*
X96695722Y-150356155D01*
X96705804Y-150387182D01*
X96707799Y-150457023D01*
X96671719Y-150516856D01*
X96609018Y-150547684D01*
X96587873Y-150549500D01*
X92704463Y-150549500D01*
X92637424Y-150529815D01*
X92616782Y-150513181D01*
X88429638Y-146326037D01*
X88396153Y-146264714D01*
X88401137Y-146195022D01*
X88443009Y-146139089D01*
X88461025Y-146127871D01*
X88467817Y-146124409D01*
X88491610Y-146112287D01*
X88628739Y-146012658D01*
X88657213Y-145991971D01*
X88657215Y-145991968D01*
X88657219Y-145991966D01*
X88801966Y-145847219D01*
X88801968Y-145847215D01*
X88801971Y-145847213D01*
X88861659Y-145765058D01*
X88922287Y-145681610D01*
X89015220Y-145499219D01*
X89078477Y-145304534D01*
X89110500Y-145102352D01*
X89110500Y-144897648D01*
X89078477Y-144695466D01*
X89015220Y-144500781D01*
X89015218Y-144500778D01*
X89015218Y-144500776D01*
X88972310Y-144416566D01*
X88922287Y-144318390D01*
X88914556Y-144307749D01*
X88801971Y-144152786D01*
X88657213Y-144008028D01*
X88491613Y-143887715D01*
X88491612Y-143887714D01*
X88491610Y-143887713D01*
X88351030Y-143816083D01*
X88300235Y-143768109D01*
X88299938Y-143767597D01*
X88290520Y-143751284D01*
X88178716Y-143639480D01*
X88178715Y-143639479D01*
X88174385Y-143635149D01*
X88174374Y-143635139D01*
X81484077Y-136944842D01*
X81450592Y-136883519D01*
X81453828Y-136818841D01*
X81458477Y-136804534D01*
X81490500Y-136602352D01*
X81490500Y-136397682D01*
X86510000Y-136397682D01*
X86510000Y-136602317D01*
X86542009Y-136804417D01*
X86605244Y-136999031D01*
X86698141Y-137181350D01*
X86698147Y-137181359D01*
X86730523Y-137225921D01*
X86730524Y-137225922D01*
X87410000Y-136546446D01*
X87410000Y-136552661D01*
X87437259Y-136654394D01*
X87489920Y-136745606D01*
X87564394Y-136820080D01*
X87655606Y-136872741D01*
X87757339Y-136900000D01*
X87763553Y-136900000D01*
X87084076Y-137579474D01*
X87128650Y-137611859D01*
X87310968Y-137704755D01*
X87505582Y-137767990D01*
X87707683Y-137800000D01*
X87912317Y-137800000D01*
X88114417Y-137767990D01*
X88309031Y-137704755D01*
X88491349Y-137611859D01*
X88535921Y-137579474D01*
X87856447Y-136900000D01*
X87862661Y-136900000D01*
X87964394Y-136872741D01*
X88055606Y-136820080D01*
X88130080Y-136745606D01*
X88182741Y-136654394D01*
X88210000Y-136552661D01*
X88210000Y-136546447D01*
X88889474Y-137225921D01*
X88921859Y-137181349D01*
X89014755Y-136999031D01*
X89077990Y-136804417D01*
X89110000Y-136602317D01*
X89110000Y-136397682D01*
X89077990Y-136195582D01*
X89014755Y-136000968D01*
X88921859Y-135818650D01*
X88889474Y-135774077D01*
X88889474Y-135774076D01*
X88210000Y-136453551D01*
X88210000Y-136447339D01*
X88182741Y-136345606D01*
X88130080Y-136254394D01*
X88055606Y-136179920D01*
X87964394Y-136127259D01*
X87862661Y-136100000D01*
X87856446Y-136100000D01*
X88535922Y-135420524D01*
X88535921Y-135420523D01*
X88491359Y-135388147D01*
X88491350Y-135388141D01*
X88309031Y-135295244D01*
X88114417Y-135232009D01*
X87912317Y-135200000D01*
X87707683Y-135200000D01*
X87505582Y-135232009D01*
X87310968Y-135295244D01*
X87128644Y-135388143D01*
X87084077Y-135420523D01*
X87084077Y-135420524D01*
X87763554Y-136100000D01*
X87757339Y-136100000D01*
X87655606Y-136127259D01*
X87564394Y-136179920D01*
X87489920Y-136254394D01*
X87437259Y-136345606D01*
X87410000Y-136447339D01*
X87410000Y-136453553D01*
X86730524Y-135774077D01*
X86730523Y-135774077D01*
X86698143Y-135818644D01*
X86605244Y-136000968D01*
X86542009Y-136195582D01*
X86510000Y-136397682D01*
X81490500Y-136397682D01*
X81490500Y-136397648D01*
X81470265Y-136269890D01*
X81458477Y-136195465D01*
X81398721Y-136011557D01*
X81395220Y-136000781D01*
X81395218Y-136000778D01*
X81395218Y-136000776D01*
X81302419Y-135818650D01*
X81302287Y-135818390D01*
X81270092Y-135774077D01*
X81181971Y-135652786D01*
X81037213Y-135508028D01*
X80871610Y-135387712D01*
X80858200Y-135380879D01*
X80807406Y-135332903D01*
X80790500Y-135270397D01*
X80790500Y-135110097D01*
X80810185Y-135043058D01*
X80826819Y-135022416D01*
X81014662Y-134834572D01*
X81075983Y-134801089D01*
X81078150Y-134800638D01*
X81136085Y-134789113D01*
X81233497Y-134769737D01*
X81379179Y-134709394D01*
X81510289Y-134621789D01*
X81621789Y-134510289D01*
X81709394Y-134379179D01*
X81769737Y-134233497D01*
X81800500Y-134078842D01*
X81800500Y-133921158D01*
X81800500Y-133921155D01*
X81800499Y-133921153D01*
X81792354Y-133880208D01*
X81769737Y-133766503D01*
X81714896Y-133634103D01*
X81709397Y-133620827D01*
X81709390Y-133620814D01*
X81621789Y-133489711D01*
X81621786Y-133489707D01*
X81510292Y-133378213D01*
X81510288Y-133378210D01*
X81379185Y-133290609D01*
X81379172Y-133290602D01*
X81233501Y-133230264D01*
X81233489Y-133230261D01*
X81078845Y-133199500D01*
X81078842Y-133199500D01*
X80921158Y-133199500D01*
X80921155Y-133199500D01*
X80766510Y-133230261D01*
X80766498Y-133230264D01*
X80620827Y-133290602D01*
X80620814Y-133290609D01*
X80489711Y-133378210D01*
X80489707Y-133378213D01*
X80378213Y-133489707D01*
X80378210Y-133489711D01*
X80290609Y-133620814D01*
X80290602Y-133620827D01*
X80230264Y-133766498D01*
X80230261Y-133766508D01*
X80199361Y-133921850D01*
X80166976Y-133983761D01*
X80165425Y-133985339D01*
X79902181Y-134248583D01*
X79840858Y-134282068D01*
X79771166Y-134277084D01*
X79715233Y-134235212D01*
X79690816Y-134169748D01*
X79690500Y-134160902D01*
X79690500Y-127134500D01*
X79710185Y-127067461D01*
X79762989Y-127021706D01*
X79814500Y-127010500D01*
X82643557Y-127010500D01*
X82710596Y-127030185D01*
G37*
G04 #@! TD.AperFunction*
G04 #@! TA.AperFunction,Conductor*
G36*
X99555203Y-147324885D02*
G01*
X99561681Y-147330917D01*
X99883757Y-147652993D01*
X101321284Y-149090520D01*
X101321286Y-149090521D01*
X101321290Y-149090524D01*
X101372714Y-149120213D01*
X101458216Y-149169577D01*
X101610943Y-149210501D01*
X101610945Y-149210501D01*
X101776654Y-149210501D01*
X101776670Y-149210500D01*
X121925500Y-149210500D01*
X121992539Y-149230185D01*
X122038294Y-149282989D01*
X122049500Y-149334500D01*
X122049501Y-150425500D01*
X122029816Y-150492539D01*
X121977013Y-150538294D01*
X121925501Y-150549500D01*
X99412127Y-150549500D01*
X99345088Y-150529815D01*
X99299333Y-150477011D01*
X99289389Y-150407853D01*
X99294196Y-150387182D01*
X99317246Y-150316243D01*
X99350500Y-150106287D01*
X99350500Y-149893713D01*
X99317246Y-149683757D01*
X99251557Y-149481588D01*
X99155051Y-149292184D01*
X99155049Y-149292181D01*
X99155048Y-149292179D01*
X99030109Y-149120213D01*
X98879786Y-148969890D01*
X98707817Y-148844949D01*
X98698504Y-148840204D01*
X98647707Y-148792230D01*
X98630912Y-148724409D01*
X98653449Y-148658274D01*
X98698507Y-148619232D01*
X98707555Y-148614622D01*
X98761716Y-148575270D01*
X98761717Y-148575270D01*
X98129408Y-147942962D01*
X98192993Y-147925925D01*
X98307007Y-147860099D01*
X98400099Y-147767007D01*
X98465925Y-147652993D01*
X98482962Y-147589408D01*
X99115270Y-148221717D01*
X99115270Y-148221716D01*
X99154622Y-148167554D01*
X99251095Y-147978217D01*
X99316757Y-147776130D01*
X99316757Y-147776127D01*
X99350000Y-147566246D01*
X99350000Y-147418598D01*
X99369685Y-147351559D01*
X99422489Y-147305804D01*
X99491647Y-147295860D01*
X99555203Y-147324885D01*
G37*
G04 #@! TD.AperFunction*
G04 #@! TA.AperFunction,Conductor*
G36*
X103318834Y-39067229D02*
G01*
X103374767Y-39109101D01*
X103399184Y-39174565D01*
X103399500Y-39183411D01*
X103399500Y-59529902D01*
X103379815Y-59596941D01*
X103363181Y-59617583D01*
X100814522Y-62166241D01*
X100753199Y-62199726D01*
X100688523Y-62196491D01*
X100646245Y-62182754D01*
X100493464Y-62158556D01*
X100436287Y-62149500D01*
X100223713Y-62149500D01*
X100175042Y-62157208D01*
X100013760Y-62182753D01*
X99811585Y-62248444D01*
X99622179Y-62344951D01*
X99450213Y-62469890D01*
X99299890Y-62620213D01*
X99174948Y-62792184D01*
X99174947Y-62792185D01*
X99154765Y-62831795D01*
X99106791Y-62882591D01*
X99044281Y-62899500D01*
X96420941Y-62899500D01*
X96383334Y-62909576D01*
X96383335Y-62909577D01*
X96268214Y-62940423D01*
X96268209Y-62940426D01*
X96131290Y-63019475D01*
X96131282Y-63019481D01*
X90019479Y-69131284D01*
X89999507Y-69165878D01*
X89991065Y-69180501D01*
X89940423Y-69268215D01*
X89899499Y-69420943D01*
X89899499Y-69420945D01*
X89899499Y-69589046D01*
X89899500Y-69589059D01*
X89899500Y-96859057D01*
X89928976Y-96969061D01*
X89940423Y-97011783D01*
X89940426Y-97011790D01*
X90019475Y-97148709D01*
X90019479Y-97148714D01*
X90019480Y-97148716D01*
X90131284Y-97260520D01*
X90131286Y-97260521D01*
X90131290Y-97260524D01*
X90268209Y-97339573D01*
X90268216Y-97339577D01*
X90420943Y-97380500D01*
X90579057Y-97380500D01*
X93199903Y-97380500D01*
X93266942Y-97400185D01*
X93287584Y-97416819D01*
X96363181Y-100492416D01*
X96396666Y-100553739D01*
X96399500Y-100580097D01*
X96399500Y-112840069D01*
X96379815Y-112907108D01*
X96373875Y-112915557D01*
X96369475Y-112921290D01*
X96290426Y-113058209D01*
X96290423Y-113058216D01*
X96249500Y-113210943D01*
X96249500Y-115510943D01*
X96249500Y-115669057D01*
X96285479Y-115803330D01*
X96290423Y-115821783D01*
X96290426Y-115821790D01*
X96369473Y-115958706D01*
X96369477Y-115958712D01*
X96369480Y-115958716D01*
X96369482Y-115958718D01*
X96373872Y-115964438D01*
X96399069Y-116029606D01*
X96399500Y-116039930D01*
X96399500Y-116053723D01*
X96379815Y-116120762D01*
X96373875Y-116129211D01*
X96369479Y-116134939D01*
X96337403Y-116190498D01*
X96337402Y-116190500D01*
X96290423Y-116271868D01*
X96281702Y-116304417D01*
X96249499Y-116424597D01*
X96249499Y-116424599D01*
X96249499Y-116592700D01*
X96249500Y-116592713D01*
X96249500Y-117369676D01*
X96249499Y-117369694D01*
X96249499Y-117535400D01*
X96249498Y-117535400D01*
X96290423Y-117688131D01*
X96319358Y-117738246D01*
X96319359Y-117738250D01*
X96319360Y-117738250D01*
X96369480Y-117825062D01*
X96369483Y-117825065D01*
X96373872Y-117830784D01*
X96399069Y-117895952D01*
X96399500Y-117906276D01*
X96399500Y-118593723D01*
X96379815Y-118660762D01*
X96373875Y-118669211D01*
X96369480Y-118674938D01*
X96330265Y-118742861D01*
X96290423Y-118811869D01*
X96249499Y-118964597D01*
X96249499Y-118964599D01*
X96249499Y-119132700D01*
X96249500Y-119132713D01*
X96249500Y-119160902D01*
X96229815Y-119227941D01*
X96177011Y-119273696D01*
X96107853Y-119283640D01*
X96044297Y-119254615D01*
X96037819Y-119248583D01*
X91308716Y-114519481D01*
X89636819Y-112847584D01*
X89603334Y-112786261D01*
X89600500Y-112759903D01*
X89600500Y-102839060D01*
X89600501Y-102839047D01*
X89600501Y-102670944D01*
X89597429Y-102659478D01*
X89559577Y-102518216D01*
X89559573Y-102518209D01*
X89480524Y-102381290D01*
X89480518Y-102381282D01*
X88806727Y-101707491D01*
X88083756Y-100984521D01*
X88050272Y-100923199D01*
X88053507Y-100858523D01*
X88067246Y-100816243D01*
X88100500Y-100606287D01*
X88100500Y-100393713D01*
X88067246Y-100183757D01*
X88001557Y-99981588D01*
X87905051Y-99792184D01*
X87905049Y-99792181D01*
X87905048Y-99792179D01*
X87780109Y-99620213D01*
X87629786Y-99469890D01*
X87457820Y-99344951D01*
X87457115Y-99344591D01*
X87449054Y-99340485D01*
X87398259Y-99292512D01*
X87381463Y-99224692D01*
X87403999Y-99158556D01*
X87449054Y-99119515D01*
X87457816Y-99115051D01*
X87479789Y-99099086D01*
X87629786Y-98990109D01*
X87629788Y-98990106D01*
X87629792Y-98990104D01*
X87780104Y-98839792D01*
X87780106Y-98839788D01*
X87780109Y-98839786D01*
X87905048Y-98667820D01*
X87905047Y-98667820D01*
X87905051Y-98667816D01*
X88001557Y-98478412D01*
X88067246Y-98276243D01*
X88100500Y-98066287D01*
X88100500Y-97853713D01*
X88067246Y-97643757D01*
X88001557Y-97441588D01*
X87905051Y-97252184D01*
X87905049Y-97252181D01*
X87905048Y-97252179D01*
X87780109Y-97080213D01*
X87629786Y-96929890D01*
X87457817Y-96804949D01*
X87448504Y-96800204D01*
X87397707Y-96752230D01*
X87380912Y-96684409D01*
X87403449Y-96618274D01*
X87448507Y-96579232D01*
X87457555Y-96574622D01*
X87511716Y-96535270D01*
X87511717Y-96535270D01*
X86879408Y-95902962D01*
X86942993Y-95885925D01*
X87057007Y-95820099D01*
X87150099Y-95727007D01*
X87215925Y-95612993D01*
X87232962Y-95549408D01*
X87865270Y-96181717D01*
X87865270Y-96181716D01*
X87904622Y-96127554D01*
X88001095Y-95938217D01*
X88066757Y-95736130D01*
X88066757Y-95736127D01*
X88100000Y-95526246D01*
X88100000Y-95313753D01*
X88066757Y-95103872D01*
X88066757Y-95103869D01*
X88001095Y-94901782D01*
X87904624Y-94712449D01*
X87865270Y-94658282D01*
X87865269Y-94658282D01*
X87232962Y-95290590D01*
X87215925Y-95227007D01*
X87150099Y-95112993D01*
X87057007Y-95019901D01*
X86942993Y-94954075D01*
X86879409Y-94937037D01*
X87511716Y-94304728D01*
X87457550Y-94265375D01*
X87268217Y-94168904D01*
X87066129Y-94103242D01*
X86856246Y-94070000D01*
X86643754Y-94070000D01*
X86433872Y-94103242D01*
X86433869Y-94103242D01*
X86231782Y-94168904D01*
X86042439Y-94265380D01*
X85988282Y-94304727D01*
X85988282Y-94304728D01*
X86620591Y-94937037D01*
X86557007Y-94954075D01*
X86442993Y-95019901D01*
X86349901Y-95112993D01*
X86284075Y-95227007D01*
X86267037Y-95290591D01*
X85634728Y-94658282D01*
X85634727Y-94658282D01*
X85595380Y-94712439D01*
X85498904Y-94901782D01*
X85433242Y-95103869D01*
X85433242Y-95103872D01*
X85400000Y-95313753D01*
X85400000Y-95526246D01*
X85433242Y-95736127D01*
X85433242Y-95736130D01*
X85498904Y-95938217D01*
X85595375Y-96127550D01*
X85634728Y-96181716D01*
X86267037Y-95549408D01*
X86284075Y-95612993D01*
X86349901Y-95727007D01*
X86442993Y-95820099D01*
X86557007Y-95885925D01*
X86620590Y-95902962D01*
X85988282Y-96535269D01*
X85988282Y-96535270D01*
X86042452Y-96574626D01*
X86042451Y-96574626D01*
X86051495Y-96579234D01*
X86102292Y-96627208D01*
X86119087Y-96695029D01*
X86096550Y-96761164D01*
X86051499Y-96800202D01*
X86042182Y-96804949D01*
X85870213Y-96929890D01*
X85719890Y-97080213D01*
X85594951Y-97252179D01*
X85498444Y-97441585D01*
X85432753Y-97643760D01*
X85399500Y-97853713D01*
X85399500Y-98066286D01*
X85432753Y-98276239D01*
X85498444Y-98478414D01*
X85594951Y-98667820D01*
X85719890Y-98839786D01*
X85870213Y-98990109D01*
X86042182Y-99115050D01*
X86050946Y-99119516D01*
X86101742Y-99167491D01*
X86118536Y-99235312D01*
X86095998Y-99301447D01*
X86050946Y-99340484D01*
X86042182Y-99344949D01*
X85870213Y-99469890D01*
X85719890Y-99620213D01*
X85594951Y-99792179D01*
X85498444Y-99981585D01*
X85432753Y-100183760D01*
X85399500Y-100393713D01*
X85399500Y-100606286D01*
X85432753Y-100816239D01*
X85432753Y-100816241D01*
X85432754Y-100816243D01*
X85487431Y-100984522D01*
X85498444Y-101018414D01*
X85594951Y-101207820D01*
X85719890Y-101379786D01*
X85870213Y-101530109D01*
X86042182Y-101655050D01*
X86050946Y-101659516D01*
X86101742Y-101707491D01*
X86118536Y-101775312D01*
X86095998Y-101841447D01*
X86050946Y-101880484D01*
X86042182Y-101884949D01*
X85870213Y-102009890D01*
X85719890Y-102160213D01*
X85594951Y-102332179D01*
X85498444Y-102521585D01*
X85432753Y-102723760D01*
X85399500Y-102933713D01*
X85399500Y-103146286D01*
X85432753Y-103356239D01*
X85432753Y-103356241D01*
X85432754Y-103356243D01*
X85487431Y-103524522D01*
X85498444Y-103558414D01*
X85594951Y-103747820D01*
X85719890Y-103919786D01*
X85833430Y-104033326D01*
X85866915Y-104094649D01*
X85861931Y-104164341D01*
X85820059Y-104220274D01*
X85789083Y-104237189D01*
X85657669Y-104286203D01*
X85657664Y-104286206D01*
X85542455Y-104372452D01*
X85542452Y-104372455D01*
X85456206Y-104487664D01*
X85456202Y-104487671D01*
X85405908Y-104622517D01*
X85399501Y-104682116D01*
X85399500Y-104682135D01*
X85399500Y-106477870D01*
X85399501Y-106477876D01*
X85405908Y-106537483D01*
X85456202Y-106672328D01*
X85456206Y-106672335D01*
X85542452Y-106787544D01*
X85542455Y-106787547D01*
X85657664Y-106873793D01*
X85657671Y-106873797D01*
X85702618Y-106890561D01*
X85792517Y-106924091D01*
X85852127Y-106930500D01*
X86025500Y-106930499D01*
X86092539Y-106950183D01*
X86138294Y-107002987D01*
X86149500Y-107054499D01*
X86149500Y-115803330D01*
X86149499Y-115803348D01*
X86149499Y-115969054D01*
X86149498Y-115969054D01*
X86165723Y-116029606D01*
X86190423Y-116121785D01*
X86190424Y-116121786D01*
X86195457Y-116130504D01*
X86269477Y-116258712D01*
X86269481Y-116258717D01*
X86388349Y-116377585D01*
X86388355Y-116377590D01*
X96666241Y-126655476D01*
X96699726Y-126716799D01*
X96696492Y-126781473D01*
X96682753Y-126823757D01*
X96652198Y-127016681D01*
X96649500Y-127033713D01*
X96649500Y-127246287D01*
X96682754Y-127456243D01*
X96747334Y-127655000D01*
X96748444Y-127658414D01*
X96844951Y-127847820D01*
X96969890Y-128019786D01*
X97120213Y-128170109D01*
X97292182Y-128295050D01*
X97300946Y-128299516D01*
X97351742Y-128347491D01*
X97368536Y-128415312D01*
X97345998Y-128481447D01*
X97300946Y-128520484D01*
X97292182Y-128524949D01*
X97120213Y-128649890D01*
X96969890Y-128800213D01*
X96844951Y-128972179D01*
X96748444Y-129161585D01*
X96682753Y-129363760D01*
X96649500Y-129573713D01*
X96649500Y-129786286D01*
X96682754Y-129996244D01*
X96682754Y-129996247D01*
X96696491Y-130038523D01*
X96698486Y-130108364D01*
X96666241Y-130164522D01*
X96481286Y-130349478D01*
X96369481Y-130461282D01*
X96369479Y-130461285D01*
X96319361Y-130548094D01*
X96319359Y-130548096D01*
X96290425Y-130598209D01*
X96290424Y-130598210D01*
X96290423Y-130598215D01*
X96249499Y-130750943D01*
X96249499Y-130750945D01*
X96249499Y-130919046D01*
X96249500Y-130919059D01*
X96249500Y-136940903D01*
X96229815Y-137007942D01*
X96177011Y-137053697D01*
X96107853Y-137063641D01*
X96044297Y-137034616D01*
X96037819Y-137028584D01*
X84636819Y-125627584D01*
X84603334Y-125566261D01*
X84600500Y-125539903D01*
X84600500Y-57734411D01*
X84620185Y-57667372D01*
X84636819Y-57646730D01*
X103187819Y-39095730D01*
X103249142Y-39062245D01*
X103318834Y-39067229D01*
G37*
G04 #@! TD.AperFunction*
G04 #@! TA.AperFunction,Conductor*
G36*
X158263113Y-107120185D02*
G01*
X158308868Y-107172989D01*
X158314003Y-107186179D01*
X158359432Y-107325992D01*
X158466657Y-107536433D01*
X158605483Y-107727510D01*
X158772490Y-107894517D01*
X158963567Y-108033343D01*
X159062991Y-108084002D01*
X159174003Y-108140566D01*
X159174005Y-108140566D01*
X159174008Y-108140568D01*
X159294412Y-108179689D01*
X159398631Y-108213553D01*
X159631903Y-108250500D01*
X159631908Y-108250500D01*
X159868097Y-108250500D01*
X160101368Y-108213553D01*
X160130984Y-108203930D01*
X160325992Y-108140568D01*
X160536433Y-108033343D01*
X160727510Y-107894517D01*
X160894517Y-107727510D01*
X161033343Y-107536433D01*
X161140568Y-107325992D01*
X161185995Y-107186181D01*
X161225433Y-107128506D01*
X161289791Y-107101308D01*
X161303926Y-107100500D01*
X164696074Y-107100500D01*
X164763113Y-107120185D01*
X164808868Y-107172989D01*
X164814003Y-107186179D01*
X164859432Y-107325992D01*
X164966657Y-107536433D01*
X165105483Y-107727510D01*
X165272490Y-107894517D01*
X165463567Y-108033343D01*
X165674008Y-108140568D01*
X165676570Y-108141400D01*
X165677419Y-108141980D01*
X165678501Y-108142429D01*
X165678406Y-108142656D01*
X165734244Y-108180836D01*
X165761444Y-108245194D01*
X165749530Y-108314041D01*
X165725933Y-108347012D01*
X151828194Y-122244750D01*
X151766871Y-122278235D01*
X151764706Y-122278686D01*
X151687586Y-122294026D01*
X151687580Y-122294028D01*
X151551005Y-122350599D01*
X151551003Y-122350600D01*
X151510822Y-122377449D01*
X151510820Y-122377450D01*
X151428085Y-122432729D01*
X151428080Y-122432733D01*
X150147633Y-123713181D01*
X150086310Y-123746666D01*
X150059952Y-123749500D01*
X148826081Y-123749500D01*
X148812413Y-123752219D01*
X148798744Y-123754938D01*
X148798743Y-123754938D01*
X148681095Y-123778339D01*
X148681087Y-123778341D01*
X148603448Y-123810501D01*
X148603447Y-123810501D01*
X148544507Y-123834914D01*
X148523283Y-123849096D01*
X148478660Y-123878912D01*
X148478659Y-123878913D01*
X148421586Y-123917046D01*
X148421581Y-123917050D01*
X145462181Y-126876451D01*
X145400858Y-126909936D01*
X145331166Y-126904952D01*
X145275233Y-126863080D01*
X145250816Y-126797616D01*
X145250500Y-126788770D01*
X145250500Y-125625416D01*
X145270185Y-125558377D01*
X145301613Y-125525099D01*
X145347219Y-125491966D01*
X145491966Y-125347219D01*
X145491968Y-125347215D01*
X145491971Y-125347213D01*
X145562236Y-125250500D01*
X145612287Y-125181610D01*
X145705220Y-124999219D01*
X145768477Y-124804534D01*
X145800500Y-124602352D01*
X145800500Y-124397648D01*
X145782461Y-124283757D01*
X145768477Y-124195465D01*
X145731475Y-124081585D01*
X145705220Y-124000781D01*
X145705218Y-124000778D01*
X145705218Y-124000776D01*
X145643125Y-123878913D01*
X145612287Y-123818390D01*
X145583190Y-123778341D01*
X145491971Y-123652786D01*
X145347217Y-123508032D01*
X145347212Y-123508028D01*
X145301615Y-123474900D01*
X145258949Y-123419571D01*
X145250500Y-123374582D01*
X145250500Y-117363732D01*
X145270185Y-117296693D01*
X145322989Y-117250938D01*
X145335495Y-117246026D01*
X145369334Y-117234814D01*
X145518656Y-117142712D01*
X145642712Y-117018656D01*
X145734814Y-116869334D01*
X145789999Y-116702797D01*
X145800500Y-116600009D01*
X145800499Y-115812228D01*
X145820183Y-115745190D01*
X145836813Y-115724553D01*
X147315297Y-114246069D01*
X147355524Y-114219191D01*
X147379179Y-114209394D01*
X147510289Y-114121789D01*
X147621789Y-114010289D01*
X147709394Y-113879179D01*
X147769737Y-113733497D01*
X147800500Y-113578842D01*
X147800500Y-113421158D01*
X147800500Y-113421155D01*
X147800499Y-113421153D01*
X147773406Y-113284948D01*
X147769737Y-113266503D01*
X147751022Y-113221320D01*
X147709397Y-113120827D01*
X147709390Y-113120814D01*
X147621789Y-112989711D01*
X147621786Y-112989707D01*
X147510292Y-112878213D01*
X147510288Y-112878210D01*
X147379185Y-112790609D01*
X147379172Y-112790602D01*
X147233501Y-112730264D01*
X147233489Y-112730261D01*
X147078845Y-112699500D01*
X147078842Y-112699500D01*
X146921158Y-112699500D01*
X146921155Y-112699500D01*
X146766510Y-112730261D01*
X146766498Y-112730264D01*
X146620827Y-112790602D01*
X146620814Y-112790609D01*
X146489711Y-112878210D01*
X146489707Y-112878213D01*
X146378213Y-112989707D01*
X146378207Y-112989715D01*
X146290607Y-113120818D01*
X146290606Y-113120819D01*
X146280805Y-113144480D01*
X146253927Y-113184703D01*
X144775449Y-114663181D01*
X144714126Y-114696666D01*
X144687768Y-114699500D01*
X143899998Y-114699500D01*
X143899980Y-114699501D01*
X143797203Y-114710000D01*
X143797200Y-114710001D01*
X143630668Y-114765185D01*
X143630663Y-114765187D01*
X143481342Y-114857289D01*
X143357289Y-114981342D01*
X143265187Y-115130663D01*
X143265185Y-115130668D01*
X143244717Y-115192438D01*
X143204944Y-115249883D01*
X143140428Y-115276706D01*
X143117283Y-115277052D01*
X143079474Y-115274076D01*
X142400000Y-115953551D01*
X142400000Y-115947339D01*
X142372741Y-115845606D01*
X142320080Y-115754394D01*
X142245606Y-115679920D01*
X142154394Y-115627259D01*
X142052661Y-115600000D01*
X142046446Y-115600000D01*
X142725922Y-114920524D01*
X142725921Y-114920523D01*
X142681359Y-114888147D01*
X142681350Y-114888141D01*
X142499031Y-114795244D01*
X142304417Y-114732009D01*
X142102317Y-114700000D01*
X141897683Y-114700000D01*
X141695582Y-114732009D01*
X141500968Y-114795244D01*
X141318644Y-114888143D01*
X141274077Y-114920523D01*
X141274077Y-114920524D01*
X141953554Y-115600000D01*
X141947339Y-115600000D01*
X141845606Y-115627259D01*
X141754394Y-115679920D01*
X141679920Y-115754394D01*
X141627259Y-115845606D01*
X141600000Y-115947339D01*
X141600000Y-115953553D01*
X140920524Y-115274077D01*
X140920523Y-115274077D01*
X140888143Y-115318644D01*
X140795244Y-115500968D01*
X140732009Y-115695582D01*
X140700000Y-115897682D01*
X140700000Y-116102317D01*
X140732009Y-116304417D01*
X140795244Y-116499031D01*
X140888141Y-116681350D01*
X140888147Y-116681359D01*
X140920523Y-116725921D01*
X140920524Y-116725922D01*
X141600000Y-116046446D01*
X141600000Y-116052661D01*
X141627259Y-116154394D01*
X141679920Y-116245606D01*
X141754394Y-116320080D01*
X141845606Y-116372741D01*
X141947339Y-116400000D01*
X141953553Y-116400000D01*
X141274076Y-117079474D01*
X141318650Y-117111859D01*
X141500968Y-117204755D01*
X141695582Y-117267990D01*
X141897683Y-117300000D01*
X142102317Y-117300000D01*
X142304417Y-117267990D01*
X142499031Y-117204755D01*
X142681349Y-117111859D01*
X142725921Y-117079474D01*
X142046447Y-116400000D01*
X142052661Y-116400000D01*
X142154394Y-116372741D01*
X142245606Y-116320080D01*
X142320080Y-116245606D01*
X142372741Y-116154394D01*
X142400000Y-116052661D01*
X142400000Y-116046448D01*
X143079473Y-116725921D01*
X143117280Y-116722946D01*
X143185658Y-116737310D01*
X143235415Y-116786361D01*
X143244714Y-116807556D01*
X143265186Y-116869334D01*
X143357288Y-117018656D01*
X143481344Y-117142712D01*
X143630666Y-117234814D01*
X143664500Y-117246025D01*
X143721947Y-117285796D01*
X143748772Y-117350311D01*
X143749500Y-117363732D01*
X143749500Y-123374582D01*
X143729815Y-123441621D01*
X143698385Y-123474900D01*
X143652787Y-123508028D01*
X143652782Y-123508032D01*
X143508028Y-123652786D01*
X143387714Y-123818386D01*
X143360203Y-123872379D01*
X143312227Y-123923174D01*
X143244406Y-123939968D01*
X143178272Y-123917429D01*
X143139234Y-123872376D01*
X143111861Y-123818652D01*
X143079474Y-123774077D01*
X143079474Y-123774076D01*
X142400000Y-124453551D01*
X142400000Y-124447339D01*
X142372741Y-124345606D01*
X142320080Y-124254394D01*
X142245606Y-124179920D01*
X142154394Y-124127259D01*
X142052661Y-124100000D01*
X142046446Y-124100000D01*
X142725922Y-123420524D01*
X142725921Y-123420523D01*
X142681359Y-123388147D01*
X142681350Y-123388141D01*
X142499031Y-123295244D01*
X142304417Y-123232009D01*
X142102317Y-123200000D01*
X141897683Y-123200000D01*
X141695582Y-123232009D01*
X141500968Y-123295244D01*
X141318644Y-123388143D01*
X141274077Y-123420523D01*
X141274077Y-123420524D01*
X141953554Y-124100000D01*
X141947339Y-124100000D01*
X141845606Y-124127259D01*
X141754394Y-124179920D01*
X141679920Y-124254394D01*
X141627259Y-124345606D01*
X141600000Y-124447339D01*
X141600000Y-124453553D01*
X140920524Y-123774077D01*
X140920523Y-123774077D01*
X140888143Y-123818644D01*
X140795244Y-124000968D01*
X140732009Y-124195582D01*
X140700000Y-124397682D01*
X140700000Y-124602317D01*
X140732009Y-124804417D01*
X140795244Y-124999031D01*
X140888141Y-125181350D01*
X140888147Y-125181359D01*
X140920523Y-125225921D01*
X140920524Y-125225922D01*
X141600000Y-124546446D01*
X141600000Y-124552661D01*
X141627259Y-124654394D01*
X141679920Y-124745606D01*
X141754394Y-124820080D01*
X141845606Y-124872741D01*
X141947339Y-124900000D01*
X141953553Y-124900000D01*
X141274076Y-125579474D01*
X141318650Y-125611859D01*
X141500968Y-125704755D01*
X141695582Y-125767990D01*
X141897683Y-125800000D01*
X142102317Y-125800000D01*
X142304417Y-125767990D01*
X142499031Y-125704755D01*
X142681349Y-125611859D01*
X142725921Y-125579474D01*
X142046447Y-124900000D01*
X142052661Y-124900000D01*
X142154394Y-124872741D01*
X142245606Y-124820080D01*
X142320080Y-124745606D01*
X142372741Y-124654394D01*
X142400000Y-124552661D01*
X142400000Y-124546448D01*
X143079474Y-125225922D01*
X143079474Y-125225921D01*
X143111859Y-125181349D01*
X143139233Y-125127624D01*
X143187207Y-125076827D01*
X143255028Y-125060031D01*
X143321163Y-125082567D01*
X143360203Y-125127621D01*
X143387713Y-125181611D01*
X143508028Y-125347213D01*
X143508034Y-125347219D01*
X143652781Y-125491966D01*
X143698384Y-125525098D01*
X143741050Y-125580425D01*
X143749500Y-125625416D01*
X143749500Y-128537770D01*
X143729815Y-128604809D01*
X143713181Y-128625451D01*
X139812181Y-132526451D01*
X139750858Y-132559936D01*
X139681166Y-132554952D01*
X139625233Y-132513080D01*
X139600816Y-132447616D01*
X139600500Y-132438770D01*
X139600500Y-115800097D01*
X139620185Y-115733058D01*
X139636819Y-115712416D01*
X144217288Y-111131947D01*
X158250000Y-111131947D01*
X158250000Y-111368052D01*
X158286934Y-111601247D01*
X158359897Y-111825802D01*
X158467087Y-112036174D01*
X158527338Y-112119104D01*
X158527340Y-112119105D01*
X159226212Y-111420233D01*
X159237482Y-111462292D01*
X159309890Y-111587708D01*
X159412292Y-111690110D01*
X159537708Y-111762518D01*
X159579765Y-111773787D01*
X158880893Y-112472658D01*
X158963828Y-112532914D01*
X159174197Y-112640102D01*
X159398752Y-112713065D01*
X159398751Y-112713065D01*
X159631948Y-112750000D01*
X159868052Y-112750000D01*
X160101247Y-112713065D01*
X160325802Y-112640102D01*
X160536163Y-112532918D01*
X160536169Y-112532914D01*
X160619104Y-112472658D01*
X160619105Y-112472658D01*
X159920233Y-111773787D01*
X159962292Y-111762518D01*
X160087708Y-111690110D01*
X160190110Y-111587708D01*
X160262518Y-111462292D01*
X160273787Y-111420234D01*
X160972658Y-112119105D01*
X160972658Y-112119104D01*
X161032914Y-112036169D01*
X161032918Y-112036163D01*
X161140102Y-111825802D01*
X161213065Y-111601247D01*
X161250000Y-111368052D01*
X161250000Y-111131947D01*
X161213065Y-110898752D01*
X161140102Y-110674197D01*
X161032914Y-110463828D01*
X160972658Y-110380894D01*
X160972658Y-110380893D01*
X160273787Y-111079765D01*
X160262518Y-111037708D01*
X160190110Y-110912292D01*
X160087708Y-110809890D01*
X159962292Y-110737482D01*
X159920234Y-110726212D01*
X160619105Y-110027340D01*
X160619104Y-110027338D01*
X160536174Y-109967087D01*
X160325802Y-109859897D01*
X160101247Y-109786934D01*
X160101248Y-109786934D01*
X159868052Y-109750000D01*
X159631948Y-109750000D01*
X159398752Y-109786934D01*
X159174197Y-109859897D01*
X158963830Y-109967084D01*
X158880894Y-110027340D01*
X159579766Y-110726212D01*
X159537708Y-110737482D01*
X159412292Y-110809890D01*
X159309890Y-110912292D01*
X159237482Y-111037708D01*
X159226212Y-111079766D01*
X158527340Y-110380894D01*
X158467084Y-110463830D01*
X158359897Y-110674197D01*
X158286934Y-110898752D01*
X158250000Y-111131947D01*
X144217288Y-111131947D01*
X148212416Y-107136819D01*
X148273739Y-107103334D01*
X148300097Y-107100500D01*
X158196074Y-107100500D01*
X158263113Y-107120185D01*
G37*
G04 #@! TD.AperFunction*
G04 #@! TA.AperFunction,Conductor*
G36*
X190862971Y-106870185D02*
G01*
X190906416Y-106918203D01*
X190966657Y-107036433D01*
X191105483Y-107227510D01*
X191105485Y-107227512D01*
X191272490Y-107394517D01*
X191312356Y-107423482D01*
X191355021Y-107478813D01*
X191360999Y-107548426D01*
X191328392Y-107610221D01*
X191327150Y-107611480D01*
X187165173Y-111773457D01*
X187103850Y-111806942D01*
X187034158Y-111801958D01*
X186978225Y-111760086D01*
X186953808Y-111694622D01*
X186968660Y-111626349D01*
X186977175Y-111612890D01*
X187032912Y-111536175D01*
X187140102Y-111325802D01*
X187213065Y-111101247D01*
X187250000Y-110868052D01*
X187250000Y-110631947D01*
X187213065Y-110398752D01*
X187140102Y-110174197D01*
X187032914Y-109963828D01*
X186972658Y-109880894D01*
X186972658Y-109880893D01*
X186273787Y-110579765D01*
X186262518Y-110537708D01*
X186190110Y-110412292D01*
X186087708Y-110309890D01*
X185962292Y-110237482D01*
X185920234Y-110226212D01*
X186619105Y-109527340D01*
X186619104Y-109527338D01*
X186536174Y-109467087D01*
X186325802Y-109359897D01*
X186101247Y-109286934D01*
X186101248Y-109286934D01*
X185868052Y-109250000D01*
X185631948Y-109250000D01*
X185398752Y-109286934D01*
X185174197Y-109359897D01*
X184963830Y-109467084D01*
X184880894Y-109527340D01*
X185579766Y-110226212D01*
X185537708Y-110237482D01*
X185412292Y-110309890D01*
X185309890Y-110412292D01*
X185237482Y-110537708D01*
X185226212Y-110579766D01*
X184527340Y-109880894D01*
X184467084Y-109963830D01*
X184359897Y-110174197D01*
X184286934Y-110398752D01*
X184250000Y-110631947D01*
X184250000Y-110868052D01*
X184286934Y-111101247D01*
X184359897Y-111325802D01*
X184467087Y-111536174D01*
X184527338Y-111619104D01*
X184527340Y-111619105D01*
X185226212Y-110920233D01*
X185237482Y-110962292D01*
X185309890Y-111087708D01*
X185412292Y-111190110D01*
X185537708Y-111262518D01*
X185579765Y-111273787D01*
X184880893Y-111972658D01*
X184963828Y-112032914D01*
X185174197Y-112140102D01*
X185398752Y-112213065D01*
X185398751Y-112213065D01*
X185631948Y-112250000D01*
X185868052Y-112250000D01*
X186101247Y-112213065D01*
X186325802Y-112140102D01*
X186536175Y-112032912D01*
X186612890Y-111977175D01*
X186678696Y-111953694D01*
X186746750Y-111969519D01*
X186795445Y-112019624D01*
X186809321Y-112088102D01*
X186783973Y-112153211D01*
X186773457Y-112165173D01*
X175759765Y-123178867D01*
X175698442Y-123212352D01*
X175672084Y-123215186D01*
X169933410Y-123215186D01*
X169866371Y-123195501D01*
X169820616Y-123142697D01*
X169810672Y-123073539D01*
X169839697Y-123009983D01*
X169845729Y-123003505D01*
X176062873Y-116786361D01*
X185146437Y-107702796D01*
X185207758Y-107669313D01*
X185272433Y-107672547D01*
X185398632Y-107713553D01*
X185486110Y-107727408D01*
X185631903Y-107750500D01*
X185631908Y-107750500D01*
X185868097Y-107750500D01*
X186101368Y-107713553D01*
X186134468Y-107702798D01*
X186325992Y-107640568D01*
X186536433Y-107533343D01*
X186727510Y-107394517D01*
X186894517Y-107227510D01*
X187033343Y-107036433D01*
X187093583Y-106918204D01*
X187141558Y-106867409D01*
X187204068Y-106850500D01*
X190795932Y-106850500D01*
X190862971Y-106870185D01*
G37*
G04 #@! TD.AperFunction*
G04 #@! TA.AperFunction,Conductor*
G36*
X184445134Y-105270185D02*
G01*
X184490889Y-105322989D01*
X184500833Y-105392147D01*
X184478414Y-105447385D01*
X184466656Y-105463567D01*
X184359433Y-105674003D01*
X184286446Y-105898631D01*
X184249500Y-106131902D01*
X184249500Y-106368097D01*
X184286447Y-106601369D01*
X184286447Y-106601372D01*
X184327450Y-106727564D01*
X184329445Y-106797405D01*
X184297200Y-106853563D01*
X168221898Y-122928867D01*
X168160575Y-122962352D01*
X168134217Y-122965186D01*
X153529858Y-122965186D01*
X153462819Y-122945501D01*
X153417064Y-122892697D01*
X153407120Y-122823539D01*
X153436145Y-122759983D01*
X153442177Y-122753505D01*
X155967866Y-120227816D01*
X164596645Y-111599035D01*
X164657966Y-111565552D01*
X164727658Y-111570536D01*
X164783591Y-111612408D01*
X164802255Y-111648400D01*
X164859897Y-111825802D01*
X164967087Y-112036174D01*
X165027338Y-112119104D01*
X165027340Y-112119105D01*
X165726212Y-111420233D01*
X165737482Y-111462292D01*
X165809890Y-111587708D01*
X165912292Y-111690110D01*
X166037708Y-111762518D01*
X166079765Y-111773787D01*
X165380893Y-112472658D01*
X165463828Y-112532914D01*
X165674197Y-112640102D01*
X165898752Y-112713065D01*
X165898751Y-112713065D01*
X166131948Y-112750000D01*
X166368052Y-112750000D01*
X166601247Y-112713065D01*
X166825802Y-112640102D01*
X167036163Y-112532918D01*
X167036169Y-112532914D01*
X167119104Y-112472658D01*
X167119105Y-112472658D01*
X166420233Y-111773787D01*
X166462292Y-111762518D01*
X166587708Y-111690110D01*
X166690110Y-111587708D01*
X166762518Y-111462292D01*
X166773787Y-111420234D01*
X167472658Y-112119105D01*
X167472658Y-112119104D01*
X167532914Y-112036169D01*
X167532918Y-112036163D01*
X167640102Y-111825802D01*
X167713065Y-111601247D01*
X167750000Y-111368052D01*
X167750000Y-111131947D01*
X167713065Y-110898752D01*
X167640102Y-110674197D01*
X167532914Y-110463828D01*
X167472658Y-110380894D01*
X167472658Y-110380893D01*
X166773787Y-111079765D01*
X166762518Y-111037708D01*
X166690110Y-110912292D01*
X166587708Y-110809890D01*
X166462292Y-110737482D01*
X166420233Y-110726212D01*
X167119105Y-110027340D01*
X167119104Y-110027338D01*
X167036174Y-109967087D01*
X166825802Y-109859897D01*
X166648400Y-109802255D01*
X166590724Y-109762817D01*
X166563526Y-109698459D01*
X166575441Y-109629612D01*
X166599033Y-109596647D01*
X170908862Y-105286818D01*
X170970185Y-105253334D01*
X170996543Y-105250500D01*
X184378095Y-105250500D01*
X184445134Y-105270185D01*
G37*
G04 #@! TD.AperFunction*
G04 #@! TA.AperFunction,Conductor*
G36*
X122568834Y-33922914D02*
G01*
X122624767Y-33964786D01*
X122649184Y-34030250D01*
X122649500Y-34039096D01*
X122649500Y-34186286D01*
X122682753Y-34396239D01*
X122748444Y-34598414D01*
X122844951Y-34787820D01*
X122969890Y-34959786D01*
X123120313Y-35110209D01*
X123153798Y-35171532D01*
X123148814Y-35241224D01*
X123106942Y-35297157D01*
X123069525Y-35316275D01*
X123043004Y-35324539D01*
X123043001Y-35324540D01*
X122903766Y-35408710D01*
X122903762Y-35408713D01*
X122788713Y-35523762D01*
X122788710Y-35523766D01*
X122704540Y-35663001D01*
X122704538Y-35663007D01*
X122656135Y-35818337D01*
X122656134Y-35818344D01*
X122650000Y-35885848D01*
X122650000Y-36370000D01*
X123566988Y-36370000D01*
X123534075Y-36427007D01*
X123500000Y-36554174D01*
X123500000Y-36685826D01*
X123534075Y-36812993D01*
X123566988Y-36870000D01*
X122650001Y-36870000D01*
X122650001Y-37354162D01*
X122656132Y-37421651D01*
X122656134Y-37421658D01*
X122704537Y-37576989D01*
X122704540Y-37576998D01*
X122788710Y-37716233D01*
X122788713Y-37716237D01*
X122903762Y-37831286D01*
X122903766Y-37831289D01*
X123043001Y-37915459D01*
X123043007Y-37915461D01*
X123198337Y-37963864D01*
X123198344Y-37963865D01*
X123265848Y-37969999D01*
X123749999Y-37969999D01*
X123750000Y-37969998D01*
X123750000Y-37053012D01*
X123807007Y-37085925D01*
X123934174Y-37120000D01*
X124065826Y-37120000D01*
X124192993Y-37085925D01*
X124250000Y-37053012D01*
X124250000Y-37969999D01*
X124425500Y-37969999D01*
X124492539Y-37989684D01*
X124538294Y-38042488D01*
X124549500Y-38093999D01*
X124549500Y-45049903D01*
X124529815Y-45116942D01*
X124513181Y-45137584D01*
X106812181Y-62838584D01*
X106750858Y-62872069D01*
X106681166Y-62867085D01*
X106625233Y-62825213D01*
X106600816Y-62759749D01*
X106600500Y-62750903D01*
X106600500Y-49840096D01*
X106620185Y-49773057D01*
X106636814Y-49752420D01*
X122437819Y-33951414D01*
X122499142Y-33917930D01*
X122568834Y-33922914D01*
G37*
G04 #@! TD.AperFunction*
G04 #@! TA.AperFunction,Conductor*
G36*
X207942539Y-20620185D02*
G01*
X207988294Y-20672989D01*
X207999500Y-20724500D01*
X207999500Y-154315500D01*
X207979815Y-154382539D01*
X207927011Y-154428294D01*
X207875500Y-154439500D01*
X173699500Y-154439500D01*
X173632461Y-154419815D01*
X173586706Y-154367011D01*
X173575500Y-154315500D01*
X173575500Y-154090062D01*
X174121750Y-154090062D01*
X182893200Y-154090062D01*
X182893200Y-151802404D01*
X174121750Y-151802404D01*
X174121750Y-154090062D01*
X173575500Y-154090062D01*
X173575499Y-151751042D01*
X173575499Y-151557129D01*
X173575498Y-151557123D01*
X173575497Y-151557116D01*
X173569091Y-151497517D01*
X173518796Y-151362669D01*
X173518795Y-151362668D01*
X173518793Y-151362664D01*
X173432547Y-151247455D01*
X173432544Y-151247452D01*
X173317335Y-151161206D01*
X173317328Y-151161202D01*
X173182482Y-151110908D01*
X173182483Y-151110908D01*
X173122883Y-151104501D01*
X173122881Y-151104500D01*
X173122873Y-151104500D01*
X173122864Y-151104500D01*
X170237129Y-151104500D01*
X170237123Y-151104501D01*
X170177516Y-151110908D01*
X170042671Y-151161202D01*
X170042664Y-151161206D01*
X169927455Y-151247452D01*
X169927452Y-151247455D01*
X169841206Y-151362664D01*
X169841202Y-151362671D01*
X169790908Y-151497517D01*
X169784501Y-151557116D01*
X169784501Y-151557123D01*
X169784500Y-151557135D01*
X169784501Y-154315500D01*
X169764816Y-154382539D01*
X169712013Y-154428294D01*
X169660501Y-154439500D01*
X159339500Y-154439500D01*
X159272461Y-154419815D01*
X159226706Y-154367011D01*
X159215500Y-154315500D01*
X159215499Y-151557129D01*
X159215498Y-151557123D01*
X159215497Y-151557116D01*
X159209091Y-151497517D01*
X159158796Y-151362669D01*
X159158795Y-151362668D01*
X159158793Y-151362664D01*
X159072547Y-151247455D01*
X159072544Y-151247452D01*
X158957335Y-151161206D01*
X158957328Y-151161202D01*
X158822482Y-151110908D01*
X158822483Y-151110908D01*
X158762883Y-151104501D01*
X158762881Y-151104500D01*
X158762873Y-151104500D01*
X158762864Y-151104500D01*
X155877129Y-151104500D01*
X155877123Y-151104501D01*
X155817516Y-151110908D01*
X155682671Y-151161202D01*
X155682664Y-151161206D01*
X155567455Y-151247452D01*
X155567452Y-151247455D01*
X155481206Y-151362664D01*
X155481202Y-151362671D01*
X155430908Y-151497517D01*
X155424501Y-151557116D01*
X155424501Y-151557123D01*
X155424500Y-151557135D01*
X155424501Y-154315500D01*
X155404816Y-154382539D01*
X155352013Y-154428294D01*
X155300501Y-154439500D01*
X68624500Y-154439500D01*
X68557461Y-154419815D01*
X68511706Y-154367011D01*
X68500500Y-154315500D01*
X68500500Y-137914689D01*
X78489498Y-137914689D01*
X78530424Y-138067422D01*
X78543170Y-138089498D01*
X78543171Y-138089500D01*
X78609477Y-138204347D01*
X78609481Y-138204352D01*
X78728349Y-138323220D01*
X78728354Y-138323224D01*
X92035649Y-151630520D01*
X92035651Y-151630521D01*
X92035655Y-151630524D01*
X92172574Y-151709573D01*
X92172581Y-151709577D01*
X92325308Y-151750501D01*
X92325310Y-151750501D01*
X92491019Y-151750501D01*
X92491035Y-151750500D01*
X124463331Y-151750500D01*
X124463347Y-151750501D01*
X124470943Y-151750501D01*
X124629054Y-151750501D01*
X124629057Y-151750501D01*
X124781785Y-151709577D01*
X124831904Y-151680639D01*
X124918716Y-151630520D01*
X125030520Y-151518716D01*
X125030520Y-151518714D01*
X125040728Y-151508507D01*
X125040730Y-151508504D01*
X138968907Y-137580326D01*
X139030228Y-137546843D01*
X139099920Y-137551827D01*
X139155853Y-137593699D01*
X139180270Y-137659163D01*
X139179059Y-137687407D01*
X139149500Y-137874038D01*
X139149500Y-138125967D01*
X139167103Y-138237108D01*
X139158148Y-138306402D01*
X139132311Y-138344187D01*
X125413319Y-152063181D01*
X125351996Y-152096666D01*
X125325638Y-152099500D01*
X88614361Y-152099500D01*
X88547322Y-152079815D01*
X88526680Y-152063181D01*
X81526819Y-145063319D01*
X81493334Y-145001996D01*
X81490500Y-144975638D01*
X81490500Y-144897648D01*
X81458477Y-144695465D01*
X81395218Y-144500776D01*
X81352310Y-144416566D01*
X81302287Y-144318390D01*
X81294556Y-144307749D01*
X81181971Y-144152786D01*
X81037213Y-144008028D01*
X80871613Y-143887715D01*
X80871612Y-143887714D01*
X80871610Y-143887713D01*
X80774897Y-143838435D01*
X80689223Y-143794781D01*
X80494534Y-143731522D01*
X80319995Y-143703878D01*
X80292352Y-143699500D01*
X80087648Y-143699500D01*
X80063329Y-143703351D01*
X79885465Y-143731522D01*
X79690776Y-143794781D01*
X79508386Y-143887715D01*
X79342786Y-144008028D01*
X79198028Y-144152786D01*
X79077715Y-144318386D01*
X78984781Y-144500776D01*
X78921522Y-144695465D01*
X78889500Y-144897648D01*
X78889500Y-145102351D01*
X78921522Y-145304534D01*
X78984781Y-145499223D01*
X79077715Y-145681613D01*
X79198028Y-145847213D01*
X79342786Y-145991971D01*
X79463665Y-146079793D01*
X79508390Y-146112287D01*
X79624607Y-146171503D01*
X79690776Y-146205218D01*
X79690778Y-146205218D01*
X79690781Y-146205220D01*
X79789347Y-146237246D01*
X79885465Y-146268477D01*
X79986557Y-146284488D01*
X80087648Y-146300500D01*
X80165638Y-146300500D01*
X80232677Y-146320185D01*
X80253319Y-146336819D01*
X87490536Y-153574035D01*
X87615962Y-153699461D01*
X87615966Y-153699465D01*
X87763446Y-153798009D01*
X87763459Y-153798016D01*
X87886363Y-153848923D01*
X87927334Y-153865894D01*
X87927336Y-153865894D01*
X87927341Y-153865896D01*
X88101304Y-153900499D01*
X88101307Y-153900500D01*
X88101309Y-153900500D01*
X125838693Y-153900500D01*
X125838694Y-153900499D01*
X126012666Y-153865895D01*
X126094606Y-153831953D01*
X126176547Y-153798013D01*
X126176549Y-153798011D01*
X126176552Y-153798010D01*
X126264955Y-153738939D01*
X126264955Y-153738938D01*
X126264959Y-153738936D01*
X126324036Y-153699464D01*
X139637819Y-140385679D01*
X139699142Y-140352195D01*
X139768834Y-140357179D01*
X139824767Y-140399051D01*
X139849184Y-140464515D01*
X139849500Y-140473361D01*
X139849500Y-145838696D01*
X139884103Y-146012658D01*
X139884105Y-146012666D01*
X139909946Y-146075051D01*
X139951987Y-146176547D01*
X139992545Y-146237246D01*
X140013413Y-146268477D01*
X140050537Y-146324038D01*
X140374731Y-146648232D01*
X140408216Y-146709555D01*
X140403232Y-146779247D01*
X140361360Y-146835180D01*
X140325370Y-146853843D01*
X140285620Y-146866758D01*
X140061151Y-146981132D01*
X139857350Y-147129201D01*
X139857345Y-147129205D01*
X139679205Y-147307345D01*
X139679201Y-147307350D01*
X139531132Y-147511151D01*
X139416760Y-147735616D01*
X139338910Y-147975214D01*
X139333767Y-148007684D01*
X139299500Y-148224038D01*
X139299500Y-149775962D01*
X139315220Y-149875213D01*
X139338910Y-150024785D01*
X139416760Y-150264383D01*
X139495413Y-150418747D01*
X139525100Y-150477011D01*
X139531132Y-150488848D01*
X139679201Y-150692649D01*
X139679205Y-150692654D01*
X139857345Y-150870794D01*
X139857350Y-150870798D01*
X140035117Y-150999952D01*
X140061155Y-151018870D01*
X140204184Y-151091747D01*
X140285616Y-151133239D01*
X140285618Y-151133239D01*
X140285621Y-151133241D01*
X140525215Y-151211090D01*
X140774038Y-151250500D01*
X140774039Y-151250500D01*
X141025961Y-151250500D01*
X141025962Y-151250500D01*
X141274785Y-151211090D01*
X141514379Y-151133241D01*
X141738845Y-151018870D01*
X141942656Y-150870793D01*
X142120793Y-150692656D01*
X142184298Y-150605247D01*
X142239628Y-150562581D01*
X142309241Y-150556602D01*
X142340912Y-150567647D01*
X142344593Y-150569522D01*
X142344595Y-150569524D01*
X142414708Y-150605248D01*
X142519970Y-150658882D01*
X142519972Y-150658882D01*
X142519975Y-150658884D01*
X142620317Y-150691487D01*
X142707173Y-150719709D01*
X142901578Y-150750500D01*
X142901583Y-150750500D01*
X143098422Y-150750500D01*
X143292826Y-150719709D01*
X143372574Y-150693797D01*
X143480025Y-150658884D01*
X143655405Y-150569524D01*
X143814646Y-150453828D01*
X143912319Y-150356155D01*
X143973642Y-150322670D01*
X144043334Y-150327654D01*
X144087681Y-150356155D01*
X144185354Y-150453828D01*
X144344595Y-150569524D01*
X144414708Y-150605248D01*
X144519970Y-150658882D01*
X144519972Y-150658882D01*
X144519975Y-150658884D01*
X144620317Y-150691487D01*
X144707173Y-150719709D01*
X144901578Y-150750500D01*
X144901583Y-150750500D01*
X145098422Y-150750500D01*
X145292826Y-150719709D01*
X145372574Y-150693797D01*
X145480025Y-150658884D01*
X145655405Y-150569524D01*
X145691614Y-150543215D01*
X145757417Y-150519736D01*
X145825471Y-150535560D01*
X145863763Y-150569220D01*
X145892454Y-150607546D01*
X145892455Y-150607546D01*
X145892456Y-150607548D01*
X146007664Y-150693793D01*
X146007671Y-150693797D01*
X146142517Y-150744091D01*
X146142516Y-150744091D01*
X146149444Y-150744835D01*
X146202127Y-150750500D01*
X147797872Y-150750499D01*
X147857483Y-150744091D01*
X147857486Y-150744089D01*
X147864554Y-150743330D01*
X147933314Y-150755736D01*
X147965490Y-150778939D01*
X148057345Y-150870794D01*
X148057350Y-150870798D01*
X148235117Y-150999952D01*
X148261155Y-151018870D01*
X148404184Y-151091747D01*
X148485616Y-151133239D01*
X148485618Y-151133239D01*
X148485621Y-151133241D01*
X148725215Y-151211090D01*
X148974038Y-151250500D01*
X148974039Y-151250500D01*
X149225961Y-151250500D01*
X149225962Y-151250500D01*
X149474785Y-151211090D01*
X149714379Y-151133241D01*
X149938845Y-151018870D01*
X150142656Y-150870793D01*
X150320793Y-150692656D01*
X150468870Y-150488845D01*
X150583241Y-150264379D01*
X150661090Y-150024785D01*
X150700500Y-149775962D01*
X150700500Y-148224038D01*
X150661090Y-147975215D01*
X150583241Y-147735621D01*
X150583239Y-147735618D01*
X150583239Y-147735616D01*
X150496961Y-147566287D01*
X150468870Y-147511155D01*
X150383879Y-147394174D01*
X150320798Y-147307350D01*
X150320794Y-147307345D01*
X150142654Y-147129205D01*
X150142649Y-147129201D01*
X149938848Y-146981132D01*
X149938847Y-146981131D01*
X149938845Y-146981130D01*
X149861239Y-146941588D01*
X149714383Y-146866760D01*
X149474785Y-146788910D01*
X149225962Y-146749500D01*
X148974038Y-146749500D01*
X148849626Y-146769205D01*
X148725214Y-146788910D01*
X148485616Y-146866760D01*
X148261151Y-146981132D01*
X148057350Y-147129200D01*
X147965487Y-147221062D01*
X147952253Y-147228287D01*
X147942088Y-147239416D01*
X147922214Y-147244689D01*
X147904163Y-147254546D01*
X147889124Y-147253470D01*
X147874555Y-147257336D01*
X147864553Y-147256669D01*
X147855522Y-147255698D01*
X147797873Y-147249500D01*
X147797865Y-147249500D01*
X146202129Y-147249500D01*
X146202123Y-147249501D01*
X146142514Y-147255909D01*
X146067832Y-147283763D01*
X145998140Y-147288747D01*
X145936817Y-147255261D01*
X145903333Y-147193937D01*
X145900500Y-147167581D01*
X145900500Y-147086811D01*
X145920185Y-147019772D01*
X145972989Y-146974017D01*
X146024500Y-146962811D01*
X147559858Y-146962811D01*
X147559859Y-146962810D01*
X147733831Y-146928206D01*
X147815771Y-146894264D01*
X147897712Y-146860324D01*
X147968964Y-146812714D01*
X148004589Y-146788911D01*
X148019052Y-146779247D01*
X148045201Y-146761775D01*
X148522100Y-146284875D01*
X148553925Y-146237246D01*
X148620650Y-146137386D01*
X148688531Y-145973505D01*
X148706348Y-145883936D01*
X148723114Y-145799645D01*
X148723137Y-145799530D01*
X148723137Y-144600154D01*
X148742822Y-144533115D01*
X148795626Y-144487360D01*
X148847137Y-144476154D01*
X153588693Y-144476154D01*
X153588694Y-144476153D01*
X153646682Y-144464618D01*
X153762658Y-144441550D01*
X153762661Y-144441548D01*
X153762666Y-144441548D01*
X153926547Y-144373667D01*
X154074035Y-144275118D01*
X154199464Y-144149689D01*
X154298013Y-144002201D01*
X154365894Y-143838320D01*
X154365920Y-143838192D01*
X154400499Y-143664349D01*
X154400500Y-143664347D01*
X154400500Y-127024500D01*
X154420185Y-126957461D01*
X154472989Y-126911706D01*
X154524500Y-126900500D01*
X170575638Y-126900500D01*
X170642677Y-126920185D01*
X170663319Y-126936819D01*
X170743181Y-127016681D01*
X170776666Y-127078004D01*
X170779500Y-127104362D01*
X170779500Y-127530500D01*
X170759815Y-127597539D01*
X170707011Y-127643294D01*
X170655500Y-127654500D01*
X170237129Y-127654500D01*
X170237123Y-127654501D01*
X170177518Y-127660908D01*
X170138331Y-127675524D01*
X170068639Y-127680507D01*
X170051668Y-127675523D01*
X170012485Y-127660909D01*
X170012483Y-127660908D01*
X169952883Y-127654501D01*
X169952881Y-127654500D01*
X169952873Y-127654500D01*
X169952864Y-127654500D01*
X167067129Y-127654500D01*
X167067123Y-127654501D01*
X167007516Y-127660908D01*
X166872671Y-127711202D01*
X166872664Y-127711206D01*
X166757455Y-127797452D01*
X166757452Y-127797455D01*
X166671206Y-127912664D01*
X166671202Y-127912671D01*
X166620908Y-128047517D01*
X166614501Y-128107116D01*
X166614501Y-128107123D01*
X166614500Y-128107135D01*
X166614500Y-130992870D01*
X166614501Y-130992876D01*
X166620908Y-131052483D01*
X166671202Y-131187328D01*
X166671206Y-131187335D01*
X166757452Y-131302544D01*
X166757455Y-131302547D01*
X166872664Y-131388793D01*
X166872671Y-131388797D01*
X166917618Y-131405561D01*
X167007517Y-131439091D01*
X167067127Y-131445500D01*
X167485500Y-131445499D01*
X167552539Y-131465183D01*
X167598294Y-131517987D01*
X167609500Y-131569499D01*
X167609500Y-133598696D01*
X167644103Y-133772659D01*
X167644106Y-133772670D01*
X167659676Y-133810256D01*
X167659677Y-133810259D01*
X167711984Y-133936542D01*
X167711985Y-133936544D01*
X167771063Y-134024960D01*
X167810537Y-134084038D01*
X167810540Y-134084041D01*
X168800536Y-135074035D01*
X168887587Y-135161086D01*
X168925966Y-135199465D01*
X169073446Y-135298009D01*
X169073459Y-135298016D01*
X169190235Y-135346385D01*
X169237334Y-135365894D01*
X169237336Y-135365894D01*
X169237341Y-135365896D01*
X169411304Y-135400499D01*
X169411307Y-135400500D01*
X169411309Y-135400500D01*
X184975500Y-135400500D01*
X185042539Y-135420185D01*
X185088294Y-135472989D01*
X185099500Y-135524500D01*
X185099500Y-140362770D01*
X185079815Y-140429809D01*
X185063181Y-140450451D01*
X185057288Y-140456343D01*
X185057287Y-140456344D01*
X185017688Y-140520544D01*
X184965739Y-140567268D01*
X184896777Y-140578489D01*
X184832695Y-140550645D01*
X184824469Y-140543127D01*
X184716930Y-140435588D01*
X184716928Y-140435586D01*
X184576788Y-140333768D01*
X184422445Y-140255127D01*
X184257701Y-140201598D01*
X184257699Y-140201597D01*
X184257698Y-140201597D01*
X184126271Y-140180781D01*
X184086611Y-140174500D01*
X183949362Y-140174500D01*
X183882323Y-140154815D01*
X183861681Y-140138181D01*
X181024035Y-137300535D01*
X181024030Y-137300531D01*
X180964961Y-137261064D01*
X180964960Y-137261063D01*
X180876544Y-137201985D01*
X180876542Y-137201984D01*
X180777970Y-137161155D01*
X180712666Y-137134105D01*
X180712658Y-137134103D01*
X180538696Y-137099500D01*
X180538692Y-137099500D01*
X180538691Y-137099500D01*
X167590361Y-137099500D01*
X167523322Y-137079815D01*
X167502680Y-137063181D01*
X162045965Y-131606466D01*
X162012480Y-131545143D01*
X162017464Y-131475451D01*
X162059336Y-131419518D01*
X162090313Y-131402603D01*
X162127328Y-131388797D01*
X162127327Y-131388797D01*
X162127331Y-131388796D01*
X162242546Y-131302546D01*
X162328796Y-131187331D01*
X162379091Y-131052483D01*
X162385500Y-130992873D01*
X162385499Y-128107128D01*
X162379091Y-128047517D01*
X162368750Y-128019792D01*
X162328797Y-127912671D01*
X162328793Y-127912664D01*
X162242547Y-127797455D01*
X162242544Y-127797452D01*
X162127335Y-127711206D01*
X162127328Y-127711202D01*
X161992482Y-127660908D01*
X161992483Y-127660908D01*
X161932883Y-127654501D01*
X161932881Y-127654500D01*
X161932873Y-127654500D01*
X161932864Y-127654500D01*
X159047129Y-127654500D01*
X159047123Y-127654501D01*
X158987516Y-127660908D01*
X158947617Y-127675790D01*
X158877925Y-127680774D01*
X158860951Y-127675790D01*
X158822376Y-127661402D01*
X158822372Y-127661401D01*
X158762844Y-127655000D01*
X157570000Y-127655000D01*
X157570000Y-129116988D01*
X157512993Y-129084075D01*
X157385826Y-129050000D01*
X157254174Y-129050000D01*
X157127007Y-129084075D01*
X157070000Y-129116988D01*
X157070000Y-127655000D01*
X155877155Y-127655000D01*
X155817627Y-127661401D01*
X155817620Y-127661403D01*
X155682913Y-127711645D01*
X155682906Y-127711649D01*
X155567812Y-127797809D01*
X155567809Y-127797812D01*
X155481649Y-127912906D01*
X155481645Y-127912913D01*
X155431403Y-128047620D01*
X155431401Y-128047627D01*
X155425000Y-128107155D01*
X155425000Y-129300000D01*
X156886988Y-129300000D01*
X156854075Y-129357007D01*
X156820000Y-129484174D01*
X156820000Y-129615826D01*
X156854075Y-129742993D01*
X156886988Y-129800000D01*
X155425000Y-129800000D01*
X155425000Y-130992844D01*
X155431401Y-131052372D01*
X155431403Y-131052379D01*
X155481645Y-131187086D01*
X155481649Y-131187093D01*
X155567809Y-131302187D01*
X155567812Y-131302190D01*
X155682906Y-131388350D01*
X155682913Y-131388354D01*
X155817620Y-131438596D01*
X155817627Y-131438598D01*
X155877155Y-131444999D01*
X155877172Y-131445000D01*
X157070000Y-131445000D01*
X157070000Y-129983012D01*
X157127007Y-130015925D01*
X157254174Y-130050000D01*
X157385826Y-130050000D01*
X157512993Y-130015925D01*
X157570000Y-129983012D01*
X157570000Y-131445000D01*
X158762828Y-131445000D01*
X158762844Y-131444999D01*
X158822372Y-131438598D01*
X158822375Y-131438597D01*
X158860950Y-131424210D01*
X158930642Y-131419225D01*
X158947606Y-131424205D01*
X158987517Y-131439091D01*
X159047127Y-131445500D01*
X159494261Y-131445499D01*
X159561300Y-131465183D01*
X159607055Y-131517987D01*
X159615878Y-131545308D01*
X159624103Y-131586659D01*
X159624104Y-131586663D01*
X159624105Y-131586666D01*
X159641880Y-131629577D01*
X159691984Y-131750542D01*
X159691985Y-131750544D01*
X159751063Y-131838960D01*
X159751064Y-131838961D01*
X159790534Y-131898034D01*
X159790535Y-131898035D01*
X159790536Y-131898036D01*
X166466536Y-138574035D01*
X166591965Y-138699464D01*
X166739453Y-138798013D01*
X166739454Y-138798013D01*
X166739455Y-138798014D01*
X166739457Y-138798015D01*
X166782821Y-138815977D01*
X166782822Y-138815977D01*
X166903334Y-138865895D01*
X167074845Y-138900010D01*
X167077303Y-138900499D01*
X167077307Y-138900500D01*
X167077308Y-138900500D01*
X167077309Y-138900500D01*
X180025638Y-138900500D01*
X180092677Y-138920185D01*
X180113319Y-138936819D01*
X182863181Y-141686681D01*
X182896666Y-141748004D01*
X182899500Y-141774362D01*
X182899500Y-141911610D01*
X182923597Y-142063757D01*
X182926598Y-142082701D01*
X182980127Y-142247445D01*
X183058768Y-142401788D01*
X183160586Y-142541928D01*
X183283072Y-142664414D01*
X183423212Y-142766232D01*
X183577555Y-142844873D01*
X183742299Y-142898402D01*
X183913389Y-142925500D01*
X183913390Y-142925500D01*
X184086610Y-142925500D01*
X184086611Y-142925500D01*
X184257701Y-142898402D01*
X184422445Y-142844873D01*
X184576788Y-142766232D01*
X184716928Y-142664414D01*
X184824472Y-142556869D01*
X184885791Y-142523387D01*
X184955483Y-142528371D01*
X185011417Y-142570242D01*
X185017688Y-142579456D01*
X185057285Y-142643652D01*
X185057288Y-142643656D01*
X185181344Y-142767712D01*
X185330666Y-142859814D01*
X185497203Y-142914999D01*
X185599991Y-142925500D01*
X186400008Y-142925499D01*
X186400016Y-142925498D01*
X186400019Y-142925498D01*
X186456302Y-142919748D01*
X186502797Y-142914999D01*
X186669334Y-142859814D01*
X186818656Y-142767712D01*
X186942712Y-142643656D01*
X187034814Y-142494334D01*
X187089999Y-142327797D01*
X187100500Y-142225009D01*
X187100499Y-140874992D01*
X187089999Y-140772203D01*
X187034814Y-140605666D01*
X186942712Y-140456344D01*
X186936819Y-140450451D01*
X186903334Y-140389128D01*
X186900500Y-140362770D01*
X186900500Y-134411306D01*
X186900499Y-134411304D01*
X186865896Y-134237341D01*
X186865893Y-134237332D01*
X186798016Y-134073459D01*
X186798009Y-134073446D01*
X186699464Y-133925965D01*
X186699461Y-133925961D01*
X186574038Y-133800538D01*
X186574034Y-133800535D01*
X186426553Y-133701990D01*
X186426540Y-133701983D01*
X186262667Y-133634106D01*
X186262658Y-133634103D01*
X186088694Y-133599500D01*
X186088691Y-133599500D01*
X169924361Y-133599500D01*
X169857322Y-133579815D01*
X169836680Y-133563181D01*
X169446819Y-133173319D01*
X169413334Y-133111996D01*
X169410500Y-133085638D01*
X169410500Y-131569499D01*
X169430185Y-131502460D01*
X169482989Y-131456705D01*
X169534500Y-131445499D01*
X169952871Y-131445499D01*
X169952872Y-131445499D01*
X170012483Y-131439091D01*
X170051665Y-131424476D01*
X170121356Y-131419491D01*
X170138329Y-131424475D01*
X170177517Y-131439091D01*
X170237127Y-131445500D01*
X173122872Y-131445499D01*
X173182483Y-131439091D01*
X173317331Y-131388796D01*
X173432546Y-131302546D01*
X173518796Y-131187331D01*
X173569091Y-131052483D01*
X173575500Y-130992873D01*
X173575499Y-128107128D01*
X173569091Y-128047517D01*
X173558750Y-128019792D01*
X173518797Y-127912671D01*
X173518793Y-127912664D01*
X173432547Y-127797455D01*
X173432544Y-127797452D01*
X173317335Y-127711206D01*
X173317328Y-127711202D01*
X173182482Y-127660908D01*
X173182483Y-127660908D01*
X173122883Y-127654501D01*
X173122881Y-127654500D01*
X173122873Y-127654500D01*
X173122865Y-127654500D01*
X172704500Y-127654500D01*
X172637461Y-127634815D01*
X172591706Y-127582011D01*
X172580500Y-127530500D01*
X172580500Y-126591308D01*
X172580499Y-126591307D01*
X172570225Y-126539652D01*
X172545895Y-126417334D01*
X172495196Y-126294938D01*
X172483287Y-126266185D01*
X172478016Y-126253459D01*
X172478014Y-126253455D01*
X172478013Y-126253453D01*
X172401872Y-126139500D01*
X172379464Y-126105964D01*
X172379462Y-126105961D01*
X171574038Y-125300537D01*
X171528612Y-125270185D01*
X171482687Y-125239499D01*
X171482685Y-125239498D01*
X171482685Y-125239497D01*
X171426544Y-125201985D01*
X171426542Y-125201984D01*
X171344607Y-125168046D01*
X171344606Y-125168046D01*
X171262666Y-125134105D01*
X171262658Y-125134103D01*
X171088696Y-125099500D01*
X171088692Y-125099500D01*
X171088691Y-125099500D01*
X169822096Y-125099500D01*
X169806817Y-125095013D01*
X169790900Y-125095512D01*
X169773979Y-125085371D01*
X169755057Y-125079815D01*
X169744630Y-125067782D01*
X169730969Y-125059595D01*
X169722216Y-125041914D01*
X169709302Y-125027011D01*
X169707035Y-125011250D01*
X169699970Y-124996978D01*
X169702165Y-124977375D01*
X169699358Y-124957853D01*
X169705972Y-124943368D01*
X169707745Y-124927542D01*
X169720189Y-124912238D01*
X169728383Y-124894297D01*
X169742309Y-124885036D01*
X169751826Y-124873333D01*
X169773954Y-124863992D01*
X169783456Y-124857674D01*
X169790566Y-124855342D01*
X169881047Y-124837344D01*
X169994195Y-124790475D01*
X170016349Y-124781298D01*
X170020817Y-124779834D01*
X170021158Y-124779823D01*
X170023463Y-124778999D01*
X170023504Y-124778986D01*
X170028912Y-124776096D01*
X170029242Y-124775959D01*
X170038130Y-124767070D01*
X170083012Y-124737081D01*
X170149689Y-124716206D01*
X170151899Y-124716186D01*
X176108234Y-124716186D01*
X176205776Y-124696782D01*
X176253227Y-124687344D01*
X176389809Y-124630770D01*
X176452785Y-124588691D01*
X176452785Y-124588690D01*
X176452787Y-124588690D01*
X176467771Y-124578677D01*
X176512730Y-124548638D01*
X190540480Y-110520887D01*
X190601799Y-110487405D01*
X190671491Y-110492389D01*
X190727424Y-110534261D01*
X190751841Y-110599725D01*
X190750631Y-110627966D01*
X190750000Y-110631950D01*
X190750000Y-110868052D01*
X190786934Y-111101247D01*
X190859897Y-111325802D01*
X190967087Y-111536174D01*
X191027338Y-111619104D01*
X191027340Y-111619105D01*
X191726212Y-110920233D01*
X191737482Y-110962292D01*
X191809890Y-111087708D01*
X191912292Y-111190110D01*
X192037708Y-111262518D01*
X192079765Y-111273787D01*
X191380893Y-111972658D01*
X191463828Y-112032914D01*
X191674197Y-112140102D01*
X191898752Y-112213065D01*
X191898751Y-112213065D01*
X192131948Y-112250000D01*
X192368052Y-112250000D01*
X192601247Y-112213065D01*
X192825802Y-112140102D01*
X193036163Y-112032918D01*
X193036169Y-112032914D01*
X193119104Y-111972658D01*
X193119105Y-111972658D01*
X192420233Y-111273787D01*
X192462292Y-111262518D01*
X192587708Y-111190110D01*
X192690110Y-111087708D01*
X192762518Y-110962292D01*
X192773787Y-110920234D01*
X193472658Y-111619105D01*
X193472658Y-111619104D01*
X193532914Y-111536169D01*
X193532918Y-111536163D01*
X193640102Y-111325802D01*
X193713065Y-111101247D01*
X193750000Y-110868052D01*
X193750000Y-110631947D01*
X193713065Y-110398752D01*
X193640102Y-110174197D01*
X193532914Y-109963828D01*
X193472658Y-109880894D01*
X193472658Y-109880893D01*
X192773787Y-110579765D01*
X192762518Y-110537708D01*
X192690110Y-110412292D01*
X192587708Y-110309890D01*
X192462292Y-110237482D01*
X192420233Y-110226212D01*
X193119105Y-109527340D01*
X193119104Y-109527338D01*
X193036174Y-109467087D01*
X192825802Y-109359897D01*
X192601247Y-109286934D01*
X192601248Y-109286934D01*
X192368052Y-109250000D01*
X192131949Y-109250000D01*
X192127956Y-109250632D01*
X192058663Y-109241669D01*
X192005217Y-109196666D01*
X191984584Y-109129912D01*
X192003317Y-109062601D01*
X192020883Y-109040484D01*
X192574549Y-108486819D01*
X192635872Y-108453334D01*
X192662230Y-108450500D01*
X192924530Y-108450500D01*
X193022072Y-108431096D01*
X193069523Y-108421658D01*
X193206105Y-108365084D01*
X193255339Y-108332186D01*
X193329026Y-108282952D01*
X194282952Y-107329026D01*
X194337359Y-107247598D01*
X194365084Y-107206105D01*
X194421658Y-107069523D01*
X194449312Y-106930500D01*
X194450500Y-106924530D01*
X194450500Y-106662229D01*
X194470185Y-106595190D01*
X194486819Y-106574548D01*
X195332339Y-105729028D01*
X195332342Y-105729025D01*
X195397650Y-105631284D01*
X195414474Y-105606105D01*
X195450355Y-105519481D01*
X195471049Y-105469522D01*
X195499890Y-105324527D01*
X195499890Y-105176692D01*
X195499890Y-104426082D01*
X195499890Y-104426079D01*
X195471049Y-104281092D01*
X195471048Y-104281091D01*
X195471048Y-104281087D01*
X195452335Y-104235909D01*
X195414477Y-104144511D01*
X195414470Y-104144498D01*
X195332341Y-104021584D01*
X195332338Y-104021580D01*
X195227809Y-103917051D01*
X195227805Y-103917048D01*
X195104891Y-103834919D01*
X195104878Y-103834912D01*
X194968307Y-103778343D01*
X194968297Y-103778340D01*
X194823310Y-103749500D01*
X194823308Y-103749500D01*
X170708231Y-103749500D01*
X170560396Y-103749500D01*
X170560394Y-103749500D01*
X170415406Y-103778340D01*
X170415396Y-103778343D01*
X170278825Y-103834912D01*
X170278812Y-103834919D01*
X170155898Y-103917048D01*
X170155894Y-103917051D01*
X167847012Y-106225933D01*
X167785689Y-106259418D01*
X167715997Y-106254434D01*
X167660064Y-106212562D01*
X167641401Y-106176572D01*
X167640568Y-106174008D01*
X167533343Y-105963567D01*
X167394517Y-105772490D01*
X167227510Y-105605483D01*
X167036433Y-105466657D01*
X166964123Y-105429813D01*
X166825996Y-105359433D01*
X166601368Y-105286446D01*
X166368097Y-105249500D01*
X166368092Y-105249500D01*
X166131908Y-105249500D01*
X166131903Y-105249500D01*
X165898631Y-105286446D01*
X165674003Y-105359433D01*
X165463566Y-105466657D01*
X165390861Y-105519481D01*
X165272490Y-105605483D01*
X165272488Y-105605485D01*
X165272487Y-105605485D01*
X165105485Y-105772487D01*
X165105480Y-105772493D01*
X165050342Y-105848385D01*
X164995012Y-105891051D01*
X164950024Y-105899500D01*
X161049976Y-105899500D01*
X160982937Y-105879815D01*
X160949658Y-105848385D01*
X160894519Y-105772493D01*
X160894514Y-105772487D01*
X160727512Y-105605485D01*
X160727510Y-105605483D01*
X160536433Y-105466657D01*
X160464123Y-105429813D01*
X160325996Y-105359433D01*
X160101368Y-105286446D01*
X159868097Y-105249500D01*
X159868092Y-105249500D01*
X159631908Y-105249500D01*
X159631903Y-105249500D01*
X159398631Y-105286446D01*
X159174003Y-105359433D01*
X158963566Y-105466657D01*
X158890861Y-105519481D01*
X158772490Y-105605483D01*
X158772488Y-105605485D01*
X158772487Y-105605485D01*
X158605485Y-105772487D01*
X158605480Y-105772493D01*
X158550342Y-105848385D01*
X158495012Y-105891051D01*
X158450024Y-105899500D01*
X147920943Y-105899500D01*
X147768213Y-105940423D01*
X147728129Y-105963567D01*
X147728128Y-105963567D01*
X147631287Y-106019477D01*
X147631282Y-106019481D01*
X138519481Y-115131282D01*
X138519480Y-115131284D01*
X138478660Y-115201987D01*
X138440423Y-115268215D01*
X138399499Y-115420943D01*
X138399499Y-115420945D01*
X138399499Y-115589046D01*
X138399500Y-115589059D01*
X138399500Y-133186248D01*
X138379815Y-133253287D01*
X138363181Y-133273929D01*
X124787079Y-146850030D01*
X124725756Y-146883515D01*
X124656064Y-146878531D01*
X124600131Y-146836659D01*
X124588913Y-146818643D01*
X124574988Y-146791314D01*
X124555051Y-146752184D01*
X124555050Y-146752182D01*
X124430109Y-146580213D01*
X124410419Y-146560523D01*
X124376934Y-146499200D01*
X124381918Y-146429508D01*
X124410419Y-146385161D01*
X126756913Y-144038667D01*
X129158506Y-141637074D01*
X129158511Y-141637070D01*
X129168714Y-141626866D01*
X129168716Y-141626866D01*
X129280520Y-141515062D01*
X129336588Y-141417949D01*
X129359577Y-141378131D01*
X129400500Y-141225404D01*
X129400500Y-141067289D01*
X129400500Y-122960096D01*
X129420185Y-122893057D01*
X129436814Y-122872420D01*
X150677287Y-101631947D01*
X171750000Y-101631947D01*
X171750000Y-101868052D01*
X171786934Y-102101247D01*
X171859897Y-102325802D01*
X171967087Y-102536174D01*
X172027338Y-102619104D01*
X172027340Y-102619105D01*
X172726212Y-101920233D01*
X172737482Y-101962292D01*
X172809890Y-102087708D01*
X172912292Y-102190110D01*
X173037708Y-102262518D01*
X173079765Y-102273787D01*
X172380893Y-102972658D01*
X172463828Y-103032914D01*
X172674197Y-103140102D01*
X172898752Y-103213065D01*
X172898751Y-103213065D01*
X173131948Y-103250000D01*
X173368052Y-103250000D01*
X173601247Y-103213065D01*
X173825802Y-103140102D01*
X174036163Y-103032918D01*
X174036169Y-103032914D01*
X174119104Y-102972658D01*
X174119105Y-102972658D01*
X173420233Y-102273787D01*
X173462292Y-102262518D01*
X173587708Y-102190110D01*
X173690110Y-102087708D01*
X173762518Y-101962292D01*
X173773787Y-101920234D01*
X174472658Y-102619105D01*
X174472658Y-102619104D01*
X174532914Y-102536169D01*
X174532918Y-102536163D01*
X174640102Y-102325802D01*
X174713065Y-102101247D01*
X174750000Y-101868052D01*
X174750000Y-101631947D01*
X178250000Y-101631947D01*
X178250000Y-101868052D01*
X178286934Y-102101247D01*
X178359897Y-102325802D01*
X178467087Y-102536174D01*
X178527338Y-102619104D01*
X178527340Y-102619105D01*
X179226212Y-101920233D01*
X179237482Y-101962292D01*
X179309890Y-102087708D01*
X179412292Y-102190110D01*
X179537708Y-102262518D01*
X179579765Y-102273787D01*
X178880893Y-102972658D01*
X178963828Y-103032914D01*
X179174197Y-103140102D01*
X179398752Y-103213065D01*
X179398751Y-103213065D01*
X179631948Y-103250000D01*
X179868052Y-103250000D01*
X180101247Y-103213065D01*
X180325802Y-103140102D01*
X180536163Y-103032918D01*
X180536169Y-103032914D01*
X180619104Y-102972658D01*
X180619105Y-102972658D01*
X179920233Y-102273787D01*
X179962292Y-102262518D01*
X180087708Y-102190110D01*
X180190110Y-102087708D01*
X180262518Y-101962292D01*
X180273787Y-101920233D01*
X180972658Y-102619105D01*
X180972658Y-102619104D01*
X181032914Y-102536169D01*
X181032918Y-102536163D01*
X181140102Y-102325802D01*
X181213065Y-102101247D01*
X181250000Y-101868052D01*
X181250000Y-101631947D01*
X181213065Y-101398752D01*
X181140102Y-101174197D01*
X181032914Y-100963828D01*
X180972658Y-100880894D01*
X180972658Y-100880893D01*
X180273787Y-101579765D01*
X180262518Y-101537708D01*
X180190110Y-101412292D01*
X180087708Y-101309890D01*
X179962292Y-101237482D01*
X179920234Y-101226212D01*
X180619105Y-100527340D01*
X180619104Y-100527338D01*
X180536174Y-100467087D01*
X180325802Y-100359897D01*
X180101247Y-100286934D01*
X180101248Y-100286934D01*
X179868052Y-100250000D01*
X179631948Y-100250000D01*
X179398752Y-100286934D01*
X179174197Y-100359897D01*
X178963830Y-100467084D01*
X178880894Y-100527340D01*
X179579766Y-101226212D01*
X179537708Y-101237482D01*
X179412292Y-101309890D01*
X179309890Y-101412292D01*
X179237482Y-101537708D01*
X179226212Y-101579765D01*
X178527340Y-100880894D01*
X178467084Y-100963830D01*
X178359897Y-101174197D01*
X178286934Y-101398752D01*
X178250000Y-101631947D01*
X174750000Y-101631947D01*
X174713065Y-101398752D01*
X174640102Y-101174197D01*
X174532914Y-100963828D01*
X174472658Y-100880894D01*
X174472658Y-100880893D01*
X173773787Y-101579765D01*
X173762518Y-101537708D01*
X173690110Y-101412292D01*
X173587708Y-101309890D01*
X173462292Y-101237482D01*
X173420234Y-101226212D01*
X174119105Y-100527340D01*
X174119104Y-100527339D01*
X174036174Y-100467087D01*
X173825802Y-100359897D01*
X173601247Y-100286934D01*
X173601248Y-100286934D01*
X173368052Y-100250000D01*
X173131948Y-100250000D01*
X172898752Y-100286934D01*
X172674197Y-100359897D01*
X172463830Y-100467084D01*
X172380894Y-100527340D01*
X173079766Y-101226212D01*
X173037708Y-101237482D01*
X172912292Y-101309890D01*
X172809890Y-101412292D01*
X172737482Y-101537708D01*
X172726212Y-101579765D01*
X172027340Y-100880894D01*
X171967084Y-100963830D01*
X171859897Y-101174197D01*
X171786934Y-101398752D01*
X171750000Y-101631947D01*
X150677287Y-101631947D01*
X171158321Y-81150913D01*
X171219642Y-81117430D01*
X171289334Y-81122414D01*
X171345267Y-81164286D01*
X171369684Y-81229750D01*
X171370000Y-81238596D01*
X171370000Y-81386246D01*
X171403242Y-81596127D01*
X171403242Y-81596130D01*
X171468904Y-81798217D01*
X171565375Y-81987550D01*
X171604728Y-82041716D01*
X172237037Y-81409408D01*
X172254075Y-81472993D01*
X172319901Y-81587007D01*
X172412993Y-81680099D01*
X172527007Y-81745925D01*
X172590590Y-81762962D01*
X171920370Y-82433181D01*
X171859047Y-82466666D01*
X171832698Y-82469500D01*
X171822134Y-82469500D01*
X171822123Y-82469501D01*
X171762516Y-82475908D01*
X171627671Y-82526202D01*
X171627664Y-82526206D01*
X171512455Y-82612452D01*
X171512452Y-82612455D01*
X171426206Y-82727664D01*
X171426202Y-82727671D01*
X171375908Y-82862517D01*
X171369501Y-82922116D01*
X171369501Y-82922123D01*
X171369500Y-82922135D01*
X171369500Y-84717870D01*
X171369501Y-84717876D01*
X171375908Y-84777483D01*
X171426202Y-84912328D01*
X171426206Y-84912335D01*
X171512452Y-85027544D01*
X171512455Y-85027547D01*
X171627664Y-85113793D01*
X171627671Y-85113797D01*
X171762517Y-85164091D01*
X171762516Y-85164091D01*
X171769444Y-85164835D01*
X171822127Y-85170500D01*
X173617872Y-85170499D01*
X173677483Y-85164091D01*
X173812331Y-85113796D01*
X173927546Y-85027546D01*
X174013796Y-84912331D01*
X174064091Y-84777483D01*
X174070500Y-84717873D01*
X174070499Y-82922128D01*
X174064091Y-82862517D01*
X174013796Y-82727669D01*
X174013795Y-82727668D01*
X174013793Y-82727664D01*
X173927547Y-82612455D01*
X173927544Y-82612452D01*
X173812335Y-82526206D01*
X173812328Y-82526202D01*
X173677482Y-82475908D01*
X173677483Y-82475908D01*
X173617883Y-82469501D01*
X173617881Y-82469500D01*
X173617873Y-82469500D01*
X173617865Y-82469500D01*
X173607309Y-82469500D01*
X173540270Y-82449815D01*
X173519628Y-82433181D01*
X172849408Y-81762962D01*
X172912993Y-81745925D01*
X173027007Y-81680099D01*
X173120099Y-81587007D01*
X173185925Y-81472993D01*
X173202962Y-81409408D01*
X173835270Y-82041717D01*
X173835270Y-82041716D01*
X173874622Y-81987554D01*
X173971095Y-81798217D01*
X174036757Y-81596130D01*
X174036757Y-81596127D01*
X174070000Y-81386246D01*
X174070000Y-81173753D01*
X174036757Y-80963872D01*
X174036757Y-80963869D01*
X173971095Y-80761782D01*
X173874624Y-80572449D01*
X173835270Y-80518282D01*
X173835269Y-80518282D01*
X173202962Y-81150590D01*
X173185925Y-81087007D01*
X173120099Y-80972993D01*
X173027007Y-80879901D01*
X172912993Y-80814075D01*
X172849408Y-80797037D01*
X173481716Y-80164728D01*
X173427547Y-80125373D01*
X173427547Y-80125372D01*
X173418500Y-80120763D01*
X173367706Y-80072788D01*
X173350912Y-80004966D01*
X173373451Y-79938832D01*
X173418508Y-79899793D01*
X173427816Y-79895051D01*
X173507007Y-79837515D01*
X173599786Y-79770109D01*
X173599788Y-79770106D01*
X173599792Y-79770104D01*
X173750104Y-79619792D01*
X173750106Y-79619788D01*
X173750109Y-79619786D01*
X173875048Y-79447820D01*
X173875047Y-79447820D01*
X173875051Y-79447816D01*
X173971557Y-79258412D01*
X174037246Y-79056243D01*
X174070500Y-78846287D01*
X174070500Y-78633713D01*
X174037246Y-78423757D01*
X173971557Y-78221588D01*
X173875051Y-78032184D01*
X173875049Y-78032181D01*
X173875048Y-78032179D01*
X173750109Y-77860213D01*
X173599786Y-77709890D01*
X173427820Y-77584951D01*
X173427115Y-77584591D01*
X173419054Y-77580485D01*
X173368259Y-77532512D01*
X173351463Y-77464692D01*
X173373999Y-77398556D01*
X173419054Y-77359515D01*
X173427816Y-77355051D01*
X173449789Y-77339086D01*
X173599786Y-77230109D01*
X173599788Y-77230106D01*
X173599792Y-77230104D01*
X173750104Y-77079792D01*
X173750106Y-77079788D01*
X173750109Y-77079786D01*
X173875048Y-76907820D01*
X173875047Y-76907820D01*
X173875051Y-76907816D01*
X173971557Y-76718412D01*
X174037246Y-76516243D01*
X174070500Y-76306287D01*
X174070500Y-76093713D01*
X174037246Y-75883757D01*
X173971557Y-75681588D01*
X173875051Y-75492184D01*
X173875049Y-75492181D01*
X173875048Y-75492179D01*
X173750109Y-75320213D01*
X173599786Y-75169890D01*
X173427820Y-75044951D01*
X173427115Y-75044591D01*
X173419054Y-75040485D01*
X173368259Y-74992512D01*
X173351463Y-74924692D01*
X173373999Y-74858556D01*
X173419054Y-74819515D01*
X173427816Y-74815051D01*
X173449789Y-74799086D01*
X173599786Y-74690109D01*
X173599788Y-74690106D01*
X173599792Y-74690104D01*
X173750104Y-74539792D01*
X173750106Y-74539788D01*
X173750109Y-74539786D01*
X173875048Y-74367820D01*
X173875047Y-74367820D01*
X173875051Y-74367816D01*
X173971557Y-74178412D01*
X174037246Y-73976243D01*
X174070500Y-73766287D01*
X174070500Y-73553713D01*
X174037246Y-73343757D01*
X173971557Y-73141588D01*
X173875051Y-72952184D01*
X173875049Y-72952181D01*
X173875048Y-72952179D01*
X173750109Y-72780213D01*
X173599786Y-72629890D01*
X173427820Y-72504951D01*
X173427115Y-72504591D01*
X173419054Y-72500485D01*
X173368259Y-72452512D01*
X173351463Y-72384692D01*
X173373999Y-72318556D01*
X173419054Y-72279515D01*
X173427816Y-72275051D01*
X173514138Y-72212335D01*
X173599786Y-72150109D01*
X173599788Y-72150106D01*
X173599792Y-72150104D01*
X173750104Y-71999792D01*
X173750106Y-71999788D01*
X173750109Y-71999786D01*
X173875048Y-71827820D01*
X173875047Y-71827820D01*
X173875051Y-71827816D01*
X173971557Y-71638412D01*
X174037246Y-71436243D01*
X174070500Y-71226287D01*
X174070500Y-71013713D01*
X174037246Y-70803757D01*
X173971557Y-70601588D01*
X173875051Y-70412184D01*
X173875049Y-70412181D01*
X173875048Y-70412179D01*
X173750109Y-70240213D01*
X173599786Y-70089890D01*
X173427820Y-69964951D01*
X173427115Y-69964591D01*
X173419054Y-69960485D01*
X173368259Y-69912512D01*
X173351463Y-69844692D01*
X173373999Y-69778556D01*
X173419054Y-69739515D01*
X173427816Y-69735051D01*
X173529167Y-69661416D01*
X173599786Y-69610109D01*
X173599788Y-69610106D01*
X173599792Y-69610104D01*
X173750104Y-69459792D01*
X173750106Y-69459788D01*
X173750109Y-69459786D01*
X173875048Y-69287820D01*
X173875047Y-69287820D01*
X173875051Y-69287816D01*
X173971557Y-69098412D01*
X174037246Y-68896243D01*
X174070500Y-68686287D01*
X174070500Y-68473713D01*
X174037246Y-68263757D01*
X174023506Y-68221473D01*
X174021512Y-68151635D01*
X174053755Y-68095478D01*
X176948506Y-65200728D01*
X176948511Y-65200724D01*
X176958714Y-65190520D01*
X176958716Y-65190520D01*
X177070520Y-65078716D01*
X177149577Y-64941784D01*
X177190500Y-64789057D01*
X177190500Y-57390097D01*
X177210185Y-57323058D01*
X177226819Y-57302416D01*
X178487819Y-56041416D01*
X178549142Y-56007931D01*
X178618834Y-56012915D01*
X178674767Y-56054787D01*
X178699184Y-56120251D01*
X178699500Y-56129097D01*
X178699500Y-85399902D01*
X178679815Y-85466941D01*
X178663181Y-85487583D01*
X172519481Y-91631282D01*
X172519479Y-91631285D01*
X172469361Y-91718094D01*
X172469359Y-91718096D01*
X172440425Y-91768209D01*
X172440424Y-91768210D01*
X172440423Y-91768215D01*
X172399499Y-91920943D01*
X172399499Y-91920945D01*
X172399499Y-92089046D01*
X172399500Y-92089059D01*
X172399500Y-95950023D01*
X172379815Y-96017062D01*
X172348386Y-96050340D01*
X172272496Y-96105478D01*
X172272487Y-96105485D01*
X172105485Y-96272487D01*
X172105485Y-96272488D01*
X172105483Y-96272490D01*
X172100210Y-96279748D01*
X171966657Y-96463566D01*
X171859433Y-96674003D01*
X171786446Y-96898631D01*
X171749500Y-97131902D01*
X171749500Y-97368097D01*
X171786446Y-97601368D01*
X171859433Y-97825996D01*
X171966657Y-98036433D01*
X172105483Y-98227510D01*
X172272490Y-98394517D01*
X172463567Y-98533343D01*
X172562991Y-98584002D01*
X172674003Y-98640566D01*
X172674005Y-98640566D01*
X172674008Y-98640568D01*
X172757881Y-98667820D01*
X172898631Y-98713553D01*
X173131903Y-98750500D01*
X173131908Y-98750500D01*
X173368097Y-98750500D01*
X173601368Y-98713553D01*
X173825992Y-98640568D01*
X174036433Y-98533343D01*
X174227510Y-98394517D01*
X174394517Y-98227510D01*
X174533343Y-98036433D01*
X174593583Y-97918204D01*
X174641558Y-97867409D01*
X174704068Y-97850500D01*
X178295932Y-97850500D01*
X178362971Y-97870185D01*
X178406416Y-97918203D01*
X178466657Y-98036433D01*
X178605483Y-98227510D01*
X178772490Y-98394517D01*
X178963567Y-98533343D01*
X179062991Y-98584002D01*
X179174003Y-98640566D01*
X179174005Y-98640566D01*
X179174008Y-98640568D01*
X179257881Y-98667820D01*
X179398631Y-98713553D01*
X179631903Y-98750500D01*
X179631908Y-98750500D01*
X179868097Y-98750500D01*
X180101368Y-98713553D01*
X180325992Y-98640568D01*
X180536433Y-98533343D01*
X180727510Y-98394517D01*
X180894517Y-98227510D01*
X181033343Y-98036433D01*
X181140568Y-97825992D01*
X181213553Y-97601368D01*
X181250500Y-97368097D01*
X181250500Y-97131902D01*
X181213553Y-96898631D01*
X181165984Y-96752230D01*
X181140568Y-96674008D01*
X181140566Y-96674005D01*
X181140566Y-96674003D01*
X181033342Y-96463566D01*
X180894517Y-96272490D01*
X180727510Y-96105483D01*
X180536433Y-95966657D01*
X180503787Y-95950023D01*
X180325996Y-95859433D01*
X180101368Y-95786446D01*
X179868097Y-95749500D01*
X179868092Y-95749500D01*
X179631908Y-95749500D01*
X179631903Y-95749500D01*
X179398631Y-95786446D01*
X179174003Y-95859433D01*
X178963566Y-95966657D01*
X178854550Y-96045862D01*
X178772490Y-96105483D01*
X178772488Y-96105485D01*
X178772487Y-96105485D01*
X178605485Y-96272487D01*
X178605485Y-96272488D01*
X178605483Y-96272490D01*
X178600210Y-96279748D01*
X178466657Y-96463566D01*
X178434060Y-96527540D01*
X178407722Y-96579234D01*
X178406417Y-96581795D01*
X178358442Y-96632591D01*
X178295932Y-96649500D01*
X174704068Y-96649500D01*
X174637029Y-96629815D01*
X174593583Y-96581795D01*
X174533343Y-96463567D01*
X174394517Y-96272490D01*
X174227510Y-96105483D01*
X174036433Y-95966657D01*
X174003787Y-95950023D01*
X173825996Y-95859433D01*
X173686181Y-95814004D01*
X173628506Y-95774566D01*
X173601308Y-95710207D01*
X173600500Y-95696073D01*
X173600500Y-92300096D01*
X173620185Y-92233057D01*
X173636814Y-92212420D01*
X179658506Y-86190727D01*
X179658511Y-86190724D01*
X179668714Y-86180520D01*
X179668716Y-86180520D01*
X179780520Y-86068716D01*
X179859577Y-85931784D01*
X179900500Y-85779057D01*
X179900500Y-40323373D01*
X179900501Y-40323360D01*
X179900501Y-40155259D01*
X179900501Y-40155257D01*
X179859577Y-40002529D01*
X179830639Y-39952409D01*
X179780520Y-39865598D01*
X179668716Y-39753794D01*
X179668715Y-39753793D01*
X179664385Y-39749463D01*
X179664374Y-39749453D01*
X163253275Y-23338355D01*
X163253273Y-23338352D01*
X163134402Y-23219481D01*
X163134401Y-23219480D01*
X163047589Y-23169360D01*
X163047589Y-23169359D01*
X163047585Y-23169358D01*
X162997470Y-23140423D01*
X162844742Y-23099499D01*
X162686628Y-23099499D01*
X162679032Y-23099499D01*
X162679016Y-23099500D01*
X117655254Y-23099500D01*
X117614333Y-23110464D01*
X117614333Y-23110465D01*
X117577065Y-23120451D01*
X117502528Y-23140423D01*
X117502523Y-23140426D01*
X117365604Y-23219475D01*
X117365596Y-23219481D01*
X83519479Y-57065598D01*
X83506840Y-57087491D01*
X83481399Y-57131557D01*
X83440423Y-57202529D01*
X83399499Y-57355257D01*
X83399499Y-57355259D01*
X83399499Y-57523360D01*
X83399500Y-57523373D01*
X83399500Y-125753330D01*
X83399499Y-125753348D01*
X83399499Y-125765010D01*
X83379814Y-125832049D01*
X83327010Y-125877804D01*
X83257852Y-125887748D01*
X83213499Y-125872397D01*
X83175440Y-125850423D01*
X83106867Y-125832049D01*
X83022711Y-125809499D01*
X82864597Y-125809499D01*
X82857001Y-125809499D01*
X82856985Y-125809500D01*
X79010943Y-125809500D01*
X78858216Y-125850423D01*
X78858209Y-125850426D01*
X78721290Y-125929475D01*
X78721282Y-125929481D01*
X78609481Y-126041282D01*
X78609475Y-126041290D01*
X78530426Y-126178209D01*
X78530423Y-126178216D01*
X78489500Y-126330943D01*
X78489500Y-137748965D01*
X78489499Y-137748983D01*
X78489499Y-137914689D01*
X78489498Y-137914689D01*
X68500500Y-137914689D01*
X68500500Y-20724500D01*
X68520185Y-20657461D01*
X68572989Y-20611706D01*
X68624500Y-20600500D01*
X207875500Y-20600500D01*
X207942539Y-20620185D01*
G37*
G04 #@! TD.AperFunction*
G04 #@! TD*
M02*
