M48
; DRILL file KiCad 10.0.5 date 2026-09-21T01:47:46
; FORMAT={-:-/ absolute / metric / decimal}
; #@! TF.CreationDate,2026-09-21T01:47:46-04:00
; #@! TF.GenerationSoftware,Kicad,Pcbnew,10.0.5
; #@! TF.FileFunction,MixedPlating,1,2
FMAT,2
METRIC
; #@! TA.AperFunction,Plated,PTH,ViaDrill
T1C0.300
; #@! TA.AperFunction,Plated,PTH,ComponentDrill
T2C0.750
; #@! TA.AperFunction,Plated,PTH,ComponentDrill
T3C0.800
; #@! TA.AperFunction,Plated,PTH,ComponentDrill
T4C1.000
; #@! TA.AperFunction,Plated,PTH,ComponentDrill
T5C1.100
; #@! TA.AperFunction,Plated,PTH,ComponentDrill
T6C1.500
%
G90
G05
T1
X81.0Y-134.0
X147.0Y-113.5
T2
X184.0Y-141.55
X186.0Y-141.55
T3
X80.19Y-136.5
X80.19Y-145.0
X87.81Y-136.5
X87.81Y-145.0
X142.0Y-116.0
X142.0Y-124.5
X143.0Y-149.0
X144.5Y-116.0
X144.5Y-124.5
X145.0Y-149.0
X147.0Y-149.0
T4
X86.75Y-95.42
X86.75Y-97.96
X86.75Y-100.5
X86.75Y-103.04
X86.75Y-105.58
X98.0Y-114.44
X98.0Y-116.98
X98.0Y-119.52
X98.0Y-122.06
X98.0Y-124.6
X98.0Y-127.14
X98.0Y-129.68
X98.0Y-132.22
X98.0Y-134.76
X98.0Y-137.3
X98.0Y-139.84
X98.0Y-142.38
X98.0Y-144.92
X98.0Y-147.46
X98.0Y-150.0
X100.33Y-63.5
X100.33Y-66.04
X100.33Y-68.58
X100.33Y-71.12
X123.4Y-114.44
X123.4Y-116.98
X123.4Y-119.52
X123.4Y-122.06
X123.4Y-124.6
X123.4Y-127.14
X123.4Y-129.68
X123.4Y-132.22
X123.4Y-134.76
X123.4Y-137.3
X123.4Y-139.84
X123.4Y-142.38
X123.4Y-144.92
X123.4Y-147.46
X123.4Y-150.0
X124.0Y-29.0
X124.0Y-31.54
X124.0Y-34.08
X124.0Y-36.62
X157.32Y-129.55
X157.32Y-153.0
X160.49Y-129.55
X168.51Y-129.55
X171.68Y-129.55
X171.68Y-153.0
X172.72Y-50.8
X172.72Y-53.34
X172.72Y-55.88
X172.72Y-58.42
X172.72Y-60.96
X172.72Y-63.5
X172.72Y-66.04
X172.72Y-68.58
X172.72Y-71.12
X172.72Y-73.66
X172.72Y-76.2
X172.72Y-78.74
X172.72Y-81.28
X172.72Y-83.82
T5
X140.75Y-138.0
X150.91Y-138.0
X159.75Y-106.75
X159.75Y-111.25
X166.25Y-106.75
X166.25Y-111.25
X173.25Y-97.25
X173.25Y-101.75
X179.75Y-97.25
X179.75Y-101.75
X185.75Y-106.25
X185.75Y-110.75
X192.25Y-106.25
X192.25Y-110.75
T6
X140.9Y-149.0
X149.1Y-149.0
M30
