G04 #@! TF.GenerationSoftware,KiCad,Pcbnew,10.0.5*
G04 #@! TF.CreationDate,2026-09-21T01:48:34-04:00*
G04 #@! TF.ProjectId,Handheld_Chess,48616e64-6865-46c6-945f-43686573732e,rev?*
G04 #@! TF.SameCoordinates,Original*
G04 #@! TF.FileFunction,Legend,Top*
G04 #@! TF.FilePolarity,Positive*
%FSLAX46Y46*%
G04 Gerber Fmt 4.6, Leading zero omitted, Abs format (unit mm)*
G04 Created by KiCad (PCBNEW 10.0.5) date 2026-09-21 01:48:34*
%MOMM*%
%LPD*%
G01*
G04 APERTURE LIST*
G04 Aperture macros list*
%AMRoundRect*
0 Rectangle with rounded corners*
0 $1 Rounding radius*
0 $2 $3 $4 $5 $6 $7 $8 $9 X,Y pos of 4 corners*
0 Add a 4 corners polygon primitive as box body*
4,1,4,$2,$3,$4,$5,$6,$7,$8,$9,$2,$3,0*
0 Add four circle primitives for the rounded corners*
1,1,$1+$1,$2,$3*
1,1,$1+$1,$4,$5*
1,1,$1+$1,$6,$7*
1,1,$1+$1,$8,$9*
0 Add four rect primitives between the rounded corners*
20,1,$1+$1,$2,$3,$4,$5,0*
20,1,$1+$1,$4,$5,$6,$7,0*
20,1,$1+$1,$6,$7,$8,$9,0*
20,1,$1+$1,$8,$9,$2,$3,0*%
G04 Aperture macros list end*
%ADD10C,0.150000*%
%ADD11C,0.120000*%
%ADD12RoundRect,0.170000X0.680000X-0.680000X0.680000X0.680000X-0.680000X0.680000X-0.680000X-0.680000X0*%
%ADD13C,1.700000*%
%ADD14R,1.700000X1.700000*%
%ADD15C,2.000000*%
%ADD16O,2.200000X3.500000*%
%ADD17R,1.500000X2.500000*%
%ADD18O,1.500000X2.500000*%
%ADD19RoundRect,0.102000X1.395000X-1.395000X1.395000X1.395000X-1.395000X1.395000X-1.395000X-1.395000X0*%
%ADD20C,1.600000*%
%ADD21RoundRect,0.250000X0.550000X0.550000X-0.550000X0.550000X-0.550000X-0.550000X0.550000X-0.550000X0*%
%ADD22RoundRect,0.249999X0.850001X0.850001X-0.850001X0.850001X-0.850001X-0.850001X0.850001X-0.850001X0*%
%ADD23C,2.200000*%
%ADD24RoundRect,0.250000X0.350000X0.625000X-0.350000X0.625000X-0.350000X-0.625000X0.350000X-0.625000X0*%
%ADD25O,1.200000X1.750000*%
G04 APERTURE END LIST*
D10*
G36*
X120896812Y-35098759D02*
G01*
X121278686Y-35098759D01*
X121278686Y-35226009D01*
X121405936Y-35226009D01*
X121405936Y-35098759D01*
X121660498Y-35098759D01*
X121660498Y-35226009D01*
X121787749Y-35226009D01*
X121787749Y-35098759D01*
X121915000Y-35098759D01*
X121915000Y-34971447D01*
X120896812Y-34971447D01*
X120896812Y-35098759D01*
G37*
G36*
X121787749Y-35226009D02*
G01*
X121787749Y-35480571D01*
X121915000Y-35480571D01*
X121915000Y-35226009D01*
X121787749Y-35226009D01*
G37*
G36*
X121787749Y-35480571D02*
G01*
X121278686Y-35480571D01*
X121278686Y-35607822D01*
X121787749Y-35607822D01*
X121787749Y-35480571D01*
G37*
G36*
X121278686Y-35226009D02*
G01*
X121151374Y-35226009D01*
X121151374Y-35480571D01*
X121278686Y-35480571D01*
X121278686Y-35226009D01*
G37*
G36*
X121278686Y-34463239D02*
G01*
X121787749Y-34463239D01*
X121787749Y-34717801D01*
X121915000Y-34717801D01*
X121915000Y-34081426D01*
X121787749Y-34081426D01*
X121787749Y-34335988D01*
X121151374Y-34335988D01*
X121151374Y-34717801D01*
X121278686Y-34717801D01*
X121278686Y-34463239D01*
G37*
G36*
X120896812Y-34463239D02*
G01*
X121024124Y-34463239D01*
X121024124Y-34335988D01*
X120896812Y-34335988D01*
X120896812Y-34463239D01*
G37*
G36*
X121787749Y-33318717D02*
G01*
X121787749Y-33700530D01*
X121915000Y-33700530D01*
X121915000Y-33318717D01*
X121787749Y-33318717D01*
G37*
G36*
X121787749Y-33700530D02*
G01*
X121660498Y-33700530D01*
X121660498Y-33827780D01*
X121787749Y-33827780D01*
X121787749Y-33700530D01*
G37*
G36*
X121151374Y-33318717D02*
G01*
X121151374Y-33700530D01*
X121278686Y-33700530D01*
X121278686Y-33318717D01*
X121151374Y-33318717D01*
G37*
G36*
X121278686Y-33827780D02*
G01*
X121405936Y-33827780D01*
X121405936Y-33700530D01*
X121278686Y-33700530D01*
X121278686Y-33827780D01*
G37*
G36*
X121405936Y-33700530D02*
G01*
X121533187Y-33700530D01*
X121533187Y-33318717D01*
X121405936Y-33318717D01*
X121405936Y-33700530D01*
G37*
G36*
X121533187Y-33318717D02*
G01*
X121787749Y-33318717D01*
X121787749Y-33191405D01*
X121533187Y-33191405D01*
X121533187Y-33318717D01*
G37*
G36*
X121278686Y-33318717D02*
G01*
X121405936Y-33318717D01*
X121405936Y-33191405D01*
X121278686Y-33191405D01*
X121278686Y-33318717D01*
G37*
G36*
X121151374Y-32937759D02*
G01*
X122169562Y-32937759D01*
X122169562Y-32810509D01*
X121787749Y-32810509D01*
X121787749Y-32683197D01*
X121660498Y-32683197D01*
X121660498Y-32810509D01*
X121405936Y-32810509D01*
X121405936Y-32683197D01*
X121278686Y-32683197D01*
X121278686Y-32810509D01*
X121151374Y-32810509D01*
X121151374Y-32937759D01*
G37*
G36*
X121151374Y-32683197D02*
G01*
X121278686Y-32683197D01*
X121278686Y-32428696D01*
X121151374Y-32428696D01*
X121151374Y-32683197D01*
G37*
G36*
X121278686Y-32428696D02*
G01*
X121787749Y-32428696D01*
X121787749Y-32301384D01*
X121278686Y-32301384D01*
X121278686Y-32428696D01*
G37*
G36*
X121787749Y-32683197D02*
G01*
X121915000Y-32683197D01*
X121915000Y-32428696D01*
X121787749Y-32428696D01*
X121787749Y-32683197D01*
G37*
G36*
X121024124Y-31793176D02*
G01*
X121787749Y-31793176D01*
X121787749Y-32047738D01*
X121915000Y-32047738D01*
X121915000Y-31411363D01*
X121787749Y-31411363D01*
X121787749Y-31665926D01*
X120896812Y-31665926D01*
X120896812Y-32047738D01*
X121024124Y-32047738D01*
X121024124Y-31793176D01*
G37*
G36*
X121533187Y-31157717D02*
G01*
X121787749Y-31157717D01*
X121787749Y-31030467D01*
X121533187Y-31030467D01*
X121533187Y-31157717D01*
G37*
G36*
X121787749Y-31030467D02*
G01*
X121915000Y-31030467D01*
X121915000Y-30775905D01*
X121787749Y-30775905D01*
X121787749Y-31030467D01*
G37*
G36*
X121660498Y-30775905D02*
G01*
X121787749Y-30775905D01*
X121787749Y-30648654D01*
X121915000Y-30648654D01*
X121915000Y-30521343D01*
X121278686Y-30521343D01*
X121278686Y-30648654D01*
X121405936Y-30648654D01*
X121405936Y-31030467D01*
X121533187Y-31030467D01*
X121533187Y-30648654D01*
X121660498Y-30648654D01*
X121660498Y-30775905D01*
G37*
G36*
X121151374Y-31030467D02*
G01*
X121278686Y-31030467D01*
X121278686Y-30648654D01*
X121151374Y-30648654D01*
X121151374Y-31030467D01*
G37*
G36*
X121151374Y-30267696D02*
G01*
X121533187Y-30267696D01*
X121533187Y-30140446D01*
X121151374Y-30140446D01*
X121151374Y-30267696D01*
G37*
G36*
X121151374Y-29758633D02*
G01*
X121533187Y-29758633D01*
X121533187Y-29631322D01*
X121151374Y-29631322D01*
X121151374Y-29758633D01*
G37*
G36*
X121787749Y-30013134D02*
G01*
X122042311Y-30013134D01*
X122042311Y-29885884D01*
X121787749Y-29885884D01*
X121787749Y-30013134D01*
G37*
G36*
X122042311Y-30013134D02*
G01*
X122042311Y-30267696D01*
X122169562Y-30267696D01*
X122169562Y-30013134D01*
X122042311Y-30013134D01*
G37*
G36*
X121533187Y-29885884D02*
G01*
X121787749Y-29885884D01*
X121787749Y-29758633D01*
X121533187Y-29758633D01*
X121533187Y-29885884D01*
G37*
G36*
X121533187Y-30140446D02*
G01*
X121787749Y-30140446D01*
X121787749Y-30013134D01*
X121533187Y-30013134D01*
X121533187Y-30140446D01*
G37*
G36*
X170241240Y-85986812D02*
G01*
X170241240Y-86368686D01*
X170113990Y-86368686D01*
X170113990Y-86495936D01*
X170241240Y-86495936D01*
X170241240Y-86750498D01*
X170113990Y-86750498D01*
X170113990Y-86877749D01*
X170241240Y-86877749D01*
X170241240Y-87005000D01*
X170368552Y-87005000D01*
X170368552Y-85986812D01*
X170241240Y-85986812D01*
G37*
G36*
X170113990Y-86877749D02*
G01*
X169859428Y-86877749D01*
X169859428Y-87005000D01*
X170113990Y-87005000D01*
X170113990Y-86877749D01*
G37*
G36*
X169859428Y-86877749D02*
G01*
X169859428Y-86368686D01*
X169732177Y-86368686D01*
X169732177Y-86877749D01*
X169859428Y-86877749D01*
G37*
G36*
X170113990Y-86368686D02*
G01*
X170113990Y-86241374D01*
X169859428Y-86241374D01*
X169859428Y-86368686D01*
X170113990Y-86368686D01*
G37*
G36*
X170876760Y-86368686D02*
G01*
X170876760Y-86877749D01*
X170622198Y-86877749D01*
X170622198Y-87005000D01*
X171258573Y-87005000D01*
X171258573Y-86877749D01*
X171004011Y-86877749D01*
X171004011Y-86241374D01*
X170622198Y-86241374D01*
X170622198Y-86368686D01*
X170876760Y-86368686D01*
G37*
G36*
X170876760Y-85986812D02*
G01*
X170876760Y-86114124D01*
X171004011Y-86114124D01*
X171004011Y-85986812D01*
X170876760Y-85986812D01*
G37*
G36*
X172021282Y-86877749D02*
G01*
X171639469Y-86877749D01*
X171639469Y-87005000D01*
X172021282Y-87005000D01*
X172021282Y-86877749D01*
G37*
G36*
X171639469Y-86877749D02*
G01*
X171639469Y-86750498D01*
X171512219Y-86750498D01*
X171512219Y-86877749D01*
X171639469Y-86877749D01*
G37*
G36*
X172021282Y-86241374D02*
G01*
X171639469Y-86241374D01*
X171639469Y-86368686D01*
X172021282Y-86368686D01*
X172021282Y-86241374D01*
G37*
G36*
X171512219Y-86368686D02*
G01*
X171512219Y-86495936D01*
X171639469Y-86495936D01*
X171639469Y-86368686D01*
X171512219Y-86368686D01*
G37*
G36*
X171639469Y-86495936D02*
G01*
X171639469Y-86623187D01*
X172021282Y-86623187D01*
X172021282Y-86495936D01*
X171639469Y-86495936D01*
G37*
G36*
X172021282Y-86623187D02*
G01*
X172021282Y-86877749D01*
X172148594Y-86877749D01*
X172148594Y-86623187D01*
X172021282Y-86623187D01*
G37*
G36*
X172021282Y-86368686D02*
G01*
X172021282Y-86495936D01*
X172148594Y-86495936D01*
X172148594Y-86368686D01*
X172021282Y-86368686D01*
G37*
G36*
X172402240Y-86241374D02*
G01*
X172402240Y-87259562D01*
X172529490Y-87259562D01*
X172529490Y-86877749D01*
X172656802Y-86877749D01*
X172656802Y-86750498D01*
X172529490Y-86750498D01*
X172529490Y-86495936D01*
X172656802Y-86495936D01*
X172656802Y-86368686D01*
X172529490Y-86368686D01*
X172529490Y-86241374D01*
X172402240Y-86241374D01*
G37*
G36*
X172656802Y-86241374D02*
G01*
X172656802Y-86368686D01*
X172911303Y-86368686D01*
X172911303Y-86241374D01*
X172656802Y-86241374D01*
G37*
G36*
X172911303Y-86368686D02*
G01*
X172911303Y-86877749D01*
X173038615Y-86877749D01*
X173038615Y-86368686D01*
X172911303Y-86368686D01*
G37*
G36*
X172656802Y-86877749D02*
G01*
X172656802Y-87005000D01*
X172911303Y-87005000D01*
X172911303Y-86877749D01*
X172656802Y-86877749D01*
G37*
G36*
X173546823Y-86114124D02*
G01*
X173546823Y-86877749D01*
X173292261Y-86877749D01*
X173292261Y-87005000D01*
X173928636Y-87005000D01*
X173928636Y-86877749D01*
X173674073Y-86877749D01*
X173674073Y-85986812D01*
X173292261Y-85986812D01*
X173292261Y-86114124D01*
X173546823Y-86114124D01*
G37*
G36*
X174182282Y-86623187D02*
G01*
X174182282Y-86877749D01*
X174309532Y-86877749D01*
X174309532Y-86623187D01*
X174182282Y-86623187D01*
G37*
G36*
X174309532Y-86877749D02*
G01*
X174309532Y-87005000D01*
X174564094Y-87005000D01*
X174564094Y-86877749D01*
X174309532Y-86877749D01*
G37*
G36*
X174564094Y-86750498D02*
G01*
X174564094Y-86877749D01*
X174691345Y-86877749D01*
X174691345Y-87005000D01*
X174818656Y-87005000D01*
X174818656Y-86368686D01*
X174691345Y-86368686D01*
X174691345Y-86495936D01*
X174309532Y-86495936D01*
X174309532Y-86623187D01*
X174691345Y-86623187D01*
X174691345Y-86750498D01*
X174564094Y-86750498D01*
G37*
G36*
X174309532Y-86241374D02*
G01*
X174309532Y-86368686D01*
X174691345Y-86368686D01*
X174691345Y-86241374D01*
X174309532Y-86241374D01*
G37*
G36*
X175072303Y-86241374D02*
G01*
X175072303Y-86623187D01*
X175199553Y-86623187D01*
X175199553Y-86241374D01*
X175072303Y-86241374D01*
G37*
G36*
X175581366Y-86241374D02*
G01*
X175581366Y-86623187D01*
X175708677Y-86623187D01*
X175708677Y-86241374D01*
X175581366Y-86241374D01*
G37*
G36*
X175326865Y-86877749D02*
G01*
X175326865Y-87132311D01*
X175454115Y-87132311D01*
X175454115Y-86877749D01*
X175326865Y-86877749D01*
G37*
G36*
X175326865Y-87132311D02*
G01*
X175072303Y-87132311D01*
X175072303Y-87259562D01*
X175326865Y-87259562D01*
X175326865Y-87132311D01*
G37*
G36*
X175454115Y-86623187D02*
G01*
X175454115Y-86877749D01*
X175581366Y-86877749D01*
X175581366Y-86623187D01*
X175454115Y-86623187D01*
G37*
G36*
X175199553Y-86623187D02*
G01*
X175199553Y-86877749D01*
X175326865Y-86877749D01*
X175326865Y-86623187D01*
X175199553Y-86623187D01*
G37*
G36*
X174847209Y-94646812D02*
G01*
X174847209Y-95665000D01*
X174974460Y-95665000D01*
X174974460Y-95155936D01*
X175101771Y-95155936D01*
X175101771Y-95028686D01*
X174974460Y-95028686D01*
X174974460Y-94646812D01*
X174847209Y-94646812D01*
G37*
G36*
X175356272Y-95028686D02*
G01*
X175356272Y-95665000D01*
X175483584Y-95665000D01*
X175483584Y-95028686D01*
X175356272Y-95028686D01*
G37*
G36*
X175101771Y-94901374D02*
G01*
X175101771Y-95028686D01*
X175356272Y-95028686D01*
X175356272Y-94901374D01*
X175101771Y-94901374D01*
G37*
G36*
X175864480Y-94901374D02*
G01*
X175864480Y-95028686D01*
X176246293Y-95028686D01*
X176246293Y-94901374D01*
X175864480Y-94901374D01*
G37*
G36*
X176246293Y-95028686D02*
G01*
X176246293Y-95537749D01*
X176373605Y-95537749D01*
X176373605Y-95028686D01*
X176246293Y-95028686D01*
G37*
G36*
X175737230Y-95028686D02*
G01*
X175737230Y-95537749D01*
X175864480Y-95537749D01*
X175864480Y-95028686D01*
X175737230Y-95028686D01*
G37*
G36*
X175864480Y-95537749D02*
G01*
X175864480Y-95665000D01*
X176246293Y-95665000D01*
X176246293Y-95537749D01*
X175864480Y-95537749D01*
G37*
G36*
X176627251Y-94901374D02*
G01*
X176627251Y-95665000D01*
X176754501Y-95665000D01*
X176754501Y-95028686D01*
X176881813Y-95028686D01*
X176881813Y-94901374D01*
X176627251Y-94901374D01*
G37*
G36*
X176881813Y-95028686D02*
G01*
X176881813Y-95665000D01*
X177009064Y-95665000D01*
X177009064Y-95028686D01*
X176881813Y-95028686D01*
G37*
G36*
X177136314Y-95028686D02*
G01*
X177136314Y-94901374D01*
X177009064Y-94901374D01*
X177009064Y-95028686D01*
X177136314Y-95028686D01*
G37*
G36*
X177136314Y-95028686D02*
G01*
X177136314Y-95665000D01*
X177263626Y-95665000D01*
X177263626Y-95028686D01*
X177136314Y-95028686D01*
G37*
G36*
X177644522Y-94901374D02*
G01*
X177644522Y-95028686D01*
X178026335Y-95028686D01*
X178026335Y-94901374D01*
X177644522Y-94901374D01*
G37*
G36*
X177517272Y-95028686D02*
G01*
X177517272Y-95537749D01*
X177644522Y-95537749D01*
X177644522Y-95283187D01*
X178153647Y-95283187D01*
X178153647Y-95028686D01*
X178026335Y-95028686D01*
X178026335Y-95155936D01*
X177644522Y-95155936D01*
X177644522Y-95028686D01*
X177517272Y-95028686D01*
G37*
G36*
X177644522Y-95537749D02*
G01*
X177644522Y-95665000D01*
X178026335Y-95665000D01*
X178026335Y-95537749D01*
X177644522Y-95537749D01*
G37*
G36*
X178026335Y-95410498D02*
G01*
X178026335Y-95537749D01*
X178153647Y-95537749D01*
X178153647Y-95410498D01*
X178026335Y-95410498D01*
G37*
G36*
X142139428Y-144651374D02*
G01*
X142139428Y-144778686D01*
X142521240Y-144778686D01*
X142521240Y-144651374D01*
X142139428Y-144651374D01*
G37*
G36*
X142521240Y-144778686D02*
G01*
X142521240Y-145287749D01*
X142648552Y-145287749D01*
X142648552Y-144778686D01*
X142521240Y-144778686D01*
G37*
G36*
X142012177Y-144778686D02*
G01*
X142012177Y-145287749D01*
X142139428Y-145287749D01*
X142139428Y-144778686D01*
X142012177Y-144778686D01*
G37*
G36*
X142139428Y-145287749D02*
G01*
X142139428Y-145415000D01*
X142521240Y-145415000D01*
X142521240Y-145287749D01*
X142139428Y-145287749D01*
G37*
G36*
X142902198Y-144651374D02*
G01*
X142902198Y-145415000D01*
X143029448Y-145415000D01*
X143029448Y-144905936D01*
X143156760Y-144905936D01*
X143156760Y-144778686D01*
X143029448Y-144778686D01*
X143029448Y-144651374D01*
X142902198Y-144651374D01*
G37*
G36*
X143156760Y-144651374D02*
G01*
X143156760Y-144778686D01*
X143411261Y-144778686D01*
X143411261Y-144651374D01*
X143156760Y-144651374D01*
G37*
G36*
X143411261Y-144778686D02*
G01*
X143411261Y-145415000D01*
X143538573Y-145415000D01*
X143538573Y-144778686D01*
X143411261Y-144778686D01*
G37*
G36*
X144174032Y-144524124D02*
G01*
X144174032Y-144778686D01*
X144301282Y-144778686D01*
X144301282Y-144524124D01*
X144174032Y-144524124D01*
G37*
G36*
X143792219Y-145287749D02*
G01*
X143792219Y-145542311D01*
X143919469Y-145542311D01*
X143919469Y-145287749D01*
X143792219Y-145287749D01*
G37*
G36*
X143919469Y-145033187D02*
G01*
X143919469Y-145287749D01*
X144046781Y-145287749D01*
X144046781Y-145033187D01*
X143919469Y-145033187D01*
G37*
G36*
X144046781Y-144778686D02*
G01*
X144046781Y-145033187D01*
X144174032Y-145033187D01*
X144174032Y-144778686D01*
X144046781Y-144778686D01*
G37*
G36*
X144301282Y-144269562D02*
G01*
X144301282Y-144524124D01*
X144428594Y-144524124D01*
X144428594Y-144269562D01*
X144301282Y-144269562D01*
G37*
G36*
X144809490Y-144651374D02*
G01*
X144809490Y-144778686D01*
X145191303Y-144778686D01*
X145191303Y-144651374D01*
X144809490Y-144651374D01*
G37*
G36*
X145191303Y-144778686D02*
G01*
X145191303Y-145287749D01*
X145318615Y-145287749D01*
X145318615Y-144778686D01*
X145191303Y-144778686D01*
G37*
G36*
X144682240Y-144778686D02*
G01*
X144682240Y-145287749D01*
X144809490Y-145287749D01*
X144809490Y-144778686D01*
X144682240Y-144778686D01*
G37*
G36*
X144809490Y-145287749D02*
G01*
X144809490Y-145415000D01*
X145191303Y-145415000D01*
X145191303Y-145287749D01*
X144809490Y-145287749D01*
G37*
G36*
X145699511Y-144778686D02*
G01*
X145699511Y-145287749D01*
X145572261Y-145287749D01*
X145572261Y-145415000D01*
X146081324Y-145415000D01*
X146081324Y-145287749D01*
X145826823Y-145287749D01*
X145826823Y-144778686D01*
X146208636Y-144778686D01*
X146208636Y-144651374D01*
X145826823Y-144651374D01*
X145826823Y-144524124D01*
X145699511Y-144524124D01*
X145699511Y-144651374D01*
X145572261Y-144651374D01*
X145572261Y-144778686D01*
X145699511Y-144778686D01*
G37*
G36*
X145826823Y-144396812D02*
G01*
X145826823Y-144524124D01*
X146208636Y-144524124D01*
X146208636Y-144396812D01*
X145826823Y-144396812D01*
G37*
G36*
X146589532Y-144778686D02*
G01*
X146589532Y-145287749D01*
X146462282Y-145287749D01*
X146462282Y-145415000D01*
X146971345Y-145415000D01*
X146971345Y-145287749D01*
X146716844Y-145287749D01*
X146716844Y-144778686D01*
X147098656Y-144778686D01*
X147098656Y-144651374D01*
X146716844Y-144651374D01*
X146716844Y-144524124D01*
X146589532Y-144524124D01*
X146589532Y-144651374D01*
X146462282Y-144651374D01*
X146462282Y-144778686D01*
X146589532Y-144778686D01*
G37*
G36*
X146716844Y-144396812D02*
G01*
X146716844Y-144524124D01*
X147098656Y-144524124D01*
X147098656Y-144396812D01*
X146716844Y-144396812D01*
G37*
G36*
X147606865Y-144396812D02*
G01*
X147606865Y-145160498D01*
X147734115Y-145160498D01*
X147734115Y-144396812D01*
X147606865Y-144396812D01*
G37*
G36*
X147606865Y-145287749D02*
G01*
X147606865Y-145415000D01*
X147734115Y-145415000D01*
X147734115Y-145287749D01*
X147606865Y-145287749D01*
G37*
G36*
X100076293Y-75217749D02*
G01*
X99694481Y-75217749D01*
X99694481Y-75345000D01*
X100076293Y-75345000D01*
X100076293Y-75217749D01*
G37*
G36*
X99694481Y-75217749D02*
G01*
X99694481Y-75090498D01*
X99567230Y-75090498D01*
X99567230Y-75217749D01*
X99694481Y-75217749D01*
G37*
G36*
X100076293Y-74581374D02*
G01*
X99694481Y-74581374D01*
X99694481Y-74708686D01*
X100076293Y-74708686D01*
X100076293Y-74581374D01*
G37*
G36*
X99567230Y-74708686D02*
G01*
X99567230Y-74835936D01*
X99694481Y-74835936D01*
X99694481Y-74708686D01*
X99567230Y-74708686D01*
G37*
G36*
X99694481Y-74835936D02*
G01*
X99694481Y-74963187D01*
X100076293Y-74963187D01*
X100076293Y-74835936D01*
X99694481Y-74835936D01*
G37*
G36*
X100076293Y-74963187D02*
G01*
X100076293Y-75217749D01*
X100203605Y-75217749D01*
X100203605Y-74963187D01*
X100076293Y-74963187D01*
G37*
G36*
X100076293Y-74708686D02*
G01*
X100076293Y-74835936D01*
X100203605Y-74835936D01*
X100203605Y-74708686D01*
X100076293Y-74708686D01*
G37*
G36*
X100966314Y-74326812D02*
G01*
X100966314Y-74708686D01*
X100839064Y-74708686D01*
X100839064Y-74835936D01*
X100966314Y-74835936D01*
X100966314Y-75090498D01*
X100839064Y-75090498D01*
X100839064Y-75217749D01*
X100966314Y-75217749D01*
X100966314Y-75345000D01*
X101093626Y-75345000D01*
X101093626Y-74326812D01*
X100966314Y-74326812D01*
G37*
G36*
X100839064Y-75217749D02*
G01*
X100584501Y-75217749D01*
X100584501Y-75345000D01*
X100839064Y-75345000D01*
X100839064Y-75217749D01*
G37*
G36*
X100584501Y-75217749D02*
G01*
X100584501Y-74708686D01*
X100457251Y-74708686D01*
X100457251Y-75217749D01*
X100584501Y-75217749D01*
G37*
G36*
X100839064Y-74708686D02*
G01*
X100839064Y-74581374D01*
X100584501Y-74581374D01*
X100584501Y-74708686D01*
X100839064Y-74708686D01*
G37*
G36*
X161177209Y-103896812D02*
G01*
X161177209Y-104915000D01*
X161304460Y-104915000D01*
X161304460Y-104787749D01*
X161431771Y-104787749D01*
X161431771Y-104660498D01*
X161304460Y-104660498D01*
X161304460Y-104405936D01*
X161431771Y-104405936D01*
X161431771Y-104278686D01*
X161304460Y-104278686D01*
X161304460Y-103896812D01*
X161177209Y-103896812D01*
G37*
G36*
X161431771Y-104787749D02*
G01*
X161431771Y-104915000D01*
X161686272Y-104915000D01*
X161686272Y-104787749D01*
X161431771Y-104787749D01*
G37*
G36*
X161686272Y-104278686D02*
G01*
X161686272Y-104787749D01*
X161813584Y-104787749D01*
X161813584Y-104278686D01*
X161686272Y-104278686D01*
G37*
G36*
X161431771Y-104151374D02*
G01*
X161431771Y-104278686D01*
X161686272Y-104278686D01*
X161686272Y-104151374D01*
X161431771Y-104151374D01*
G37*
G36*
X162067230Y-104533187D02*
G01*
X162067230Y-104787749D01*
X162194480Y-104787749D01*
X162194480Y-104533187D01*
X162067230Y-104533187D01*
G37*
G36*
X162194480Y-104787749D02*
G01*
X162194480Y-104915000D01*
X162449043Y-104915000D01*
X162449043Y-104787749D01*
X162194480Y-104787749D01*
G37*
G36*
X162449043Y-104660498D02*
G01*
X162449043Y-104787749D01*
X162576293Y-104787749D01*
X162576293Y-104915000D01*
X162703605Y-104915000D01*
X162703605Y-104278686D01*
X162576293Y-104278686D01*
X162576293Y-104405936D01*
X162194480Y-104405936D01*
X162194480Y-104533187D01*
X162576293Y-104533187D01*
X162576293Y-104660498D01*
X162449043Y-104660498D01*
G37*
G36*
X162194480Y-104151374D02*
G01*
X162194480Y-104278686D01*
X162576293Y-104278686D01*
X162576293Y-104151374D01*
X162194480Y-104151374D01*
G37*
G36*
X163084501Y-104151374D02*
G01*
X163084501Y-104278686D01*
X163466314Y-104278686D01*
X163466314Y-104151374D01*
X163084501Y-104151374D01*
G37*
G36*
X162957251Y-104278686D02*
G01*
X162957251Y-104787749D01*
X163084501Y-104787749D01*
X163084501Y-104278686D01*
X162957251Y-104278686D01*
G37*
G36*
X163084501Y-104787749D02*
G01*
X163084501Y-104915000D01*
X163466314Y-104915000D01*
X163466314Y-104787749D01*
X163084501Y-104787749D01*
G37*
G36*
X163466314Y-104278686D02*
G01*
X163466314Y-104405936D01*
X163593626Y-104405936D01*
X163593626Y-104278686D01*
X163466314Y-104278686D01*
G37*
G36*
X163466314Y-104660498D02*
G01*
X163466314Y-104787749D01*
X163593626Y-104787749D01*
X163593626Y-104660498D01*
X163466314Y-104660498D01*
G37*
G36*
X163847272Y-103896812D02*
G01*
X163847272Y-104915000D01*
X163974522Y-104915000D01*
X163974522Y-104660498D01*
X164229084Y-104660498D01*
X164229084Y-104405936D01*
X164101834Y-104405936D01*
X164101834Y-104533187D01*
X163974522Y-104533187D01*
X163974522Y-103896812D01*
X163847272Y-103896812D01*
G37*
G36*
X164356335Y-104151374D02*
G01*
X164356335Y-104278686D01*
X164483647Y-104278686D01*
X164483647Y-104151374D01*
X164356335Y-104151374D01*
G37*
G36*
X164229084Y-104278686D02*
G01*
X164229084Y-104405936D01*
X164356335Y-104405936D01*
X164356335Y-104278686D01*
X164229084Y-104278686D01*
G37*
G36*
X164229084Y-104660498D02*
G01*
X164229084Y-104787749D01*
X164356335Y-104787749D01*
X164356335Y-104660498D01*
X164229084Y-104660498D01*
G37*
G36*
X164356335Y-104787749D02*
G01*
X164356335Y-104915000D01*
X164483647Y-104915000D01*
X164483647Y-104787749D01*
X164356335Y-104787749D01*
G37*
X187666667Y-108907200D02*
X187809524Y-108954819D01*
X187809524Y-108954819D02*
X188047619Y-108954819D01*
X188047619Y-108954819D02*
X188142857Y-108907200D01*
X188142857Y-108907200D02*
X188190476Y-108859580D01*
X188190476Y-108859580D02*
X188238095Y-108764342D01*
X188238095Y-108764342D02*
X188238095Y-108669104D01*
X188238095Y-108669104D02*
X188190476Y-108573866D01*
X188190476Y-108573866D02*
X188142857Y-108526247D01*
X188142857Y-108526247D02*
X188047619Y-108478628D01*
X188047619Y-108478628D02*
X187857143Y-108431009D01*
X187857143Y-108431009D02*
X187761905Y-108383390D01*
X187761905Y-108383390D02*
X187714286Y-108335771D01*
X187714286Y-108335771D02*
X187666667Y-108240533D01*
X187666667Y-108240533D02*
X187666667Y-108145295D01*
X187666667Y-108145295D02*
X187714286Y-108050057D01*
X187714286Y-108050057D02*
X187761905Y-108002438D01*
X187761905Y-108002438D02*
X187857143Y-107954819D01*
X187857143Y-107954819D02*
X188095238Y-107954819D01*
X188095238Y-107954819D02*
X188238095Y-108002438D01*
X188571429Y-107954819D02*
X188809524Y-108954819D01*
X188809524Y-108954819D02*
X189000000Y-108240533D01*
X189000000Y-108240533D02*
X189190476Y-108954819D01*
X189190476Y-108954819D02*
X189428572Y-107954819D01*
X189952381Y-108383390D02*
X189857143Y-108335771D01*
X189857143Y-108335771D02*
X189809524Y-108288152D01*
X189809524Y-108288152D02*
X189761905Y-108192914D01*
X189761905Y-108192914D02*
X189761905Y-108145295D01*
X189761905Y-108145295D02*
X189809524Y-108050057D01*
X189809524Y-108050057D02*
X189857143Y-108002438D01*
X189857143Y-108002438D02*
X189952381Y-107954819D01*
X189952381Y-107954819D02*
X190142857Y-107954819D01*
X190142857Y-107954819D02*
X190238095Y-108002438D01*
X190238095Y-108002438D02*
X190285714Y-108050057D01*
X190285714Y-108050057D02*
X190333333Y-108145295D01*
X190333333Y-108145295D02*
X190333333Y-108192914D01*
X190333333Y-108192914D02*
X190285714Y-108288152D01*
X190285714Y-108288152D02*
X190238095Y-108335771D01*
X190238095Y-108335771D02*
X190142857Y-108383390D01*
X190142857Y-108383390D02*
X189952381Y-108383390D01*
X189952381Y-108383390D02*
X189857143Y-108431009D01*
X189857143Y-108431009D02*
X189809524Y-108478628D01*
X189809524Y-108478628D02*
X189761905Y-108573866D01*
X189761905Y-108573866D02*
X189761905Y-108764342D01*
X189761905Y-108764342D02*
X189809524Y-108859580D01*
X189809524Y-108859580D02*
X189857143Y-108907200D01*
X189857143Y-108907200D02*
X189952381Y-108954819D01*
X189952381Y-108954819D02*
X190142857Y-108954819D01*
X190142857Y-108954819D02*
X190238095Y-108907200D01*
X190238095Y-108907200D02*
X190285714Y-108859580D01*
X190285714Y-108859580D02*
X190333333Y-108764342D01*
X190333333Y-108764342D02*
X190333333Y-108573866D01*
X190333333Y-108573866D02*
X190285714Y-108478628D01*
X190285714Y-108478628D02*
X190238095Y-108431009D01*
X190238095Y-108431009D02*
X190142857Y-108383390D01*
G36*
X187774460Y-103528686D02*
G01*
X187774460Y-104037749D01*
X187647209Y-104037749D01*
X187647209Y-104165000D01*
X188156272Y-104165000D01*
X188156272Y-104037749D01*
X187901771Y-104037749D01*
X187901771Y-103528686D01*
X188283584Y-103528686D01*
X188283584Y-103401374D01*
X187901771Y-103401374D01*
X187901771Y-103274124D01*
X187774460Y-103274124D01*
X187774460Y-103401374D01*
X187647209Y-103401374D01*
X187647209Y-103528686D01*
X187774460Y-103528686D01*
G37*
G36*
X187901771Y-103146812D02*
G01*
X187901771Y-103274124D01*
X188283584Y-103274124D01*
X188283584Y-103146812D01*
X187901771Y-103146812D01*
G37*
G36*
X188791792Y-103274124D02*
G01*
X188791792Y-104037749D01*
X188537230Y-104037749D01*
X188537230Y-104165000D01*
X189173605Y-104165000D01*
X189173605Y-104037749D01*
X188919043Y-104037749D01*
X188919043Y-103146812D01*
X188537230Y-103146812D01*
X188537230Y-103274124D01*
X188791792Y-103274124D01*
G37*
G36*
X189681813Y-103528686D02*
G01*
X189681813Y-104037749D01*
X189427251Y-104037749D01*
X189427251Y-104165000D01*
X190063626Y-104165000D01*
X190063626Y-104037749D01*
X189809064Y-104037749D01*
X189809064Y-103401374D01*
X189427251Y-103401374D01*
X189427251Y-103528686D01*
X189681813Y-103528686D01*
G37*
G36*
X189681813Y-103146812D02*
G01*
X189681813Y-103274124D01*
X189809064Y-103274124D01*
X189809064Y-103146812D01*
X189681813Y-103146812D01*
G37*
G36*
X190317272Y-103401374D02*
G01*
X190317272Y-104419562D01*
X190444522Y-104419562D01*
X190444522Y-104037749D01*
X190571834Y-104037749D01*
X190571834Y-103910498D01*
X190444522Y-103910498D01*
X190444522Y-103655936D01*
X190571834Y-103655936D01*
X190571834Y-103528686D01*
X190444522Y-103528686D01*
X190444522Y-103401374D01*
X190317272Y-103401374D01*
G37*
G36*
X190571834Y-103401374D02*
G01*
X190571834Y-103528686D01*
X190826335Y-103528686D01*
X190826335Y-103401374D01*
X190571834Y-103401374D01*
G37*
G36*
X190826335Y-103528686D02*
G01*
X190826335Y-104037749D01*
X190953647Y-104037749D01*
X190953647Y-103528686D01*
X190826335Y-103528686D01*
G37*
G36*
X190571834Y-104037749D02*
G01*
X190571834Y-104165000D01*
X190826335Y-104165000D01*
X190826335Y-104037749D01*
X190571834Y-104037749D01*
G37*
G36*
X83698980Y-107746812D02*
G01*
X83698980Y-107874124D01*
X83826230Y-107874124D01*
X83826230Y-107746812D01*
X83698980Y-107746812D01*
G37*
G36*
X83698980Y-108128686D02*
G01*
X83698980Y-108892311D01*
X83826230Y-108892311D01*
X83826230Y-108001374D01*
X83444418Y-108001374D01*
X83444418Y-108128686D01*
X83698980Y-108128686D01*
G37*
G36*
X83698980Y-108892311D02*
G01*
X83444418Y-108892311D01*
X83444418Y-109019562D01*
X83698980Y-109019562D01*
X83698980Y-108892311D01*
G37*
G36*
X83444418Y-108892311D02*
G01*
X83444418Y-108765000D01*
X83317167Y-108765000D01*
X83317167Y-108892311D01*
X83444418Y-108892311D01*
G37*
G36*
X84334438Y-108001374D02*
G01*
X84334438Y-108128686D01*
X84716251Y-108128686D01*
X84716251Y-108001374D01*
X84334438Y-108001374D01*
G37*
G36*
X84716251Y-108128686D02*
G01*
X84716251Y-108637749D01*
X84843563Y-108637749D01*
X84843563Y-108128686D01*
X84716251Y-108128686D01*
G37*
G36*
X84207188Y-108128686D02*
G01*
X84207188Y-108637749D01*
X84334438Y-108637749D01*
X84334438Y-108128686D01*
X84207188Y-108128686D01*
G37*
G36*
X84334438Y-108637749D02*
G01*
X84334438Y-108765000D01*
X84716251Y-108765000D01*
X84716251Y-108637749D01*
X84334438Y-108637749D01*
G37*
G36*
X85097209Y-108001374D02*
G01*
X85097209Y-108383187D01*
X85224459Y-108383187D01*
X85224459Y-108001374D01*
X85097209Y-108001374D01*
G37*
G36*
X85606272Y-108001374D02*
G01*
X85606272Y-108383187D01*
X85733584Y-108383187D01*
X85733584Y-108001374D01*
X85606272Y-108001374D01*
G37*
G36*
X85351771Y-108637749D02*
G01*
X85351771Y-108892311D01*
X85479022Y-108892311D01*
X85479022Y-108637749D01*
X85351771Y-108637749D01*
G37*
G36*
X85351771Y-108892311D02*
G01*
X85097209Y-108892311D01*
X85097209Y-109019562D01*
X85351771Y-109019562D01*
X85351771Y-108892311D01*
G37*
G36*
X85479022Y-108383187D02*
G01*
X85479022Y-108637749D01*
X85606272Y-108637749D01*
X85606272Y-108383187D01*
X85479022Y-108383187D01*
G37*
G36*
X85224459Y-108383187D02*
G01*
X85224459Y-108637749D01*
X85351771Y-108637749D01*
X85351771Y-108383187D01*
X85224459Y-108383187D01*
G37*
G36*
X86496293Y-108637749D02*
G01*
X86114480Y-108637749D01*
X86114480Y-108765000D01*
X86496293Y-108765000D01*
X86496293Y-108637749D01*
G37*
G36*
X86114480Y-108637749D02*
G01*
X86114480Y-108510498D01*
X85987230Y-108510498D01*
X85987230Y-108637749D01*
X86114480Y-108637749D01*
G37*
G36*
X86496293Y-108001374D02*
G01*
X86114480Y-108001374D01*
X86114480Y-108128686D01*
X86496293Y-108128686D01*
X86496293Y-108001374D01*
G37*
G36*
X85987230Y-108128686D02*
G01*
X85987230Y-108255936D01*
X86114480Y-108255936D01*
X86114480Y-108128686D01*
X85987230Y-108128686D01*
G37*
G36*
X86114480Y-108255936D02*
G01*
X86114480Y-108383187D01*
X86496293Y-108383187D01*
X86496293Y-108255936D01*
X86114480Y-108255936D01*
G37*
G36*
X86496293Y-108383187D02*
G01*
X86496293Y-108637749D01*
X86623605Y-108637749D01*
X86623605Y-108383187D01*
X86496293Y-108383187D01*
G37*
G36*
X86496293Y-108128686D02*
G01*
X86496293Y-108255936D01*
X86623605Y-108255936D01*
X86623605Y-108128686D01*
X86496293Y-108128686D01*
G37*
G36*
X87004501Y-107746812D02*
G01*
X87004501Y-108001374D01*
X86877251Y-108001374D01*
X86877251Y-108128686D01*
X87004501Y-108128686D01*
X87004501Y-108637749D01*
X87131813Y-108637749D01*
X87131813Y-108128686D01*
X87513626Y-108128686D01*
X87513626Y-108001374D01*
X87131813Y-108001374D01*
X87131813Y-107746812D01*
X87004501Y-107746812D01*
G37*
G36*
X87131813Y-108637749D02*
G01*
X87131813Y-108765000D01*
X87386314Y-108765000D01*
X87386314Y-108637749D01*
X87131813Y-108637749D01*
G37*
G36*
X87386314Y-108510498D02*
G01*
X87386314Y-108637749D01*
X87513626Y-108637749D01*
X87513626Y-108510498D01*
X87386314Y-108510498D01*
G37*
G36*
X88021834Y-108128686D02*
G01*
X88021834Y-108637749D01*
X87767272Y-108637749D01*
X87767272Y-108765000D01*
X88403646Y-108765000D01*
X88403646Y-108637749D01*
X88149084Y-108637749D01*
X88149084Y-108001374D01*
X87767272Y-108001374D01*
X87767272Y-108128686D01*
X88021834Y-108128686D01*
G37*
G36*
X88021834Y-107746812D02*
G01*
X88021834Y-107874124D01*
X88149084Y-107874124D01*
X88149084Y-107746812D01*
X88021834Y-107746812D01*
G37*
G36*
X88784543Y-108001374D02*
G01*
X88784543Y-108128686D01*
X89166356Y-108128686D01*
X89166356Y-108001374D01*
X88784543Y-108001374D01*
G37*
G36*
X88657293Y-108128686D02*
G01*
X88657293Y-108637749D01*
X88784543Y-108637749D01*
X88784543Y-108128686D01*
X88657293Y-108128686D01*
G37*
G36*
X88784543Y-108637749D02*
G01*
X88784543Y-108765000D01*
X89166356Y-108765000D01*
X89166356Y-108637749D01*
X88784543Y-108637749D01*
G37*
G36*
X89166356Y-108128686D02*
G01*
X89166356Y-108255936D01*
X89293667Y-108255936D01*
X89293667Y-108128686D01*
X89166356Y-108128686D01*
G37*
G36*
X89166356Y-108510498D02*
G01*
X89166356Y-108637749D01*
X89293667Y-108637749D01*
X89293667Y-108510498D01*
X89166356Y-108510498D01*
G37*
G36*
X89547314Y-107746812D02*
G01*
X89547314Y-108765000D01*
X89674564Y-108765000D01*
X89674564Y-108510498D01*
X89929126Y-108510498D01*
X89929126Y-108255936D01*
X89801876Y-108255936D01*
X89801876Y-108383187D01*
X89674564Y-108383187D01*
X89674564Y-107746812D01*
X89547314Y-107746812D01*
G37*
G36*
X90056377Y-108001374D02*
G01*
X90056377Y-108128686D01*
X90183688Y-108128686D01*
X90183688Y-108001374D01*
X90056377Y-108001374D01*
G37*
G36*
X89929126Y-108128686D02*
G01*
X89929126Y-108255936D01*
X90056377Y-108255936D01*
X90056377Y-108128686D01*
X89929126Y-108128686D01*
G37*
G36*
X89929126Y-108510498D02*
G01*
X89929126Y-108637749D01*
X90056377Y-108637749D01*
X90056377Y-108510498D01*
X89929126Y-108510498D01*
G37*
G36*
X90056377Y-108637749D02*
G01*
X90056377Y-108765000D01*
X90183688Y-108765000D01*
X90183688Y-108637749D01*
X90056377Y-108637749D01*
G37*
G04 #@! TO.C,display*
D11*
X124000000Y-38000000D02*
X125380000Y-38000000D01*
X125380000Y-36620000D02*
X125380000Y-38000000D01*
X122500000Y-26810000D02*
X160500000Y-26810000D01*
X160500000Y-38810000D01*
X122500000Y-38810000D01*
X122500000Y-26810000D01*
X171390000Y-82550000D02*
X171390000Y-49470000D01*
X171390000Y-85150000D02*
X171390000Y-83820000D01*
X172720000Y-85150000D02*
X171390000Y-85150000D01*
X174050000Y-49470000D02*
X171390000Y-49470000D01*
X174050000Y-82550000D02*
X171390000Y-82550000D01*
X174050000Y-82550000D02*
X174050000Y-49470000D01*
G04 #@! TO.C,home*
X173000000Y-98750000D02*
X173000000Y-100250000D01*
X174250000Y-102750000D02*
X178750000Y-102750000D01*
X178750000Y-96250000D02*
X174250000Y-96250000D01*
X180000000Y-100250000D02*
X180000000Y-98750000D01*
G04 #@! TO.C,on/off!*
X140590000Y-146740000D02*
X140590000Y-147050000D01*
X140590000Y-146740000D02*
X149410000Y-146740000D01*
X140590000Y-151260000D02*
X140590000Y-150950000D01*
X146500000Y-151960000D02*
X147500000Y-151960000D01*
X147000000Y-151460000D02*
X146500000Y-151960000D01*
X147500000Y-151960000D02*
X147000000Y-151460000D01*
X149410000Y-146740000D02*
X149410000Y-147050000D01*
X149410000Y-150950000D02*
X149410000Y-151260000D01*
X149410000Y-151260000D02*
X140590000Y-151260000D01*
G04 #@! TO.C,sd*
X99000000Y-69850000D02*
X99000000Y-62170000D01*
X99000000Y-72450000D02*
X99000000Y-71120000D01*
X100330000Y-72450000D02*
X99000000Y-72450000D01*
X101660000Y-62170000D02*
X99000000Y-62170000D01*
X101660000Y-69850000D02*
X99000000Y-69850000D01*
X101660000Y-69850000D02*
X101660000Y-62170000D01*
G04 #@! TO.C,back*
X159500000Y-108250000D02*
X159500000Y-109750000D01*
X160750000Y-112250000D02*
X165250000Y-112250000D01*
X165250000Y-105750000D02*
X160750000Y-105750000D01*
X166500000Y-109750000D02*
X166500000Y-108250000D01*
G04 #@! TO.C,SW8*
X185500000Y-107750000D02*
X185500000Y-109250000D01*
X186750000Y-111750000D02*
X191250000Y-111750000D01*
X191250000Y-105250000D02*
X186750000Y-105250000D01*
X192500000Y-109250000D02*
X192500000Y-107750000D01*
G04 #@! TO.C,joystick*
X85420000Y-104310000D02*
X85420000Y-94090000D01*
X85420000Y-106910000D02*
X85420000Y-105580000D01*
X86750000Y-106910000D02*
X85420000Y-106910000D01*
X88080000Y-94090000D02*
X85420000Y-94090000D01*
X88080000Y-104310000D02*
X85420000Y-104310000D01*
X88080000Y-104310000D02*
X88080000Y-94090000D01*
G04 #@! TD*
%LPC*%
D12*
G04 #@! TO.C,display*
X124000000Y-36620000D03*
D13*
X124000000Y-34080000D03*
X124000000Y-31540000D03*
X124000000Y-29000000D03*
G04 #@! TD*
D14*
G04 #@! TO.C,display*
X172720000Y-83820000D03*
D13*
X172720000Y-81280000D03*
X172720000Y-78740000D03*
X172720000Y-76200000D03*
X172720000Y-73660000D03*
X172720000Y-71120000D03*
X172720000Y-68580000D03*
X172720000Y-66040000D03*
X172720000Y-63500000D03*
X172720000Y-60960000D03*
X172720000Y-58420000D03*
X172720000Y-55880000D03*
X172720000Y-53340000D03*
X172720000Y-50800000D03*
G04 #@! TD*
D15*
G04 #@! TO.C,home*
X173250000Y-97250000D03*
X179750000Y-97250000D03*
X173250000Y-101750000D03*
X179750000Y-101750000D03*
G04 #@! TD*
D16*
G04 #@! TO.C,on/off!*
X149100000Y-149000000D03*
X140900000Y-149000000D03*
D17*
X147000000Y-149000000D03*
D18*
X145000000Y-149000000D03*
X143000000Y-149000000D03*
G04 #@! TD*
D14*
G04 #@! TO.C,sd*
X100330000Y-71120000D03*
D13*
X100330000Y-68580000D03*
X100330000Y-66040000D03*
X100330000Y-63500000D03*
G04 #@! TD*
D15*
G04 #@! TO.C,back*
X159750000Y-106750000D03*
X166250000Y-106750000D03*
X159750000Y-111250000D03*
X166250000Y-111250000D03*
G04 #@! TD*
G04 #@! TO.C,SW8*
X185750000Y-106250000D03*
X192250000Y-106250000D03*
X185750000Y-110750000D03*
X192250000Y-110750000D03*
G04 #@! TD*
D14*
G04 #@! TO.C,joystick*
X86750000Y-105580000D03*
D13*
X86750000Y-103040000D03*
X86750000Y-100500000D03*
X86750000Y-97960000D03*
X86750000Y-95420000D03*
G04 #@! TD*
D19*
G04 #@! TO.C,J2*
X171680000Y-153000000D03*
X157320000Y-153000000D03*
X168510000Y-129550000D03*
X160490000Y-129550000D03*
X171680000Y-129550000D03*
X157320000Y-129550000D03*
G04 #@! TD*
D20*
G04 #@! TO.C,R1*
X80190000Y-145000000D03*
X87810000Y-145000000D03*
G04 #@! TD*
D14*
G04 #@! TO.C,J5*
X98000000Y-114440000D03*
D13*
X98000000Y-116980000D03*
X98000000Y-119520000D03*
X98000000Y-122060000D03*
X98000000Y-124600000D03*
X98000000Y-127140000D03*
X98000000Y-129680000D03*
X98000000Y-132220000D03*
X98000000Y-134760000D03*
X98000000Y-137300000D03*
X98000000Y-139840000D03*
X98000000Y-142380000D03*
X98000000Y-144920000D03*
X98000000Y-147460000D03*
X98000000Y-150000000D03*
G04 #@! TD*
D20*
G04 #@! TO.C,C1*
X144500000Y-124500000D03*
X142000000Y-124500000D03*
G04 #@! TD*
D21*
G04 #@! TO.C,CP1*
X144500000Y-116000000D03*
D20*
X142000000Y-116000000D03*
G04 #@! TD*
D22*
G04 #@! TO.C,D1*
X150910000Y-138000000D03*
D23*
X140750000Y-138000000D03*
G04 #@! TD*
D20*
G04 #@! TO.C,R2*
X80190000Y-136500000D03*
X87810000Y-136500000D03*
G04 #@! TD*
D14*
G04 #@! TO.C,J6*
X123400000Y-150000000D03*
D13*
X123400000Y-147460000D03*
X123400000Y-144920000D03*
X123400000Y-142380000D03*
X123400000Y-139840000D03*
X123400000Y-137300000D03*
X123400000Y-134760000D03*
X123400000Y-132220000D03*
X123400000Y-129680000D03*
X123400000Y-127140000D03*
X123400000Y-124600000D03*
X123400000Y-122060000D03*
X123400000Y-119520000D03*
X123400000Y-116980000D03*
X123400000Y-114440000D03*
G04 #@! TD*
D24*
G04 #@! TO.C,J1*
X186000000Y-141550000D03*
D25*
X184000000Y-141550000D03*
G04 #@! TD*
%LPD*%
M02*
