G04 #@! TF.GenerationSoftware,KiCad,Pcbnew,10.0.5*
G04 #@! TF.CreationDate,2026-09-21T01:48:34-04:00*
G04 #@! TF.ProjectId,Handheld_Chess,48616e64-6865-46c6-945f-43686573732e,rev?*
G04 #@! TF.SameCoordinates,Original*
G04 #@! TF.FileFunction,Copper,L2,Bot*
G04 #@! TF.FilePolarity,Positive*
%FSLAX46Y46*%
G04 Gerber Fmt 4.6, Leading zero omitted, Abs format (unit mm)*
G04 Created by KiCad (PCBNEW 10.0.5) date 2026-09-21 01:48:34*
%MOMM*%
%LPD*%
G01*
G04 APERTURE LIST*
G04 Aperture macros list*
%AMRoundRect*
0 Rectangle with rounded corners*
0 $1 Rounding radius*
0 $2 $3 $4 $5 $6 $7 $8 $9 X,Y pos of 4 corners*
0 Add a 4 corners polygon primitive as box body*
4,1,4,$2,$3,$4,$5,$6,$7,$8,$9,$2,$3,0*
0 Add four circle primitives for the rounded corners*
1,1,$1+$1,$2,$3*
1,1,$1+$1,$4,$5*
1,1,$1+$1,$6,$7*
1,1,$1+$1,$8,$9*
0 Add four rect primitives between the rounded corners*
20,1,$1+$1,$2,$3,$4,$5,0*
20,1,$1+$1,$4,$5,$6,$7,0*
20,1,$1+$1,$6,$7,$8,$9,0*
20,1,$1+$1,$8,$9,$2,$3,0*%
G04 Aperture macros list end*
G04 #@! TA.AperFunction,ComponentPad*
%ADD10RoundRect,0.170000X0.680000X-0.680000X0.680000X0.680000X-0.680000X0.680000X-0.680000X-0.680000X0*%
G04 #@! TD*
G04 #@! TA.AperFunction,ComponentPad*
%ADD11C,1.700000*%
G04 #@! TD*
G04 #@! TA.AperFunction,ComponentPad*
%ADD12R,1.700000X1.700000*%
G04 #@! TD*
G04 #@! TA.AperFunction,ComponentPad*
%ADD13C,2.000000*%
G04 #@! TD*
G04 #@! TA.AperFunction,ComponentPad*
%ADD14O,2.200000X3.500000*%
G04 #@! TD*
G04 #@! TA.AperFunction,ComponentPad*
%ADD15R,1.500000X2.500000*%
G04 #@! TD*
G04 #@! TA.AperFunction,ComponentPad*
%ADD16O,1.500000X2.500000*%
G04 #@! TD*
G04 #@! TA.AperFunction,ComponentPad*
%ADD17R,2.790000X2.790000*%
G04 #@! TD*
G04 #@! TA.AperFunction,ComponentPad*
%ADD18C,1.600000*%
G04 #@! TD*
G04 #@! TA.AperFunction,ComponentPad*
%ADD19RoundRect,0.250000X0.550000X0.550000X-0.550000X0.550000X-0.550000X-0.550000X0.550000X-0.550000X0*%
G04 #@! TD*
G04 #@! TA.AperFunction,ComponentPad*
%ADD20RoundRect,0.249999X0.850001X0.850001X-0.850001X0.850001X-0.850001X-0.850001X0.850001X-0.850001X0*%
G04 #@! TD*
G04 #@! TA.AperFunction,ComponentPad*
%ADD21C,2.200000*%
G04 #@! TD*
G04 #@! TA.AperFunction,ComponentPad*
%ADD22RoundRect,0.250000X0.350000X0.625000X-0.350000X0.625000X-0.350000X-0.625000X0.350000X-0.625000X0*%
G04 #@! TD*
G04 #@! TA.AperFunction,ComponentPad*
%ADD23O,1.200000X1.750000*%
G04 #@! TD*
G04 #@! TA.AperFunction,ViaPad*
%ADD24C,0.600000*%
G04 #@! TD*
G04 #@! TA.AperFunction,Conductor*
%ADD25C,0.500000*%
G04 #@! TD*
G04 #@! TA.AperFunction,Conductor*
%ADD26C,0.200000*%
G04 #@! TD*
G04 APERTURE END LIST*
D10*
G04 #@! TO.P,display,1,GND_1*
G04 #@! TO.N,GND*
X124000000Y-36620000D03*
D11*
G04 #@! TO.P,display,2,VCC_2*
G04 #@! TO.N,+3V3*
X124000000Y-34080000D03*
G04 #@! TO.P,display,3,SCL_3*
G04 #@! TO.N,/OLED_SCL*
X124000000Y-31540000D03*
G04 #@! TO.P,display,4,SDA_4*
G04 #@! TO.N,/OLED_SDA*
X124000000Y-29000000D03*
G04 #@! TD*
D12*
G04 #@! TO.P,display,1,Pin_1_1*
G04 #@! TO.N,+3V3*
X172720000Y-83820000D03*
D11*
G04 #@! TO.P,display,2,Pin_2_2*
G04 #@! TO.N,GND*
X172720000Y-81280000D03*
G04 #@! TO.P,display,3,Pin_3_3*
G04 #@! TO.N,/DISP_CS*
X172720000Y-78740000D03*
G04 #@! TO.P,display,4,Pin_4_4*
G04 #@! TO.N,+3V3*
X172720000Y-76200000D03*
G04 #@! TO.P,display,5,Pin_5_5*
G04 #@! TO.N,/DISP_DC*
X172720000Y-73660000D03*
G04 #@! TO.P,display,6,Pin_6_6*
G04 #@! TO.N,/DISP_MOSI*
X172720000Y-71120000D03*
G04 #@! TO.P,display,7,Pin_7_7*
G04 #@! TO.N,/DISP_SCK*
X172720000Y-68580000D03*
G04 #@! TO.P,display,8,Pin_8_8*
G04 #@! TO.N,+3V3*
X172720000Y-66040000D03*
G04 #@! TO.P,display,9,Pin_9_9*
G04 #@! TO.N,/DISP_MISO*
X172720000Y-63500000D03*
G04 #@! TO.P,display,10,Pin_10_10*
G04 #@! TO.N,/DISP_SCK*
X172720000Y-60960000D03*
G04 #@! TO.P,display,11,Pin_11_11*
G04 #@! TO.N,/TOUCH_CS*
X172720000Y-58420000D03*
G04 #@! TO.P,display,12,Pin_12_12*
G04 #@! TO.N,/DISP_MOSI*
X172720000Y-55880000D03*
G04 #@! TO.P,display,13,Pin_13_13*
G04 #@! TO.N,/DISP_MISO*
X172720000Y-53340000D03*
G04 #@! TO.P,display,14,Pin_14_14*
G04 #@! TO.N,/TOUCH_IRQ*
X172720000Y-50800000D03*
G04 #@! TD*
D13*
G04 #@! TO.P,home,1,1_1*
G04 #@! TO.N,/BTN_BACK*
X173250000Y-97250000D03*
X179750000Y-97250000D03*
G04 #@! TO.P,home,2,2_2*
G04 #@! TO.N,GND*
X173250000Y-101750000D03*
X179750000Y-101750000D03*
G04 #@! TD*
D14*
G04 #@! TO.P,on/off!,*
G04 #@! TO.N,*
X149100000Y-149000000D03*
X140900000Y-149000000D03*
D15*
G04 #@! TO.P,on/off!,1,A_1*
G04 #@! TO.N,unconnected-(SW6-A-Pad1)*
X147000000Y-149000000D03*
D16*
G04 #@! TO.P,on/off!,2,B_2*
G04 #@! TO.N,/OUT_P*
X145000000Y-149000000D03*
G04 #@! TO.P,on/off!,3,C_3*
G04 #@! TO.N,/SYS_VBAT*
X143000000Y-149000000D03*
G04 #@! TD*
D12*
G04 #@! TO.P,sd,1,Pin_1_1*
G04 #@! TO.N,/SD_CS*
X100330000Y-71120000D03*
D11*
G04 #@! TO.P,sd,2,Pin_2_2*
G04 #@! TO.N,/DISP_MOSI*
X100330000Y-68580000D03*
G04 #@! TO.P,sd,3,Pin_3_3*
G04 #@! TO.N,/DISP_MISO*
X100330000Y-66040000D03*
G04 #@! TO.P,sd,4,Pin_4_4*
G04 #@! TO.N,/DISP_SCK*
X100330000Y-63500000D03*
G04 #@! TD*
D13*
G04 #@! TO.P,back,1,1_1*
G04 #@! TO.N,/BTN_A*
X159750000Y-106750000D03*
X166250000Y-106750000D03*
G04 #@! TO.P,back,2,2_2*
G04 #@! TO.N,GND*
X159750000Y-111250000D03*
X166250000Y-111250000D03*
G04 #@! TD*
G04 #@! TO.P,SW8,1,1_1*
G04 #@! TO.N,/BTN_B*
X185750000Y-106250000D03*
X192250000Y-106250000D03*
G04 #@! TO.P,SW8,2,2_2*
G04 #@! TO.N,GND*
X185750000Y-110750000D03*
X192250000Y-110750000D03*
G04 #@! TD*
D12*
G04 #@! TO.P,joystick,1,Pin_1_1*
G04 #@! TO.N,/SW*
X86750000Y-105580000D03*
D11*
G04 #@! TO.P,joystick,2,Pin_2_2*
G04 #@! TO.N,/VRY*
X86750000Y-103040000D03*
G04 #@! TO.P,joystick,3,Pin_3_3*
G04 #@! TO.N,/VRX*
X86750000Y-100500000D03*
G04 #@! TO.P,joystick,4,Pin_4_4*
G04 #@! TO.N,+3V3*
X86750000Y-97960000D03*
G04 #@! TO.P,joystick,5,Pin_5_5*
G04 #@! TO.N,GND*
X86750000Y-95420000D03*
G04 #@! TD*
D17*
G04 #@! TO.P,J2,1,Pin_1_1*
G04 #@! TO.N,/IN+*
X171680000Y-153000000D03*
G04 #@! TO.P,J2,2,Pin_2_2*
G04 #@! TO.N,/IN-*
X157320000Y-153000000D03*
G04 #@! TO.P,J2,3,Pin_3_3*
G04 #@! TO.N,/BAT_P*
X168510000Y-129550000D03*
G04 #@! TO.P,J2,4,Pin_4_4*
G04 #@! TO.N,/BAT_N*
X160490000Y-129550000D03*
G04 #@! TO.P,J2,5,Pin_5_5*
G04 #@! TO.N,/OUT_P*
X171680000Y-129550000D03*
G04 #@! TO.P,J2,6,Pin_6_6*
G04 #@! TO.N,GND*
X157320000Y-129550000D03*
G04 #@! TD*
D18*
G04 #@! TO.P,R1,1*
G04 #@! TO.N,/SYS_VBAT*
X80190000Y-145000000D03*
G04 #@! TO.P,R1,2*
G04 #@! TO.N,/SENS_BAT*
X87810000Y-145000000D03*
G04 #@! TD*
D12*
G04 #@! TO.P,J5,1,Pin_1_1*
G04 #@! TO.N,unconnected-(J5-Pin_1-Pad1)*
X98000000Y-114440000D03*
D11*
G04 #@! TO.P,J5,2,Pin_2_2*
G04 #@! TO.N,unconnected-(J5-Pin_2-Pad2)*
X98000000Y-116980000D03*
G04 #@! TO.P,J5,3,Pin_3_3*
G04 #@! TO.N,/SENS_BAT*
X98000000Y-119520000D03*
G04 #@! TO.P,J5,4,Pin_4_4*
G04 #@! TO.N,/VRX*
X98000000Y-122060000D03*
G04 #@! TO.P,J5,5,Pin_5_5*
G04 #@! TO.N,/VRY*
X98000000Y-124600000D03*
G04 #@! TO.P,J5,6,Pin_6_6*
G04 #@! TO.N,/SW*
X98000000Y-127140000D03*
G04 #@! TO.P,J5,7,Pin_7_7*
G04 #@! TO.N,/BTN_B*
X98000000Y-129680000D03*
G04 #@! TO.P,J5,8,Pin_8_8*
G04 #@! TO.N,/SD_CS*
X98000000Y-132220000D03*
G04 #@! TO.P,J5,9,Pin_9_9*
G04 #@! TO.N,/TOUCH_IRQ*
X98000000Y-134760000D03*
G04 #@! TO.P,J5,10,Pin_10_10*
G04 #@! TO.N,unconnected-(J5-Pin_10-Pad10)*
X98000000Y-137300000D03*
G04 #@! TO.P,J5,11,Pin_11_11*
G04 #@! TO.N,/BTN_BACK*
X98000000Y-139840000D03*
G04 #@! TO.P,J5,12,Pin_12_12*
G04 #@! TO.N,unconnected-(J5-Pin_12-Pad12)*
X98000000Y-142380000D03*
G04 #@! TO.P,J5,13,Pin_13_13*
G04 #@! TO.N,/BTN_A*
X98000000Y-144920000D03*
G04 #@! TO.P,J5,14,Pin_14_14*
G04 #@! TO.N,GND*
X98000000Y-147460000D03*
G04 #@! TO.P,J5,15,Pin_15_15*
G04 #@! TO.N,unconnected-(J5-Pin_15-Pad15)*
X98000000Y-150000000D03*
G04 #@! TD*
D18*
G04 #@! TO.P,C1,1*
G04 #@! TO.N,+3V3*
X144500000Y-124500000D03*
G04 #@! TO.P,C1,2*
G04 #@! TO.N,GND*
X142000000Y-124500000D03*
G04 #@! TD*
D19*
G04 #@! TO.P,CP1,1*
G04 #@! TO.N,+3V3*
X144500000Y-116000000D03*
D18*
G04 #@! TO.P,CP1,2*
G04 #@! TO.N,GND*
X142000000Y-116000000D03*
G04 #@! TD*
D20*
G04 #@! TO.P,D1,1,K_1*
G04 #@! TO.N,+3V3*
X150910000Y-138000000D03*
D21*
G04 #@! TO.P,D1,2,A_2*
G04 #@! TO.N,/SYS_VBAT*
X140750000Y-138000000D03*
G04 #@! TD*
D18*
G04 #@! TO.P,R2,1*
G04 #@! TO.N,/SENS_BAT*
X80190000Y-136500000D03*
G04 #@! TO.P,R2,2*
G04 #@! TO.N,GND*
X87810000Y-136500000D03*
G04 #@! TD*
D12*
G04 #@! TO.P,J6,1,Pin_1_1*
G04 #@! TO.N,+3V3*
X123400000Y-150000000D03*
D11*
G04 #@! TO.P,J6,2,Pin_2_2*
G04 #@! TO.N,unconnected-(J6-Pin_2-Pad2)*
X123400000Y-147460000D03*
G04 #@! TO.P,J6,3,Pin_3_3*
G04 #@! TO.N,/DISP_DC*
X123400000Y-144920000D03*
G04 #@! TO.P,J6,4,Pin_4_4*
G04 #@! TO.N,unconnected-(J6-Pin_4-Pad4)*
X123400000Y-142380000D03*
G04 #@! TO.P,J6,5,Pin_5_5*
G04 #@! TO.N,unconnected-(J6-Pin_5-Pad5)*
X123400000Y-139840000D03*
G04 #@! TO.P,J6,6,Pin_6_6*
G04 #@! TO.N,/TOUCH_CS*
X123400000Y-137300000D03*
G04 #@! TO.P,J6,7,Pin_7_7*
G04 #@! TO.N,unconnected-(J6-Pin_7-Pad7)*
X123400000Y-134760000D03*
G04 #@! TO.P,J6,8,Pin_8_8*
G04 #@! TO.N,/DISP_CS*
X123400000Y-132220000D03*
G04 #@! TO.P,J6,9,Pin_9_9*
G04 #@! TO.N,/DISP_SCK*
X123400000Y-129680000D03*
G04 #@! TO.P,J6,10,Pin_10_10*
G04 #@! TO.N,/DISP_MISO*
X123400000Y-127140000D03*
G04 #@! TO.P,J6,11,Pin_11_11*
G04 #@! TO.N,/OLED_SDA*
X123400000Y-124600000D03*
G04 #@! TO.P,J6,12,Pin_12_12*
G04 #@! TO.N,unconnected-(J6-Pin_12-Pad12)*
X123400000Y-122060000D03*
G04 #@! TO.P,J6,13,Pin_13_13*
G04 #@! TO.N,unconnected-(J6-Pin_13-Pad13)*
X123400000Y-119520000D03*
G04 #@! TO.P,J6,14,Pin_14_14*
G04 #@! TO.N,/OLED_SCL*
X123400000Y-116980000D03*
G04 #@! TO.P,J6,15,Pin_15_15*
G04 #@! TO.N,/DISP_MOSI*
X123400000Y-114440000D03*
G04 #@! TD*
D22*
G04 #@! TO.P,J1,1,Pin_1_1*
G04 #@! TO.N,/BAT_P*
X186000000Y-141550000D03*
D23*
G04 #@! TO.P,J1,2,Pin_2_2*
G04 #@! TO.N,/BAT_N*
X184000000Y-141550000D03*
G04 #@! TD*
D24*
G04 #@! TO.N,+3V3*
X147000000Y-113500000D03*
G04 #@! TO.N,/SENS_BAT*
X81000000Y-134000000D03*
G04 #@! TD*
G04 #@! TO.N,+3V3*
D25*
X170000000Y-73480000D02*
X170000000Y-68760000D01*
X168000000Y-61320000D02*
X172720000Y-66040000D01*
X172720000Y-76200000D02*
X170000000Y-73480000D01*
X89500000Y-68580000D02*
X89500000Y-95210000D01*
X171320000Y-83820000D02*
X169500000Y-82000000D01*
X170000000Y-68760000D02*
X172720000Y-66040000D01*
X172720000Y-83820000D02*
X171320000Y-83820000D01*
X145270000Y-111270000D02*
X172720000Y-83820000D01*
X89500000Y-95210000D02*
X86750000Y-97960000D01*
X147000000Y-113500000D02*
X145270000Y-111770000D01*
X145270000Y-111770000D02*
X145270000Y-111270000D01*
X159500000Y-34000000D02*
X168000000Y-42500000D01*
X124000000Y-34080000D02*
X89500000Y-68580000D01*
X168000000Y-42500000D02*
X168000000Y-61320000D01*
X124000000Y-34080000D02*
X159420000Y-34080000D01*
X159420000Y-34080000D02*
X159500000Y-34000000D01*
X169500000Y-82000000D02*
X169500000Y-79420000D01*
X169500000Y-79420000D02*
X172720000Y-76200000D01*
G04 #@! TO.N,/DISP_MOSI*
D26*
X172720000Y-71120000D02*
X173870000Y-69970000D01*
X173870000Y-57030000D02*
X172720000Y-55880000D01*
X173870000Y-69970000D02*
X173870000Y-57030000D01*
G04 #@! TO.N,/SD_CS*
X97763654Y-118370000D02*
X98476346Y-118370000D01*
X99150000Y-131070000D02*
X98000000Y-132220000D01*
X98476346Y-118370000D02*
X99150000Y-119043654D01*
X99150000Y-119043654D02*
X99150000Y-131000000D01*
X95500000Y-75950000D02*
X95500000Y-116106346D01*
X99150000Y-131000000D02*
X99150000Y-131070000D01*
X95500000Y-116106346D02*
X97763654Y-118370000D01*
X100330000Y-71120000D02*
X95500000Y-75950000D01*
X99150000Y-131000000D02*
X99150000Y-131100000D01*
G04 #@! TO.N,/SENS_BAT*
X89024265Y-128495735D02*
X98000000Y-119520000D01*
X81000000Y-134000000D02*
X86504265Y-128495735D01*
X86504265Y-128495735D02*
X89024265Y-128495735D01*
G04 #@! TD*
G04 #@! TA.AperFunction,Conductor*
G04 #@! TO.N,GND*
G36*
X171296378Y-78787501D02*
G01*
X171352312Y-78829373D01*
X171375518Y-78884285D01*
X171384593Y-78941584D01*
X171402754Y-79056243D01*
X171405439Y-79064508D01*
X171468444Y-79258414D01*
X171564951Y-79447820D01*
X171689890Y-79619786D01*
X171840213Y-79770109D01*
X172012179Y-79895048D01*
X172012181Y-79895049D01*
X172012184Y-79895051D01*
X172021493Y-79899794D01*
X172072290Y-79947766D01*
X172089087Y-80015587D01*
X172066552Y-80081722D01*
X172021505Y-80120760D01*
X172012446Y-80125376D01*
X172012440Y-80125380D01*
X171958282Y-80164727D01*
X171958282Y-80164728D01*
X172590591Y-80797037D01*
X172527007Y-80814075D01*
X172412993Y-80879901D01*
X172319901Y-80972993D01*
X172254075Y-81087007D01*
X172237037Y-81150591D01*
X171604728Y-80518282D01*
X171604727Y-80518282D01*
X171565380Y-80572439D01*
X171468904Y-80761782D01*
X171403242Y-80963869D01*
X171403242Y-80963872D01*
X171370000Y-81173753D01*
X171370000Y-81386246D01*
X171403242Y-81596127D01*
X171403242Y-81596130D01*
X171468904Y-81798217D01*
X171565375Y-81987550D01*
X171604728Y-82041716D01*
X172237036Y-81409407D01*
X172254075Y-81472993D01*
X172319901Y-81587007D01*
X172412993Y-81680099D01*
X172527007Y-81745925D01*
X172590590Y-81762962D01*
X171920370Y-82433181D01*
X171859047Y-82466666D01*
X171832698Y-82469500D01*
X171822134Y-82469500D01*
X171822123Y-82469501D01*
X171762516Y-82475908D01*
X171627671Y-82526202D01*
X171627664Y-82526206D01*
X171512455Y-82612452D01*
X171453238Y-82691555D01*
X171397304Y-82733425D01*
X171327612Y-82738409D01*
X171266291Y-82704924D01*
X170780284Y-82218917D01*
X170286819Y-81725451D01*
X170253334Y-81664128D01*
X170250500Y-81637770D01*
X170250500Y-79782229D01*
X170270185Y-79715190D01*
X170286819Y-79694548D01*
X170722955Y-79258412D01*
X171165366Y-78816000D01*
X171226687Y-78782517D01*
X171296378Y-78787501D01*
G37*
G04 #@! TD.AperFunction*
G04 #@! TA.AperFunction,Conductor*
G36*
X207942539Y-20620185D02*
G01*
X207988294Y-20672989D01*
X207999500Y-20724500D01*
X207999500Y-154315500D01*
X207979815Y-154382539D01*
X207927011Y-154428294D01*
X207875500Y-154439500D01*
X173699500Y-154439500D01*
X173632461Y-154419815D01*
X173586706Y-154367011D01*
X173575500Y-154315500D01*
X173575499Y-151557129D01*
X173575498Y-151557123D01*
X173575497Y-151557116D01*
X173569091Y-151497517D01*
X173518796Y-151362669D01*
X173518795Y-151362668D01*
X173518793Y-151362664D01*
X173432547Y-151247455D01*
X173432544Y-151247452D01*
X173317335Y-151161206D01*
X173317328Y-151161202D01*
X173182482Y-151110908D01*
X173182483Y-151110908D01*
X173122883Y-151104501D01*
X173122881Y-151104500D01*
X173122873Y-151104500D01*
X173122864Y-151104500D01*
X170237129Y-151104500D01*
X170237123Y-151104501D01*
X170177516Y-151110908D01*
X170042671Y-151161202D01*
X170042664Y-151161206D01*
X169927455Y-151247452D01*
X169927452Y-151247455D01*
X169841206Y-151362664D01*
X169841202Y-151362671D01*
X169790908Y-151497517D01*
X169784501Y-151557116D01*
X169784501Y-151557123D01*
X169784500Y-151557135D01*
X169784501Y-154315500D01*
X169764816Y-154382539D01*
X169712013Y-154428294D01*
X169660501Y-154439500D01*
X159339500Y-154439500D01*
X159272461Y-154419815D01*
X159226706Y-154367011D01*
X159215500Y-154315500D01*
X159215499Y-151557129D01*
X159215498Y-151557123D01*
X159215497Y-151557116D01*
X159209091Y-151497517D01*
X159158796Y-151362669D01*
X159158795Y-151362668D01*
X159158793Y-151362664D01*
X159072547Y-151247455D01*
X159072544Y-151247452D01*
X158957335Y-151161206D01*
X158957328Y-151161202D01*
X158822482Y-151110908D01*
X158822483Y-151110908D01*
X158762883Y-151104501D01*
X158762881Y-151104500D01*
X158762873Y-151104500D01*
X158762864Y-151104500D01*
X155877129Y-151104500D01*
X155877123Y-151104501D01*
X155817516Y-151110908D01*
X155682671Y-151161202D01*
X155682664Y-151161206D01*
X155567455Y-151247452D01*
X155567452Y-151247455D01*
X155481206Y-151362664D01*
X155481202Y-151362671D01*
X155430908Y-151497517D01*
X155424501Y-151557116D01*
X155424501Y-151557123D01*
X155424500Y-151557135D01*
X155424501Y-154315500D01*
X155404816Y-154382539D01*
X155352013Y-154428294D01*
X155300501Y-154439500D01*
X68624500Y-154439500D01*
X68557461Y-154419815D01*
X68511706Y-154367011D01*
X68500500Y-154315500D01*
X68500500Y-144897648D01*
X78889500Y-144897648D01*
X78889500Y-145102351D01*
X78921522Y-145304534D01*
X78984781Y-145499223D01*
X79077715Y-145681613D01*
X79198028Y-145847213D01*
X79342786Y-145991971D01*
X79463281Y-146079514D01*
X79508390Y-146112287D01*
X79624607Y-146171503D01*
X79690776Y-146205218D01*
X79690778Y-146205218D01*
X79690781Y-146205220D01*
X79789347Y-146237246D01*
X79885465Y-146268477D01*
X79986557Y-146284488D01*
X80087648Y-146300500D01*
X80087649Y-146300500D01*
X80292351Y-146300500D01*
X80292352Y-146300500D01*
X80494534Y-146268477D01*
X80689219Y-146205220D01*
X80871610Y-146112287D01*
X80964590Y-146044732D01*
X81037213Y-145991971D01*
X81037215Y-145991968D01*
X81037219Y-145991966D01*
X81181966Y-145847219D01*
X81181968Y-145847215D01*
X81181971Y-145847213D01*
X81234732Y-145774590D01*
X81302287Y-145681610D01*
X81395220Y-145499219D01*
X81458477Y-145304534D01*
X81490500Y-145102352D01*
X81490500Y-144897648D01*
X86509500Y-144897648D01*
X86509500Y-145102351D01*
X86541522Y-145304534D01*
X86604781Y-145499223D01*
X86697715Y-145681613D01*
X86818028Y-145847213D01*
X86962786Y-145991971D01*
X87083281Y-146079514D01*
X87128390Y-146112287D01*
X87244607Y-146171503D01*
X87310776Y-146205218D01*
X87310778Y-146205218D01*
X87310781Y-146205220D01*
X87409347Y-146237246D01*
X87505465Y-146268477D01*
X87606557Y-146284488D01*
X87707648Y-146300500D01*
X87707649Y-146300500D01*
X87912351Y-146300500D01*
X87912352Y-146300500D01*
X88114534Y-146268477D01*
X88309219Y-146205220D01*
X88491610Y-146112287D01*
X88584590Y-146044732D01*
X88657213Y-145991971D01*
X88657215Y-145991968D01*
X88657219Y-145991966D01*
X88801966Y-145847219D01*
X88801968Y-145847215D01*
X88801971Y-145847213D01*
X88854732Y-145774590D01*
X88922287Y-145681610D01*
X89015220Y-145499219D01*
X89078477Y-145304534D01*
X89110500Y-145102352D01*
X89110500Y-144897648D01*
X89078477Y-144695466D01*
X89015220Y-144500781D01*
X89015218Y-144500778D01*
X89015218Y-144500776D01*
X88981503Y-144434607D01*
X88922287Y-144318390D01*
X88914556Y-144307749D01*
X88801971Y-144152786D01*
X88657213Y-144008028D01*
X88491613Y-143887715D01*
X88491612Y-143887714D01*
X88491610Y-143887713D01*
X88434653Y-143858691D01*
X88309223Y-143794781D01*
X88114534Y-143731522D01*
X87939995Y-143703878D01*
X87912352Y-143699500D01*
X87707648Y-143699500D01*
X87683329Y-143703351D01*
X87505465Y-143731522D01*
X87310776Y-143794781D01*
X87128386Y-143887715D01*
X86962786Y-144008028D01*
X86818028Y-144152786D01*
X86697715Y-144318386D01*
X86604781Y-144500776D01*
X86541522Y-144695465D01*
X86509500Y-144897648D01*
X81490500Y-144897648D01*
X81458477Y-144695466D01*
X81395220Y-144500781D01*
X81395218Y-144500778D01*
X81395218Y-144500776D01*
X81361503Y-144434607D01*
X81302287Y-144318390D01*
X81294556Y-144307749D01*
X81181971Y-144152786D01*
X81037213Y-144008028D01*
X80871613Y-143887715D01*
X80871612Y-143887714D01*
X80871610Y-143887713D01*
X80814653Y-143858691D01*
X80689223Y-143794781D01*
X80494534Y-143731522D01*
X80319995Y-143703878D01*
X80292352Y-143699500D01*
X80087648Y-143699500D01*
X80063329Y-143703351D01*
X79885465Y-143731522D01*
X79690776Y-143794781D01*
X79508386Y-143887715D01*
X79342786Y-144008028D01*
X79198028Y-144152786D01*
X79077715Y-144318386D01*
X78984781Y-144500776D01*
X78921522Y-144695465D01*
X78889500Y-144897648D01*
X68500500Y-144897648D01*
X68500500Y-136397648D01*
X78889500Y-136397648D01*
X78889500Y-136602351D01*
X78921522Y-136804534D01*
X78984781Y-136999223D01*
X79036121Y-137099982D01*
X79077585Y-137181359D01*
X79077715Y-137181613D01*
X79198028Y-137347213D01*
X79342786Y-137491971D01*
X79463226Y-137579474D01*
X79508390Y-137612287D01*
X79624607Y-137671503D01*
X79690776Y-137705218D01*
X79690778Y-137705218D01*
X79690781Y-137705220D01*
X79795137Y-137739127D01*
X79885465Y-137768477D01*
X79986557Y-137784488D01*
X80087648Y-137800500D01*
X80087649Y-137800500D01*
X80292351Y-137800500D01*
X80292352Y-137800500D01*
X80494534Y-137768477D01*
X80689219Y-137705220D01*
X80871610Y-137612287D01*
X80964590Y-137544732D01*
X81037213Y-137491971D01*
X81037215Y-137491968D01*
X81037219Y-137491966D01*
X81181966Y-137347219D01*
X81181968Y-137347215D01*
X81181971Y-137347213D01*
X81234732Y-137274590D01*
X81302287Y-137181610D01*
X81395220Y-136999219D01*
X81458477Y-136804534D01*
X81490500Y-136602352D01*
X81490500Y-136397682D01*
X86510000Y-136397682D01*
X86510000Y-136602317D01*
X86542009Y-136804417D01*
X86605244Y-136999031D01*
X86698141Y-137181350D01*
X86698147Y-137181359D01*
X86730523Y-137225921D01*
X86730524Y-137225922D01*
X87410000Y-136546446D01*
X87410000Y-136552661D01*
X87437259Y-136654394D01*
X87489920Y-136745606D01*
X87564394Y-136820080D01*
X87655606Y-136872741D01*
X87757339Y-136900000D01*
X87763553Y-136900000D01*
X87084076Y-137579474D01*
X87128650Y-137611859D01*
X87310968Y-137704755D01*
X87505582Y-137767990D01*
X87707683Y-137800000D01*
X87912317Y-137800000D01*
X88114417Y-137767990D01*
X88309031Y-137704755D01*
X88491349Y-137611859D01*
X88535921Y-137579474D01*
X87856447Y-136900000D01*
X87862661Y-136900000D01*
X87964394Y-136872741D01*
X88055606Y-136820080D01*
X88130080Y-136745606D01*
X88182741Y-136654394D01*
X88210000Y-136552661D01*
X88210000Y-136546447D01*
X88889474Y-137225921D01*
X88921859Y-137181349D01*
X89014755Y-136999031D01*
X89077990Y-136804417D01*
X89110000Y-136602317D01*
X89110000Y-136397682D01*
X89077990Y-136195582D01*
X89014755Y-136000968D01*
X88921859Y-135818650D01*
X88889474Y-135774077D01*
X88889474Y-135774076D01*
X88210000Y-136453551D01*
X88210000Y-136447339D01*
X88182741Y-136345606D01*
X88130080Y-136254394D01*
X88055606Y-136179920D01*
X87964394Y-136127259D01*
X87862661Y-136100000D01*
X87856446Y-136100000D01*
X88535922Y-135420524D01*
X88535921Y-135420523D01*
X88491359Y-135388147D01*
X88491350Y-135388141D01*
X88309031Y-135295244D01*
X88114417Y-135232009D01*
X87912317Y-135200000D01*
X87707683Y-135200000D01*
X87505582Y-135232009D01*
X87310968Y-135295244D01*
X87128644Y-135388143D01*
X87084077Y-135420523D01*
X87084077Y-135420524D01*
X87763554Y-136100000D01*
X87757339Y-136100000D01*
X87655606Y-136127259D01*
X87564394Y-136179920D01*
X87489920Y-136254394D01*
X87437259Y-136345606D01*
X87410000Y-136447339D01*
X87410000Y-136453553D01*
X86730524Y-135774077D01*
X86730523Y-135774077D01*
X86698143Y-135818644D01*
X86605244Y-136000968D01*
X86542009Y-136195582D01*
X86510000Y-136397682D01*
X81490500Y-136397682D01*
X81490500Y-136397648D01*
X81470265Y-136269890D01*
X81458477Y-136195465D01*
X81398721Y-136011557D01*
X81395220Y-136000781D01*
X81395218Y-136000778D01*
X81395218Y-136000776D01*
X81302419Y-135818650D01*
X81302287Y-135818390D01*
X81270092Y-135774077D01*
X81181971Y-135652786D01*
X81037213Y-135508028D01*
X80871613Y-135387715D01*
X80871612Y-135387714D01*
X80871610Y-135387713D01*
X80814653Y-135358691D01*
X80689223Y-135294781D01*
X80494534Y-135231522D01*
X80319995Y-135203878D01*
X80292352Y-135199500D01*
X80087648Y-135199500D01*
X80063329Y-135203351D01*
X79885465Y-135231522D01*
X79690776Y-135294781D01*
X79508386Y-135387715D01*
X79342786Y-135508028D01*
X79198028Y-135652786D01*
X79077715Y-135818386D01*
X78984781Y-136000776D01*
X78921522Y-136195465D01*
X78889500Y-136397648D01*
X68500500Y-136397648D01*
X68500500Y-133921153D01*
X80199500Y-133921153D01*
X80199500Y-134078846D01*
X80230261Y-134233489D01*
X80230264Y-134233501D01*
X80290602Y-134379172D01*
X80290609Y-134379185D01*
X80378210Y-134510288D01*
X80378213Y-134510292D01*
X80489707Y-134621786D01*
X80489711Y-134621789D01*
X80620814Y-134709390D01*
X80620827Y-134709397D01*
X80766498Y-134769735D01*
X80766503Y-134769737D01*
X80921153Y-134800499D01*
X80921156Y-134800500D01*
X80921158Y-134800500D01*
X81078844Y-134800500D01*
X81078845Y-134800499D01*
X81233497Y-134769737D01*
X81379179Y-134709394D01*
X81510289Y-134621789D01*
X81621789Y-134510289D01*
X81709394Y-134379179D01*
X81769737Y-134233497D01*
X81789113Y-134136085D01*
X81800638Y-134078150D01*
X81833023Y-134016239D01*
X81834518Y-134014716D01*
X86716681Y-129132554D01*
X86778004Y-129099069D01*
X86804362Y-129096235D01*
X88937596Y-129096235D01*
X88937612Y-129096236D01*
X88945208Y-129096236D01*
X89103319Y-129096236D01*
X89103322Y-129096236D01*
X89256050Y-129055312D01*
X89306169Y-129026374D01*
X89392981Y-128976255D01*
X89504785Y-128864451D01*
X89504785Y-128864449D01*
X89514993Y-128854242D01*
X89514995Y-128854239D01*
X96437819Y-121931415D01*
X96499142Y-121897930D01*
X96568834Y-121902914D01*
X96624767Y-121944786D01*
X96649184Y-122010250D01*
X96649500Y-122019096D01*
X96649500Y-122166286D01*
X96682753Y-122376239D01*
X96748444Y-122578414D01*
X96844951Y-122767820D01*
X96969890Y-122939786D01*
X97120213Y-123090109D01*
X97292182Y-123215050D01*
X97300946Y-123219516D01*
X97351742Y-123267491D01*
X97368536Y-123335312D01*
X97345998Y-123401447D01*
X97300946Y-123440484D01*
X97292182Y-123444949D01*
X97120213Y-123569890D01*
X96969890Y-123720213D01*
X96844951Y-123892179D01*
X96748444Y-124081585D01*
X96682753Y-124283760D01*
X96672958Y-124345606D01*
X96649500Y-124493713D01*
X96649500Y-124706287D01*
X96682754Y-124916243D01*
X96736796Y-125082567D01*
X96748444Y-125118414D01*
X96844951Y-125307820D01*
X96969890Y-125479786D01*
X97120213Y-125630109D01*
X97292182Y-125755050D01*
X97300946Y-125759516D01*
X97351742Y-125807491D01*
X97368536Y-125875312D01*
X97345998Y-125941447D01*
X97300946Y-125980484D01*
X97292182Y-125984949D01*
X97120213Y-126109890D01*
X96969890Y-126260213D01*
X96844951Y-126432179D01*
X96748444Y-126621585D01*
X96682753Y-126823760D01*
X96649500Y-127033713D01*
X96649500Y-127246287D01*
X96682754Y-127456243D01*
X96747334Y-127655000D01*
X96748444Y-127658414D01*
X96844951Y-127847820D01*
X96969890Y-128019786D01*
X97120213Y-128170109D01*
X97292182Y-128295050D01*
X97300946Y-128299516D01*
X97351742Y-128347491D01*
X97368536Y-128415312D01*
X97345998Y-128481447D01*
X97300946Y-128520484D01*
X97292182Y-128524949D01*
X97120213Y-128649890D01*
X96969890Y-128800213D01*
X96844951Y-128972179D01*
X96748444Y-129161585D01*
X96682753Y-129363760D01*
X96649500Y-129573713D01*
X96649500Y-129786286D01*
X96682753Y-129996239D01*
X96748444Y-130198414D01*
X96844951Y-130387820D01*
X96969890Y-130559786D01*
X97120213Y-130710109D01*
X97292182Y-130835050D01*
X97300946Y-130839516D01*
X97351742Y-130887491D01*
X97368536Y-130955312D01*
X97345998Y-131021447D01*
X97300946Y-131060484D01*
X97292182Y-131064949D01*
X97120213Y-131189890D01*
X96969890Y-131340213D01*
X96844951Y-131512179D01*
X96748444Y-131701585D01*
X96682753Y-131903760D01*
X96649500Y-132113713D01*
X96649500Y-132326286D01*
X96682753Y-132536239D01*
X96748444Y-132738414D01*
X96844951Y-132927820D01*
X96969890Y-133099786D01*
X97120213Y-133250109D01*
X97292182Y-133375050D01*
X97300946Y-133379516D01*
X97351742Y-133427491D01*
X97368536Y-133495312D01*
X97345998Y-133561447D01*
X97300946Y-133600484D01*
X97292182Y-133604949D01*
X97120213Y-133729890D01*
X96969890Y-133880213D01*
X96844951Y-134052179D01*
X96748444Y-134241585D01*
X96682753Y-134443760D01*
X96654557Y-134621786D01*
X96649500Y-134653713D01*
X96649500Y-134866287D01*
X96682754Y-135076243D01*
X96733207Y-135231522D01*
X96748444Y-135278414D01*
X96844951Y-135467820D01*
X96969890Y-135639786D01*
X97120213Y-135790109D01*
X97292182Y-135915050D01*
X97300946Y-135919516D01*
X97351742Y-135967491D01*
X97368536Y-136035312D01*
X97345998Y-136101447D01*
X97300946Y-136140484D01*
X97292182Y-136144949D01*
X97120213Y-136269890D01*
X96969890Y-136420213D01*
X96844951Y-136592179D01*
X96748444Y-136781585D01*
X96682753Y-136983760D01*
X96649500Y-137193713D01*
X96649500Y-137406286D01*
X96682059Y-137611859D01*
X96682754Y-137616243D01*
X96711513Y-137704755D01*
X96748444Y-137818414D01*
X96844951Y-138007820D01*
X96969890Y-138179786D01*
X97120213Y-138330109D01*
X97292182Y-138455050D01*
X97300946Y-138459516D01*
X97351742Y-138507491D01*
X97368536Y-138575312D01*
X97345998Y-138641447D01*
X97300946Y-138680484D01*
X97292182Y-138684949D01*
X97120213Y-138809890D01*
X96969890Y-138960213D01*
X96844951Y-139132179D01*
X96748444Y-139321585D01*
X96682753Y-139523760D01*
X96676841Y-139561089D01*
X96649500Y-139733713D01*
X96649500Y-139946287D01*
X96682754Y-140156243D01*
X96710029Y-140240187D01*
X96748444Y-140358414D01*
X96844951Y-140547820D01*
X96969890Y-140719786D01*
X97120213Y-140870109D01*
X97292182Y-140995050D01*
X97300946Y-140999516D01*
X97351742Y-141047491D01*
X97368536Y-141115312D01*
X97345998Y-141181447D01*
X97300946Y-141220484D01*
X97292182Y-141224949D01*
X97120213Y-141349890D01*
X96969890Y-141500213D01*
X96844951Y-141672179D01*
X96748444Y-141861585D01*
X96682753Y-142063760D01*
X96657214Y-142225009D01*
X96649500Y-142273713D01*
X96649500Y-142486287D01*
X96658313Y-142541928D01*
X96677712Y-142664414D01*
X96682754Y-142696243D01*
X96731046Y-142844871D01*
X96748444Y-142898414D01*
X96844951Y-143087820D01*
X96969890Y-143259786D01*
X97120213Y-143410109D01*
X97292182Y-143535050D01*
X97300946Y-143539516D01*
X97351742Y-143587491D01*
X97368536Y-143655312D01*
X97345998Y-143721447D01*
X97300946Y-143760484D01*
X97292182Y-143764949D01*
X97120213Y-143889890D01*
X96969890Y-144040213D01*
X96844951Y-144212179D01*
X96748444Y-144401585D01*
X96682753Y-144603760D01*
X96649500Y-144813713D01*
X96649500Y-145026287D01*
X96682754Y-145236243D01*
X96704943Y-145304534D01*
X96748444Y-145438414D01*
X96844951Y-145627820D01*
X96969890Y-145799786D01*
X97120213Y-145950109D01*
X97292179Y-146075048D01*
X97292181Y-146075049D01*
X97292184Y-146075051D01*
X97301493Y-146079794D01*
X97352290Y-146127766D01*
X97369087Y-146195587D01*
X97346552Y-146261722D01*
X97301505Y-146300760D01*
X97292446Y-146305376D01*
X97292440Y-146305380D01*
X97238282Y-146344727D01*
X97238282Y-146344728D01*
X97870591Y-146977037D01*
X97807007Y-146994075D01*
X97692993Y-147059901D01*
X97599901Y-147152993D01*
X97534075Y-147267007D01*
X97517037Y-147330591D01*
X96884728Y-146698282D01*
X96884727Y-146698282D01*
X96845380Y-146752439D01*
X96748904Y-146941782D01*
X96683242Y-147143869D01*
X96683242Y-147143872D01*
X96650000Y-147353753D01*
X96650000Y-147566246D01*
X96683242Y-147776127D01*
X96683242Y-147776130D01*
X96748904Y-147978217D01*
X96845375Y-148167550D01*
X96884728Y-148221716D01*
X97517037Y-147589408D01*
X97534075Y-147652993D01*
X97599901Y-147767007D01*
X97692993Y-147860099D01*
X97807007Y-147925925D01*
X97870590Y-147942962D01*
X97238282Y-148575269D01*
X97238282Y-148575270D01*
X97292452Y-148614626D01*
X97292451Y-148614626D01*
X97301495Y-148619234D01*
X97352292Y-148667208D01*
X97369087Y-148735029D01*
X97346550Y-148801164D01*
X97301499Y-148840202D01*
X97292182Y-148844949D01*
X97120213Y-148969890D01*
X96969890Y-149120213D01*
X96844951Y-149292179D01*
X96748444Y-149481585D01*
X96682753Y-149683760D01*
X96649500Y-149893713D01*
X96649500Y-150106286D01*
X96672435Y-150251096D01*
X96682754Y-150316243D01*
X96731693Y-150466862D01*
X96748444Y-150518414D01*
X96844951Y-150707820D01*
X96969890Y-150879786D01*
X97120213Y-151030109D01*
X97292179Y-151155048D01*
X97292181Y-151155049D01*
X97292184Y-151155051D01*
X97481588Y-151251557D01*
X97683757Y-151317246D01*
X97893713Y-151350500D01*
X97893714Y-151350500D01*
X98106286Y-151350500D01*
X98106287Y-151350500D01*
X98316243Y-151317246D01*
X98518412Y-151251557D01*
X98707816Y-151155051D01*
X98794138Y-151092335D01*
X98879786Y-151030109D01*
X98879788Y-151030106D01*
X98879792Y-151030104D01*
X99030104Y-150879792D01*
X99030106Y-150879788D01*
X99030109Y-150879786D01*
X99155048Y-150707820D01*
X99155047Y-150707820D01*
X99155051Y-150707816D01*
X99251557Y-150518412D01*
X99317246Y-150316243D01*
X99350500Y-150106287D01*
X99350500Y-149893713D01*
X99317246Y-149683757D01*
X99251557Y-149481588D01*
X99155051Y-149292184D01*
X99155049Y-149292181D01*
X99155048Y-149292179D01*
X99030109Y-149120213D01*
X98879786Y-148969890D01*
X98707817Y-148844949D01*
X98698504Y-148840204D01*
X98647707Y-148792230D01*
X98630912Y-148724409D01*
X98653449Y-148658274D01*
X98698507Y-148619232D01*
X98707555Y-148614622D01*
X98761716Y-148575270D01*
X98761717Y-148575270D01*
X98129408Y-147942962D01*
X98192993Y-147925925D01*
X98307007Y-147860099D01*
X98400099Y-147767007D01*
X98465925Y-147652993D01*
X98482962Y-147589409D01*
X99115270Y-148221717D01*
X99115270Y-148221716D01*
X99154622Y-148167554D01*
X99251095Y-147978217D01*
X99316757Y-147776130D01*
X99316757Y-147776127D01*
X99350000Y-147566246D01*
X99350000Y-147353753D01*
X99316757Y-147143872D01*
X99316757Y-147143869D01*
X99251095Y-146941782D01*
X99154624Y-146752449D01*
X99115270Y-146698282D01*
X99115269Y-146698282D01*
X98482962Y-147330590D01*
X98465925Y-147267007D01*
X98400099Y-147152993D01*
X98307007Y-147059901D01*
X98192993Y-146994075D01*
X98129409Y-146977037D01*
X98761716Y-146344728D01*
X98707547Y-146305373D01*
X98707547Y-146305372D01*
X98698500Y-146300763D01*
X98647706Y-146252788D01*
X98630912Y-146184966D01*
X98653451Y-146118832D01*
X98698508Y-146079793D01*
X98707816Y-146075051D01*
X98822167Y-145991971D01*
X98879786Y-145950109D01*
X98879788Y-145950106D01*
X98879792Y-145950104D01*
X99030104Y-145799792D01*
X99030106Y-145799788D01*
X99030109Y-145799786D01*
X99155048Y-145627820D01*
X99155047Y-145627820D01*
X99155051Y-145627816D01*
X99251557Y-145438412D01*
X99317246Y-145236243D01*
X99350500Y-145026287D01*
X99350500Y-144813713D01*
X99317246Y-144603757D01*
X99251557Y-144401588D01*
X99155051Y-144212184D01*
X99155049Y-144212181D01*
X99155048Y-144212179D01*
X99030109Y-144040213D01*
X98879786Y-143889890D01*
X98707820Y-143764951D01*
X98707115Y-143764591D01*
X98699054Y-143760485D01*
X98648259Y-143712512D01*
X98631463Y-143644692D01*
X98653999Y-143578556D01*
X98699054Y-143539515D01*
X98707816Y-143535051D01*
X98729789Y-143519086D01*
X98879786Y-143410109D01*
X98879788Y-143410106D01*
X98879792Y-143410104D01*
X99030104Y-143259792D01*
X99030106Y-143259788D01*
X99030109Y-143259786D01*
X99155048Y-143087820D01*
X99155047Y-143087820D01*
X99155051Y-143087816D01*
X99251557Y-142898412D01*
X99317246Y-142696243D01*
X99350500Y-142486287D01*
X99350500Y-142273713D01*
X99317246Y-142063757D01*
X99251557Y-141861588D01*
X99155051Y-141672184D01*
X99155049Y-141672181D01*
X99155048Y-141672179D01*
X99030109Y-141500213D01*
X98879786Y-141349890D01*
X98707820Y-141224951D01*
X98707115Y-141224591D01*
X98699054Y-141220485D01*
X98648259Y-141172512D01*
X98631463Y-141104692D01*
X98653999Y-141038556D01*
X98699054Y-140999515D01*
X98707816Y-140995051D01*
X98729789Y-140979086D01*
X98879786Y-140870109D01*
X98879788Y-140870106D01*
X98879792Y-140870104D01*
X99030104Y-140719792D01*
X99030106Y-140719788D01*
X99030109Y-140719786D01*
X99155048Y-140547820D01*
X99155047Y-140547820D01*
X99155051Y-140547816D01*
X99251557Y-140358412D01*
X99317246Y-140156243D01*
X99350500Y-139946287D01*
X99350500Y-139733713D01*
X99317246Y-139523757D01*
X99251557Y-139321588D01*
X99155051Y-139132184D01*
X99155049Y-139132181D01*
X99155048Y-139132179D01*
X99030109Y-138960213D01*
X98879786Y-138809890D01*
X98707820Y-138684951D01*
X98707115Y-138684591D01*
X98699054Y-138680485D01*
X98648259Y-138632512D01*
X98631463Y-138564692D01*
X98653999Y-138498556D01*
X98699054Y-138459515D01*
X98707816Y-138455051D01*
X98729789Y-138439086D01*
X98879786Y-138330109D01*
X98879788Y-138330106D01*
X98879792Y-138330104D01*
X99030104Y-138179792D01*
X99030106Y-138179788D01*
X99030109Y-138179786D01*
X99155048Y-138007820D01*
X99155047Y-138007820D01*
X99155051Y-138007816D01*
X99251557Y-137818412D01*
X99317246Y-137616243D01*
X99350500Y-137406287D01*
X99350500Y-137193713D01*
X99317246Y-136983757D01*
X99251557Y-136781588D01*
X99155051Y-136592184D01*
X99155049Y-136592181D01*
X99155048Y-136592179D01*
X99030109Y-136420213D01*
X98879786Y-136269890D01*
X98707820Y-136144951D01*
X98707115Y-136144591D01*
X98699054Y-136140485D01*
X98648259Y-136092512D01*
X98631463Y-136024692D01*
X98653999Y-135958556D01*
X98699054Y-135919515D01*
X98707816Y-135915051D01*
X98840510Y-135818644D01*
X98879786Y-135790109D01*
X98879788Y-135790106D01*
X98879792Y-135790104D01*
X99030104Y-135639792D01*
X99030106Y-135639788D01*
X99030109Y-135639786D01*
X99155048Y-135467820D01*
X99155047Y-135467820D01*
X99155051Y-135467816D01*
X99251557Y-135278412D01*
X99317246Y-135076243D01*
X99350500Y-134866287D01*
X99350500Y-134653713D01*
X99317246Y-134443757D01*
X99251557Y-134241588D01*
X99155051Y-134052184D01*
X99155049Y-134052181D01*
X99155048Y-134052179D01*
X99030109Y-133880213D01*
X98879786Y-133729890D01*
X98707820Y-133604951D01*
X98707115Y-133604591D01*
X98699054Y-133600485D01*
X98648259Y-133552512D01*
X98631463Y-133484692D01*
X98653999Y-133418556D01*
X98699054Y-133379515D01*
X98707816Y-133375051D01*
X98729789Y-133359086D01*
X98879786Y-133250109D01*
X98879788Y-133250106D01*
X98879792Y-133250104D01*
X99030104Y-133099792D01*
X99030106Y-133099788D01*
X99030109Y-133099786D01*
X99155048Y-132927820D01*
X99155047Y-132927820D01*
X99155051Y-132927816D01*
X99251557Y-132738412D01*
X99317246Y-132536243D01*
X99350500Y-132326287D01*
X99350500Y-132113713D01*
X99317246Y-131903757D01*
X99303507Y-131861476D01*
X99301511Y-131791637D01*
X99333755Y-131735479D01*
X99436195Y-131633039D01*
X99461874Y-131613337D01*
X99518716Y-131580520D01*
X99630520Y-131468716D01*
X99709577Y-131331784D01*
X99750500Y-131179057D01*
X99750500Y-131159059D01*
X99750501Y-131159046D01*
X99750501Y-130983347D01*
X99750500Y-130983329D01*
X99750500Y-119132714D01*
X99750501Y-119132701D01*
X99750501Y-118964598D01*
X99709661Y-118812184D01*
X99709577Y-118811870D01*
X99709573Y-118811863D01*
X99630524Y-118674944D01*
X99630518Y-118674936D01*
X99320531Y-118364949D01*
X99010418Y-118054837D01*
X98976934Y-117993515D01*
X98981918Y-117923824D01*
X99010419Y-117879476D01*
X99030104Y-117859792D01*
X99030106Y-117859788D01*
X99030109Y-117859786D01*
X99155048Y-117687820D01*
X99155047Y-117687820D01*
X99155051Y-117687816D01*
X99251557Y-117498412D01*
X99317246Y-117296243D01*
X99350500Y-117086287D01*
X99350500Y-117000000D01*
X100000000Y-117000000D01*
X121500000Y-117000000D01*
X121500000Y-114333713D01*
X122049500Y-114333713D01*
X122049500Y-114546286D01*
X122078915Y-114732009D01*
X122082754Y-114756243D01*
X122136132Y-114920524D01*
X122148444Y-114958414D01*
X122244951Y-115147820D01*
X122369890Y-115319786D01*
X122520213Y-115470109D01*
X122692182Y-115595050D01*
X122700946Y-115599516D01*
X122751742Y-115647491D01*
X122768536Y-115715312D01*
X122745998Y-115781447D01*
X122700946Y-115820484D01*
X122692182Y-115824949D01*
X122520213Y-115949890D01*
X122369890Y-116100213D01*
X122244951Y-116272179D01*
X122148444Y-116461585D01*
X122082753Y-116663760D01*
X122049500Y-116873713D01*
X122049500Y-117086286D01*
X122082753Y-117296239D01*
X122148444Y-117498414D01*
X122244951Y-117687820D01*
X122369890Y-117859786D01*
X122520213Y-118010109D01*
X122692182Y-118135050D01*
X122700946Y-118139516D01*
X122751742Y-118187491D01*
X122768536Y-118255312D01*
X122745998Y-118321447D01*
X122700946Y-118360484D01*
X122692182Y-118364949D01*
X122520213Y-118489890D01*
X122369890Y-118640213D01*
X122244951Y-118812179D01*
X122148444Y-119001585D01*
X122082753Y-119203760D01*
X122049500Y-119413713D01*
X122049500Y-119626287D01*
X122082754Y-119836243D01*
X122137431Y-120004522D01*
X122148444Y-120038414D01*
X122244951Y-120227820D01*
X122369890Y-120399786D01*
X122520213Y-120550109D01*
X122692182Y-120675050D01*
X122700946Y-120679516D01*
X122751742Y-120727491D01*
X122768536Y-120795312D01*
X122745998Y-120861447D01*
X122700946Y-120900484D01*
X122692182Y-120904949D01*
X122520213Y-121029890D01*
X122369890Y-121180213D01*
X122244951Y-121352179D01*
X122148444Y-121541585D01*
X122082753Y-121743760D01*
X122049500Y-121953713D01*
X122049500Y-122166286D01*
X122082753Y-122376239D01*
X122148444Y-122578414D01*
X122244951Y-122767820D01*
X122369890Y-122939786D01*
X122520213Y-123090109D01*
X122692182Y-123215050D01*
X122700946Y-123219516D01*
X122751742Y-123267491D01*
X122768536Y-123335312D01*
X122745998Y-123401447D01*
X122700946Y-123440484D01*
X122692182Y-123444949D01*
X122520213Y-123569890D01*
X122369890Y-123720213D01*
X122244951Y-123892179D01*
X122148444Y-124081585D01*
X122082753Y-124283760D01*
X122072958Y-124345606D01*
X122049500Y-124493713D01*
X122049500Y-124706287D01*
X122082754Y-124916243D01*
X122136796Y-125082567D01*
X122148444Y-125118414D01*
X122244951Y-125307820D01*
X122369890Y-125479786D01*
X122520213Y-125630109D01*
X122692182Y-125755050D01*
X122700946Y-125759516D01*
X122751742Y-125807491D01*
X122768536Y-125875312D01*
X122745998Y-125941447D01*
X122700946Y-125980484D01*
X122692182Y-125984949D01*
X122520213Y-126109890D01*
X122369890Y-126260213D01*
X122244951Y-126432179D01*
X122148444Y-126621585D01*
X122082753Y-126823760D01*
X122049500Y-127033713D01*
X122049500Y-127246287D01*
X122082754Y-127456243D01*
X122147334Y-127655000D01*
X122148444Y-127658414D01*
X122244951Y-127847820D01*
X122369890Y-128019786D01*
X122520213Y-128170109D01*
X122692182Y-128295050D01*
X122700946Y-128299516D01*
X122751742Y-128347491D01*
X122768536Y-128415312D01*
X122745998Y-128481447D01*
X122700946Y-128520484D01*
X122692182Y-128524949D01*
X122520213Y-128649890D01*
X122369890Y-128800213D01*
X122244951Y-128972179D01*
X122148444Y-129161585D01*
X122082753Y-129363760D01*
X122049500Y-129573713D01*
X122049500Y-129786286D01*
X122082753Y-129996239D01*
X122148444Y-130198414D01*
X122244951Y-130387820D01*
X122369890Y-130559786D01*
X122520213Y-130710109D01*
X122692182Y-130835050D01*
X122700946Y-130839516D01*
X122751742Y-130887491D01*
X122768536Y-130955312D01*
X122745998Y-131021447D01*
X122700946Y-131060484D01*
X122692182Y-131064949D01*
X122520213Y-131189890D01*
X122369890Y-131340213D01*
X122244951Y-131512179D01*
X122148444Y-131701585D01*
X122082753Y-131903760D01*
X122049500Y-132113713D01*
X122049500Y-132326286D01*
X122082753Y-132536239D01*
X122148444Y-132738414D01*
X122244951Y-132927820D01*
X122369890Y-133099786D01*
X122520213Y-133250109D01*
X122692182Y-133375050D01*
X122700946Y-133379516D01*
X122751742Y-133427491D01*
X122768536Y-133495312D01*
X122745998Y-133561447D01*
X122700946Y-133600484D01*
X122692182Y-133604949D01*
X122520213Y-133729890D01*
X122369890Y-133880213D01*
X122244951Y-134052179D01*
X122148444Y-134241585D01*
X122082753Y-134443760D01*
X122054557Y-134621786D01*
X122049500Y-134653713D01*
X122049500Y-134866287D01*
X122082754Y-135076243D01*
X122133207Y-135231522D01*
X122148444Y-135278414D01*
X122244951Y-135467820D01*
X122369890Y-135639786D01*
X122520213Y-135790109D01*
X122692182Y-135915050D01*
X122700946Y-135919516D01*
X122751742Y-135967491D01*
X122768536Y-136035312D01*
X122745998Y-136101447D01*
X122700946Y-136140484D01*
X122692182Y-136144949D01*
X122520213Y-136269890D01*
X122369890Y-136420213D01*
X122244951Y-136592179D01*
X122148444Y-136781585D01*
X122082753Y-136983760D01*
X122049500Y-137193713D01*
X122049500Y-137406286D01*
X122082059Y-137611859D01*
X122082754Y-137616243D01*
X122111513Y-137704755D01*
X122148444Y-137818414D01*
X122244951Y-138007820D01*
X122369890Y-138179786D01*
X122520213Y-138330109D01*
X122692182Y-138455050D01*
X122700946Y-138459516D01*
X122751742Y-138507491D01*
X122768536Y-138575312D01*
X122745998Y-138641447D01*
X122700946Y-138680484D01*
X122692182Y-138684949D01*
X122520213Y-138809890D01*
X122369890Y-138960213D01*
X122244951Y-139132179D01*
X122148444Y-139321585D01*
X122082753Y-139523760D01*
X122076841Y-139561089D01*
X122049500Y-139733713D01*
X122049500Y-139946287D01*
X122082754Y-140156243D01*
X122110029Y-140240187D01*
X122148444Y-140358414D01*
X122244951Y-140547820D01*
X122369890Y-140719786D01*
X122520213Y-140870109D01*
X122692182Y-140995050D01*
X122700946Y-140999516D01*
X122751742Y-141047491D01*
X122768536Y-141115312D01*
X122745998Y-141181447D01*
X122700946Y-141220484D01*
X122692182Y-141224949D01*
X122520213Y-141349890D01*
X122369890Y-141500213D01*
X122244951Y-141672179D01*
X122148444Y-141861585D01*
X122082753Y-142063760D01*
X122057214Y-142225009D01*
X122049500Y-142273713D01*
X122049500Y-142486287D01*
X122058313Y-142541928D01*
X122077712Y-142664414D01*
X122082754Y-142696243D01*
X122131046Y-142844871D01*
X122148444Y-142898414D01*
X122244951Y-143087820D01*
X122369890Y-143259786D01*
X122520213Y-143410109D01*
X122692182Y-143535050D01*
X122700946Y-143539516D01*
X122751742Y-143587491D01*
X122768536Y-143655312D01*
X122745998Y-143721447D01*
X122700946Y-143760484D01*
X122692182Y-143764949D01*
X122520213Y-143889890D01*
X122369890Y-144040213D01*
X122244951Y-144212179D01*
X122148444Y-144401585D01*
X122082753Y-144603760D01*
X122049500Y-144813713D01*
X122049500Y-145026287D01*
X122082754Y-145236243D01*
X122104943Y-145304534D01*
X122148444Y-145438414D01*
X122244951Y-145627820D01*
X122369890Y-145799786D01*
X122520213Y-145950109D01*
X122692182Y-146075050D01*
X122700946Y-146079516D01*
X122751742Y-146127491D01*
X122768536Y-146195312D01*
X122745998Y-146261447D01*
X122700946Y-146300484D01*
X122692182Y-146304949D01*
X122520213Y-146429890D01*
X122369890Y-146580213D01*
X122244951Y-146752179D01*
X122148444Y-146941585D01*
X122082753Y-147143760D01*
X122049500Y-147353713D01*
X122049500Y-147566286D01*
X122082735Y-147776127D01*
X122082754Y-147776243D01*
X122147404Y-147975215D01*
X122148444Y-147978414D01*
X122244951Y-148167820D01*
X122369890Y-148339786D01*
X122483430Y-148453326D01*
X122516915Y-148514649D01*
X122511931Y-148584341D01*
X122470059Y-148640274D01*
X122439083Y-148657189D01*
X122307669Y-148706203D01*
X122307664Y-148706206D01*
X122192455Y-148792452D01*
X122192452Y-148792455D01*
X122106206Y-148907664D01*
X122106202Y-148907671D01*
X122055908Y-149042517D01*
X122049501Y-149102116D01*
X122049501Y-149102123D01*
X122049500Y-149102135D01*
X122049500Y-150897870D01*
X122049501Y-150897876D01*
X122055908Y-150957483D01*
X122106202Y-151092328D01*
X122106206Y-151092335D01*
X122192452Y-151207544D01*
X122192455Y-151207547D01*
X122307664Y-151293793D01*
X122307671Y-151293797D01*
X122442517Y-151344091D01*
X122442516Y-151344091D01*
X122449444Y-151344835D01*
X122502127Y-151350500D01*
X124297872Y-151350499D01*
X124357483Y-151344091D01*
X124492331Y-151293796D01*
X124607546Y-151207546D01*
X124693796Y-151092331D01*
X124744091Y-150957483D01*
X124750500Y-150897873D01*
X124750499Y-149102128D01*
X124744091Y-149042517D01*
X124693796Y-148907669D01*
X124693795Y-148907668D01*
X124693793Y-148907664D01*
X124607547Y-148792455D01*
X124607544Y-148792452D01*
X124492335Y-148706206D01*
X124492328Y-148706202D01*
X124360917Y-148657189D01*
X124304983Y-148615318D01*
X124280566Y-148549853D01*
X124295418Y-148481580D01*
X124316563Y-148453332D01*
X124430104Y-148339792D01*
X124514204Y-148224038D01*
X139299500Y-148224038D01*
X139299500Y-149775961D01*
X139338910Y-150024785D01*
X139416760Y-150264383D01*
X139448999Y-150327654D01*
X139513286Y-150453825D01*
X139531132Y-150488848D01*
X139679201Y-150692649D01*
X139679205Y-150692654D01*
X139857345Y-150870794D01*
X139857350Y-150870798D01*
X139894630Y-150897883D01*
X140061155Y-151018870D01*
X140204184Y-151091747D01*
X140285616Y-151133239D01*
X140285618Y-151133239D01*
X140285621Y-151133241D01*
X140525215Y-151211090D01*
X140774038Y-151250500D01*
X140774039Y-151250500D01*
X141025961Y-151250500D01*
X141025962Y-151250500D01*
X141274785Y-151211090D01*
X141514379Y-151133241D01*
X141738845Y-151018870D01*
X141942656Y-150870793D01*
X142120793Y-150692656D01*
X142184298Y-150605247D01*
X142239628Y-150562581D01*
X142309241Y-150556602D01*
X142340912Y-150567647D01*
X142344593Y-150569522D01*
X142344595Y-150569524D01*
X142414708Y-150605248D01*
X142519970Y-150658882D01*
X142519972Y-150658882D01*
X142519975Y-150658884D01*
X142620317Y-150691487D01*
X142707173Y-150719709D01*
X142901578Y-150750500D01*
X142901583Y-150750500D01*
X143098422Y-150750500D01*
X143292826Y-150719709D01*
X143329416Y-150707820D01*
X143480025Y-150658884D01*
X143655405Y-150569524D01*
X143814646Y-150453828D01*
X143912319Y-150356155D01*
X143973642Y-150322670D01*
X144043334Y-150327654D01*
X144087681Y-150356155D01*
X144185354Y-150453828D01*
X144344595Y-150569524D01*
X144414708Y-150605248D01*
X144519970Y-150658882D01*
X144519972Y-150658882D01*
X144519975Y-150658884D01*
X144620317Y-150691487D01*
X144707173Y-150719709D01*
X144901578Y-150750500D01*
X144901583Y-150750500D01*
X145098422Y-150750500D01*
X145292826Y-150719709D01*
X145329416Y-150707820D01*
X145480025Y-150658884D01*
X145655405Y-150569524D01*
X145691614Y-150543215D01*
X145757417Y-150519736D01*
X145825471Y-150535560D01*
X145863763Y-150569220D01*
X145892454Y-150607546D01*
X145892455Y-150607546D01*
X145892456Y-150607548D01*
X146007664Y-150693793D01*
X146007671Y-150693797D01*
X146142517Y-150744091D01*
X146142516Y-150744091D01*
X146149444Y-150744835D01*
X146202127Y-150750500D01*
X147797872Y-150750499D01*
X147857483Y-150744091D01*
X147857486Y-150744089D01*
X147864554Y-150743330D01*
X147933314Y-150755736D01*
X147965490Y-150778939D01*
X148057345Y-150870794D01*
X148057350Y-150870798D01*
X148094630Y-150897883D01*
X148261155Y-151018870D01*
X148404184Y-151091747D01*
X148485616Y-151133239D01*
X148485618Y-151133239D01*
X148485621Y-151133241D01*
X148725215Y-151211090D01*
X148974038Y-151250500D01*
X148974039Y-151250500D01*
X149225961Y-151250500D01*
X149225962Y-151250500D01*
X149474785Y-151211090D01*
X149714379Y-151133241D01*
X149938845Y-151018870D01*
X150142656Y-150870793D01*
X150320793Y-150692656D01*
X150468870Y-150488845D01*
X150583241Y-150264379D01*
X150661090Y-150024785D01*
X150700500Y-149775962D01*
X150700500Y-148224038D01*
X150661090Y-147975215D01*
X150583241Y-147735621D01*
X150583239Y-147735618D01*
X150583239Y-147735616D01*
X150496961Y-147566287D01*
X150468870Y-147511155D01*
X150420986Y-147445248D01*
X150320798Y-147307350D01*
X150320794Y-147307345D01*
X150142654Y-147129205D01*
X150142649Y-147129201D01*
X149938848Y-146981132D01*
X149938847Y-146981131D01*
X149938845Y-146981130D01*
X149861239Y-146941588D01*
X149714383Y-146866760D01*
X149474785Y-146788910D01*
X149225962Y-146749500D01*
X148974038Y-146749500D01*
X148849626Y-146769205D01*
X148725214Y-146788910D01*
X148485616Y-146866760D01*
X148261151Y-146981132D01*
X148057350Y-147129200D01*
X147965487Y-147221062D01*
X147904163Y-147254546D01*
X147864553Y-147256669D01*
X147855522Y-147255698D01*
X147797873Y-147249500D01*
X147797865Y-147249500D01*
X146202129Y-147249500D01*
X146202123Y-147249501D01*
X146142516Y-147255908D01*
X146007671Y-147306202D01*
X146007664Y-147306206D01*
X145892455Y-147392452D01*
X145863765Y-147430777D01*
X145807830Y-147472648D01*
X145738139Y-147477631D01*
X145691613Y-147456783D01*
X145655405Y-147430476D01*
X145480029Y-147341117D01*
X145292826Y-147280290D01*
X145098422Y-147249500D01*
X145098417Y-147249500D01*
X144901583Y-147249500D01*
X144901578Y-147249500D01*
X144707173Y-147280290D01*
X144519970Y-147341117D01*
X144344594Y-147430476D01*
X144279692Y-147477631D01*
X144185354Y-147546172D01*
X144185352Y-147546174D01*
X144185351Y-147546174D01*
X144087681Y-147643845D01*
X144026358Y-147677330D01*
X143956666Y-147672346D01*
X143912319Y-147643845D01*
X143814648Y-147546174D01*
X143814646Y-147546172D01*
X143655405Y-147430476D01*
X143632825Y-147418971D01*
X143480029Y-147341117D01*
X143292826Y-147280290D01*
X143098422Y-147249500D01*
X143098417Y-147249500D01*
X142901583Y-147249500D01*
X142901578Y-147249500D01*
X142707173Y-147280290D01*
X142519967Y-147341118D01*
X142340911Y-147432352D01*
X142272242Y-147445248D01*
X142207502Y-147418971D01*
X142184299Y-147394752D01*
X142120798Y-147307349D01*
X141942654Y-147129205D01*
X141942649Y-147129201D01*
X141738848Y-146981132D01*
X141738847Y-146981131D01*
X141738845Y-146981130D01*
X141661239Y-146941588D01*
X141514383Y-146866760D01*
X141274785Y-146788910D01*
X141025962Y-146749500D01*
X140774038Y-146749500D01*
X140649626Y-146769205D01*
X140525214Y-146788910D01*
X140285616Y-146866760D01*
X140061151Y-146981132D01*
X139857350Y-147129201D01*
X139857345Y-147129205D01*
X139679205Y-147307345D01*
X139679201Y-147307350D01*
X139531132Y-147511151D01*
X139416760Y-147735616D01*
X139338910Y-147975214D01*
X139299500Y-148224038D01*
X124514204Y-148224038D01*
X124555051Y-148167816D01*
X124651557Y-147978412D01*
X124717246Y-147776243D01*
X124750500Y-147566287D01*
X124750500Y-147353713D01*
X124717246Y-147143757D01*
X124651557Y-146941588D01*
X124555051Y-146752184D01*
X124555049Y-146752181D01*
X124555048Y-146752179D01*
X124430109Y-146580213D01*
X124279786Y-146429890D01*
X124107820Y-146304951D01*
X124099600Y-146300763D01*
X124099054Y-146300485D01*
X124048259Y-146252512D01*
X124031463Y-146184692D01*
X124053999Y-146118556D01*
X124099054Y-146079515D01*
X124107816Y-146075051D01*
X124222167Y-145991971D01*
X124279786Y-145950109D01*
X124279788Y-145950106D01*
X124279792Y-145950104D01*
X124430104Y-145799792D01*
X124430106Y-145799788D01*
X124430109Y-145799786D01*
X124555048Y-145627820D01*
X124555047Y-145627820D01*
X124555051Y-145627816D01*
X124651557Y-145438412D01*
X124717246Y-145236243D01*
X124750500Y-145026287D01*
X124750500Y-144813713D01*
X124717246Y-144603757D01*
X124651557Y-144401588D01*
X124555051Y-144212184D01*
X124555049Y-144212181D01*
X124555048Y-144212179D01*
X124430109Y-144040213D01*
X124279786Y-143889890D01*
X124107820Y-143764951D01*
X124107115Y-143764591D01*
X124099054Y-143760485D01*
X124048259Y-143712512D01*
X124031463Y-143644692D01*
X124053999Y-143578556D01*
X124099054Y-143539515D01*
X124107816Y-143535051D01*
X124129789Y-143519086D01*
X124279786Y-143410109D01*
X124279788Y-143410106D01*
X124279792Y-143410104D01*
X124430104Y-143259792D01*
X124430106Y-143259788D01*
X124430109Y-143259786D01*
X124555048Y-143087820D01*
X124555047Y-143087820D01*
X124555051Y-143087816D01*
X124651557Y-142898412D01*
X124717246Y-142696243D01*
X124750500Y-142486287D01*
X124750500Y-142273713D01*
X124717246Y-142063757D01*
X124651557Y-141861588D01*
X124555051Y-141672184D01*
X124555049Y-141672181D01*
X124555048Y-141672179D01*
X124430109Y-141500213D01*
X124279792Y-141349896D01*
X124279784Y-141349890D01*
X124107816Y-141224949D01*
X124091671Y-141216723D01*
X124084862Y-141212018D01*
X124067879Y-141191041D01*
X124065071Y-141188389D01*
X182899500Y-141188389D01*
X182899500Y-141911610D01*
X182923597Y-142063757D01*
X182926598Y-142082701D01*
X182980127Y-142247445D01*
X183058768Y-142401788D01*
X183160586Y-142541928D01*
X183283072Y-142664414D01*
X183423212Y-142766232D01*
X183577555Y-142844873D01*
X183742299Y-142898402D01*
X183913389Y-142925500D01*
X183913390Y-142925500D01*
X184086610Y-142925500D01*
X184086611Y-142925500D01*
X184257701Y-142898402D01*
X184422445Y-142844873D01*
X184576788Y-142766232D01*
X184716928Y-142664414D01*
X184824472Y-142556869D01*
X184885791Y-142523387D01*
X184955483Y-142528371D01*
X185011417Y-142570242D01*
X185017688Y-142579456D01*
X185057285Y-142643652D01*
X185057288Y-142643656D01*
X185181344Y-142767712D01*
X185330666Y-142859814D01*
X185497203Y-142914999D01*
X185599991Y-142925500D01*
X186400008Y-142925499D01*
X186400016Y-142925498D01*
X186400019Y-142925498D01*
X186456302Y-142919748D01*
X186502797Y-142914999D01*
X186669334Y-142859814D01*
X186818656Y-142767712D01*
X186942712Y-142643656D01*
X187034814Y-142494334D01*
X187089999Y-142327797D01*
X187100500Y-142225009D01*
X187100499Y-140874992D01*
X187089999Y-140772203D01*
X187034814Y-140605666D01*
X186942712Y-140456344D01*
X186818656Y-140332288D01*
X186693559Y-140255128D01*
X186669336Y-140240187D01*
X186669331Y-140240185D01*
X186667862Y-140239698D01*
X186502797Y-140185001D01*
X186502795Y-140185000D01*
X186400010Y-140174500D01*
X185599998Y-140174500D01*
X185599980Y-140174501D01*
X185497203Y-140185000D01*
X185497200Y-140185001D01*
X185330668Y-140240185D01*
X185330663Y-140240187D01*
X185181342Y-140332289D01*
X185057287Y-140456344D01*
X185017688Y-140520544D01*
X184965739Y-140567268D01*
X184896777Y-140578489D01*
X184832695Y-140550645D01*
X184824469Y-140543127D01*
X184716930Y-140435588D01*
X184716928Y-140435586D01*
X184576788Y-140333768D01*
X184422445Y-140255127D01*
X184257701Y-140201598D01*
X184257699Y-140201597D01*
X184257698Y-140201597D01*
X184126271Y-140180781D01*
X184086611Y-140174500D01*
X183913389Y-140174500D01*
X183873728Y-140180781D01*
X183742302Y-140201597D01*
X183577552Y-140255128D01*
X183423211Y-140333768D01*
X183343256Y-140391859D01*
X183283072Y-140435586D01*
X183283070Y-140435588D01*
X183283069Y-140435588D01*
X183160588Y-140558069D01*
X183160588Y-140558070D01*
X183160586Y-140558072D01*
X183153905Y-140567268D01*
X183058768Y-140698211D01*
X182980128Y-140852552D01*
X182926597Y-141017302D01*
X182899500Y-141188389D01*
X124065071Y-141188389D01*
X124048259Y-141172512D01*
X124046223Y-141164294D01*
X124040897Y-141157715D01*
X124037950Y-141130888D01*
X124031463Y-141104692D01*
X124034193Y-141096679D01*
X124033269Y-141088262D01*
X124045294Y-141064099D01*
X124053999Y-141038556D01*
X124061048Y-141032447D01*
X124064401Y-141025712D01*
X124078584Y-141017252D01*
X124099054Y-140999515D01*
X124107816Y-140995051D01*
X124129789Y-140979086D01*
X124279786Y-140870109D01*
X124279788Y-140870106D01*
X124279792Y-140870104D01*
X124430104Y-140719792D01*
X124430106Y-140719788D01*
X124430109Y-140719786D01*
X124555048Y-140547820D01*
X124555047Y-140547820D01*
X124555051Y-140547816D01*
X124651557Y-140358412D01*
X124717246Y-140156243D01*
X124750500Y-139946287D01*
X124750500Y-139733713D01*
X124717246Y-139523757D01*
X124651557Y-139321588D01*
X124555051Y-139132184D01*
X124555049Y-139132181D01*
X124555048Y-139132179D01*
X124430109Y-138960213D01*
X124279786Y-138809890D01*
X124107820Y-138684951D01*
X124107115Y-138684591D01*
X124099054Y-138680485D01*
X124048259Y-138632512D01*
X124031463Y-138564692D01*
X124053999Y-138498556D01*
X124099054Y-138459515D01*
X124107816Y-138455051D01*
X124129789Y-138439086D01*
X124279786Y-138330109D01*
X124279788Y-138330106D01*
X124279792Y-138330104D01*
X124430104Y-138179792D01*
X124430106Y-138179788D01*
X124430109Y-138179786D01*
X124555048Y-138007820D01*
X124555047Y-138007820D01*
X124555051Y-138007816D01*
X124623214Y-137874038D01*
X139149500Y-137874038D01*
X139149500Y-138125961D01*
X139188910Y-138374785D01*
X139266760Y-138614383D01*
X139381132Y-138838848D01*
X139529201Y-139042649D01*
X139529205Y-139042654D01*
X139707345Y-139220794D01*
X139707350Y-139220798D01*
X139846077Y-139321588D01*
X139911155Y-139368870D01*
X140054184Y-139441747D01*
X140135616Y-139483239D01*
X140135618Y-139483239D01*
X140135621Y-139483241D01*
X140375215Y-139561090D01*
X140624038Y-139600500D01*
X140624039Y-139600500D01*
X140875961Y-139600500D01*
X140875962Y-139600500D01*
X141124785Y-139561090D01*
X141364379Y-139483241D01*
X141588845Y-139368870D01*
X141792656Y-139220793D01*
X141970793Y-139042656D01*
X142118870Y-138838845D01*
X142233241Y-138614379D01*
X142311090Y-138374785D01*
X142350500Y-138125962D01*
X142350500Y-137874038D01*
X142311090Y-137625215D01*
X142233241Y-137385621D01*
X142233239Y-137385618D01*
X142233239Y-137385616D01*
X142135459Y-137193713D01*
X142118870Y-137161155D01*
X142074431Y-137099990D01*
X142074425Y-137099982D01*
X149309500Y-137099982D01*
X149309500Y-138900017D01*
X149320000Y-139002796D01*
X149362874Y-139132179D01*
X149375186Y-139169335D01*
X149467288Y-139318656D01*
X149591344Y-139442712D01*
X149740665Y-139534814D01*
X149907202Y-139589999D01*
X150009990Y-139600500D01*
X150009995Y-139600500D01*
X151810005Y-139600500D01*
X151810010Y-139600500D01*
X151912798Y-139589999D01*
X152079335Y-139534814D01*
X152228656Y-139442712D01*
X152352712Y-139318656D01*
X152444814Y-139169335D01*
X152499999Y-139002798D01*
X152510500Y-138900010D01*
X152510500Y-137099990D01*
X152499999Y-136997202D01*
X152444814Y-136830665D01*
X152352712Y-136681344D01*
X152228656Y-136557288D01*
X152079335Y-136465186D01*
X151912798Y-136410001D01*
X151912796Y-136410000D01*
X151810017Y-136399500D01*
X151810010Y-136399500D01*
X150009990Y-136399500D01*
X150009982Y-136399500D01*
X149907203Y-136410000D01*
X149907202Y-136410001D01*
X149824669Y-136437349D01*
X149740667Y-136465185D01*
X149740662Y-136465187D01*
X149591342Y-136557289D01*
X149467289Y-136681342D01*
X149375187Y-136830662D01*
X149375185Y-136830667D01*
X149361243Y-136872741D01*
X149320001Y-136997202D01*
X149320001Y-136997203D01*
X149320000Y-136997203D01*
X149309500Y-137099982D01*
X142074425Y-137099982D01*
X141970798Y-136957350D01*
X141970794Y-136957345D01*
X141792654Y-136779205D01*
X141792649Y-136779201D01*
X141588848Y-136631132D01*
X141588847Y-136631131D01*
X141588845Y-136631130D01*
X141512399Y-136592179D01*
X141364383Y-136516760D01*
X141124785Y-136438910D01*
X140875962Y-136399500D01*
X140624038Y-136399500D01*
X140557738Y-136410001D01*
X140375214Y-136438910D01*
X140135616Y-136516760D01*
X139911151Y-136631132D01*
X139707350Y-136779201D01*
X139707345Y-136779205D01*
X139529205Y-136957345D01*
X139529201Y-136957350D01*
X139381132Y-137161151D01*
X139266760Y-137385616D01*
X139188910Y-137625214D01*
X139149500Y-137874038D01*
X124623214Y-137874038D01*
X124651557Y-137818412D01*
X124717246Y-137616243D01*
X124750500Y-137406287D01*
X124750500Y-137193713D01*
X124717246Y-136983757D01*
X124651557Y-136781588D01*
X124555051Y-136592184D01*
X124555049Y-136592181D01*
X124555048Y-136592179D01*
X124430109Y-136420213D01*
X124279786Y-136269890D01*
X124107820Y-136144951D01*
X124107115Y-136144591D01*
X124099054Y-136140485D01*
X124048259Y-136092512D01*
X124031463Y-136024692D01*
X124053999Y-135958556D01*
X124099054Y-135919515D01*
X124107816Y-135915051D01*
X124240510Y-135818644D01*
X124279786Y-135790109D01*
X124279788Y-135790106D01*
X124279792Y-135790104D01*
X124430104Y-135639792D01*
X124430106Y-135639788D01*
X124430109Y-135639786D01*
X124555048Y-135467820D01*
X124555047Y-135467820D01*
X124555051Y-135467816D01*
X124651557Y-135278412D01*
X124717246Y-135076243D01*
X124750500Y-134866287D01*
X124750500Y-134653713D01*
X124717246Y-134443757D01*
X124651557Y-134241588D01*
X124555051Y-134052184D01*
X124555049Y-134052181D01*
X124555048Y-134052179D01*
X124430109Y-133880213D01*
X124279786Y-133729890D01*
X124107820Y-133604951D01*
X124107115Y-133604591D01*
X124099054Y-133600485D01*
X124048259Y-133552512D01*
X124031463Y-133484692D01*
X124053999Y-133418556D01*
X124099054Y-133379515D01*
X124107816Y-133375051D01*
X124129789Y-133359086D01*
X124279786Y-133250109D01*
X124279788Y-133250106D01*
X124279792Y-133250104D01*
X124430104Y-133099792D01*
X124430106Y-133099788D01*
X124430109Y-133099786D01*
X124555048Y-132927820D01*
X124555047Y-132927820D01*
X124555051Y-132927816D01*
X124651557Y-132738412D01*
X124717246Y-132536243D01*
X124750500Y-132326287D01*
X124750500Y-132113713D01*
X124717246Y-131903757D01*
X124651557Y-131701588D01*
X124555051Y-131512184D01*
X124555049Y-131512181D01*
X124555048Y-131512179D01*
X124430109Y-131340213D01*
X124279786Y-131189890D01*
X124107820Y-131064951D01*
X124107115Y-131064591D01*
X124099054Y-131060485D01*
X124048259Y-131012512D01*
X124031463Y-130944692D01*
X124053999Y-130878556D01*
X124099054Y-130839515D01*
X124107816Y-130835051D01*
X124129789Y-130819086D01*
X124279786Y-130710109D01*
X124279788Y-130710106D01*
X124279792Y-130710104D01*
X124430104Y-130559792D01*
X124430106Y-130559788D01*
X124430109Y-130559786D01*
X124555048Y-130387820D01*
X124555047Y-130387820D01*
X124555051Y-130387816D01*
X124651557Y-130198412D01*
X124717246Y-129996243D01*
X124750500Y-129786287D01*
X124750500Y-129573713D01*
X124717246Y-129363757D01*
X124651557Y-129161588D01*
X124555051Y-128972184D01*
X124555049Y-128972181D01*
X124555048Y-128972179D01*
X124430109Y-128800213D01*
X124279786Y-128649890D01*
X124107820Y-128524951D01*
X124107115Y-128524591D01*
X124099054Y-128520485D01*
X124048259Y-128472512D01*
X124031463Y-128404692D01*
X124053999Y-128338556D01*
X124099054Y-128299515D01*
X124107816Y-128295051D01*
X124129789Y-128279086D01*
X124279786Y-128170109D01*
X124279788Y-128170106D01*
X124279792Y-128170104D01*
X124342741Y-128107155D01*
X155425000Y-128107155D01*
X155425000Y-129300000D01*
X156886988Y-129300000D01*
X156854075Y-129357007D01*
X156820000Y-129484174D01*
X156820000Y-129615826D01*
X156854075Y-129742993D01*
X156886988Y-129800000D01*
X155425000Y-129800000D01*
X155425000Y-130992844D01*
X155431401Y-131052372D01*
X155431403Y-131052379D01*
X155481645Y-131187086D01*
X155481649Y-131187093D01*
X155567809Y-131302187D01*
X155567812Y-131302190D01*
X155682906Y-131388350D01*
X155682913Y-131388354D01*
X155817620Y-131438596D01*
X155817627Y-131438598D01*
X155877155Y-131444999D01*
X155877172Y-131445000D01*
X157070000Y-131445000D01*
X157070000Y-129983012D01*
X157127007Y-130015925D01*
X157254174Y-130050000D01*
X157385826Y-130050000D01*
X157512993Y-130015925D01*
X157570000Y-129983012D01*
X157570000Y-131445000D01*
X158762828Y-131445000D01*
X158762844Y-131444999D01*
X158822372Y-131438598D01*
X158822375Y-131438597D01*
X158860950Y-131424210D01*
X158930642Y-131419225D01*
X158947606Y-131424205D01*
X158987517Y-131439091D01*
X159047127Y-131445500D01*
X161932872Y-131445499D01*
X161992483Y-131439091D01*
X162127331Y-131388796D01*
X162242546Y-131302546D01*
X162328796Y-131187331D01*
X162379091Y-131052483D01*
X162385500Y-130992873D01*
X162385499Y-128107135D01*
X166614500Y-128107135D01*
X166614500Y-130992870D01*
X166614501Y-130992876D01*
X166620908Y-131052483D01*
X166671202Y-131187328D01*
X166671206Y-131187335D01*
X166757452Y-131302544D01*
X166757455Y-131302547D01*
X166872664Y-131388793D01*
X166872671Y-131388797D01*
X167007517Y-131439091D01*
X167007516Y-131439091D01*
X167014444Y-131439835D01*
X167067127Y-131445500D01*
X169952872Y-131445499D01*
X170012483Y-131439091D01*
X170051665Y-131424476D01*
X170121356Y-131419491D01*
X170138329Y-131424475D01*
X170177517Y-131439091D01*
X170237127Y-131445500D01*
X173122872Y-131445499D01*
X173182483Y-131439091D01*
X173317331Y-131388796D01*
X173432546Y-131302546D01*
X173518796Y-131187331D01*
X173569091Y-131052483D01*
X173575500Y-130992873D01*
X173575499Y-128107128D01*
X173569091Y-128047517D01*
X173558750Y-128019792D01*
X173518797Y-127912671D01*
X173518793Y-127912664D01*
X173432547Y-127797455D01*
X173432544Y-127797452D01*
X173317335Y-127711206D01*
X173317328Y-127711202D01*
X173182482Y-127660908D01*
X173182483Y-127660908D01*
X173122883Y-127654501D01*
X173122881Y-127654500D01*
X173122873Y-127654500D01*
X173122864Y-127654500D01*
X170237129Y-127654500D01*
X170237123Y-127654501D01*
X170177518Y-127660908D01*
X170138331Y-127675524D01*
X170068639Y-127680507D01*
X170051668Y-127675523D01*
X170012485Y-127660909D01*
X170012483Y-127660908D01*
X169952883Y-127654501D01*
X169952881Y-127654500D01*
X169952873Y-127654500D01*
X169952864Y-127654500D01*
X167067129Y-127654500D01*
X167067123Y-127654501D01*
X167007516Y-127660908D01*
X166872671Y-127711202D01*
X166872664Y-127711206D01*
X166757455Y-127797452D01*
X166757452Y-127797455D01*
X166671206Y-127912664D01*
X166671202Y-127912671D01*
X166620908Y-128047517D01*
X166614501Y-128107116D01*
X166614501Y-128107123D01*
X166614500Y-128107135D01*
X162385499Y-128107135D01*
X162385499Y-128107128D01*
X162379091Y-128047517D01*
X162368750Y-128019792D01*
X162328797Y-127912671D01*
X162328793Y-127912664D01*
X162242547Y-127797455D01*
X162242544Y-127797452D01*
X162127335Y-127711206D01*
X162127328Y-127711202D01*
X161992482Y-127660908D01*
X161992483Y-127660908D01*
X161932883Y-127654501D01*
X161932881Y-127654500D01*
X161932873Y-127654500D01*
X161932864Y-127654500D01*
X159047129Y-127654500D01*
X159047123Y-127654501D01*
X158987516Y-127660908D01*
X158947617Y-127675790D01*
X158877925Y-127680774D01*
X158860951Y-127675790D01*
X158822376Y-127661402D01*
X158822372Y-127661401D01*
X158762844Y-127655000D01*
X157570000Y-127655000D01*
X157570000Y-129116988D01*
X157512993Y-129084075D01*
X157385826Y-129050000D01*
X157254174Y-129050000D01*
X157127007Y-129084075D01*
X157070000Y-129116988D01*
X157070000Y-127655000D01*
X155877155Y-127655000D01*
X155817627Y-127661401D01*
X155817620Y-127661403D01*
X155682913Y-127711645D01*
X155682906Y-127711649D01*
X155567812Y-127797809D01*
X155567809Y-127797812D01*
X155481649Y-127912906D01*
X155481645Y-127912913D01*
X155431403Y-128047620D01*
X155431401Y-128047627D01*
X155425000Y-128107155D01*
X124342741Y-128107155D01*
X124430104Y-128019792D01*
X124430106Y-128019788D01*
X124430109Y-128019786D01*
X124555048Y-127847820D01*
X124555047Y-127847820D01*
X124555051Y-127847816D01*
X124651557Y-127658412D01*
X124717246Y-127456243D01*
X124750500Y-127246287D01*
X124750500Y-127033713D01*
X124717246Y-126823757D01*
X124651557Y-126621588D01*
X124555051Y-126432184D01*
X124555049Y-126432181D01*
X124555048Y-126432179D01*
X124430109Y-126260213D01*
X124279786Y-126109890D01*
X124107820Y-125984951D01*
X124107115Y-125984591D01*
X124099054Y-125980485D01*
X124048259Y-125932512D01*
X124031463Y-125864692D01*
X124053999Y-125798556D01*
X124099054Y-125759515D01*
X124107816Y-125755051D01*
X124177043Y-125704755D01*
X124279786Y-125630109D01*
X124279788Y-125630106D01*
X124279792Y-125630104D01*
X124430104Y-125479792D01*
X124555051Y-125307816D01*
X124651557Y-125118412D01*
X124717246Y-124916243D01*
X124750500Y-124706287D01*
X124750500Y-124493713D01*
X124735290Y-124397682D01*
X140700000Y-124397682D01*
X140700000Y-124602317D01*
X140732009Y-124804417D01*
X140795244Y-124999031D01*
X140888141Y-125181350D01*
X140888147Y-125181359D01*
X140920523Y-125225921D01*
X140920524Y-125225922D01*
X141600000Y-124546446D01*
X141600000Y-124552661D01*
X141627259Y-124654394D01*
X141679920Y-124745606D01*
X141754394Y-124820080D01*
X141845606Y-124872741D01*
X141947339Y-124900000D01*
X141953553Y-124900000D01*
X141274076Y-125579474D01*
X141318650Y-125611859D01*
X141500968Y-125704755D01*
X141695582Y-125767990D01*
X141897683Y-125800000D01*
X142102317Y-125800000D01*
X142304417Y-125767990D01*
X142499031Y-125704755D01*
X142681349Y-125611859D01*
X142725921Y-125579474D01*
X142046447Y-124900000D01*
X142052661Y-124900000D01*
X142154394Y-124872741D01*
X142245606Y-124820080D01*
X142320080Y-124745606D01*
X142372741Y-124654394D01*
X142400000Y-124552661D01*
X142400000Y-124546448D01*
X143079474Y-125225922D01*
X143079474Y-125225921D01*
X143111859Y-125181349D01*
X143139233Y-125127624D01*
X143187207Y-125076827D01*
X143255028Y-125060031D01*
X143321163Y-125082567D01*
X143360203Y-125127621D01*
X143387713Y-125181611D01*
X143508028Y-125347213D01*
X143652786Y-125491971D01*
X143773226Y-125579474D01*
X143818390Y-125612287D01*
X143934607Y-125671503D01*
X144000776Y-125705218D01*
X144000778Y-125705218D01*
X144000781Y-125705220D01*
X144105137Y-125739127D01*
X144195465Y-125768477D01*
X144296557Y-125784488D01*
X144397648Y-125800500D01*
X144397649Y-125800500D01*
X144602351Y-125800500D01*
X144602352Y-125800500D01*
X144804534Y-125768477D01*
X144999219Y-125705220D01*
X145181610Y-125612287D01*
X145274590Y-125544732D01*
X145347213Y-125491971D01*
X145347215Y-125491968D01*
X145347219Y-125491966D01*
X145491966Y-125347219D01*
X145491968Y-125347215D01*
X145491971Y-125347213D01*
X145544732Y-125274590D01*
X145612287Y-125181610D01*
X145705220Y-124999219D01*
X145768477Y-124804534D01*
X145800500Y-124602352D01*
X145800500Y-124397648D01*
X145782461Y-124283757D01*
X145768477Y-124195465D01*
X145731475Y-124081585D01*
X145705220Y-124000781D01*
X145705218Y-124000778D01*
X145705218Y-124000776D01*
X145649884Y-123892179D01*
X145612287Y-123818390D01*
X145580092Y-123774077D01*
X145491971Y-123652786D01*
X145347213Y-123508028D01*
X145181613Y-123387715D01*
X145181612Y-123387714D01*
X145181610Y-123387713D01*
X145108093Y-123350254D01*
X144999223Y-123294781D01*
X144804534Y-123231522D01*
X144629995Y-123203878D01*
X144602352Y-123199500D01*
X144397648Y-123199500D01*
X144373329Y-123203351D01*
X144195465Y-123231522D01*
X144000776Y-123294781D01*
X143818386Y-123387715D01*
X143652786Y-123508028D01*
X143508028Y-123652786D01*
X143387714Y-123818386D01*
X143360203Y-123872379D01*
X143312227Y-123923174D01*
X143244406Y-123939968D01*
X143178272Y-123917429D01*
X143139234Y-123872376D01*
X143111861Y-123818652D01*
X143079474Y-123774077D01*
X143079474Y-123774076D01*
X142400000Y-124453551D01*
X142400000Y-124447339D01*
X142372741Y-124345606D01*
X142320080Y-124254394D01*
X142245606Y-124179920D01*
X142154394Y-124127259D01*
X142052661Y-124100000D01*
X142046446Y-124100000D01*
X142725922Y-123420524D01*
X142725921Y-123420523D01*
X142681359Y-123388147D01*
X142681350Y-123388141D01*
X142499031Y-123295244D01*
X142304417Y-123232009D01*
X142102317Y-123200000D01*
X141897683Y-123200000D01*
X141695582Y-123232009D01*
X141500968Y-123295244D01*
X141318644Y-123388143D01*
X141274077Y-123420523D01*
X141274077Y-123420524D01*
X141953554Y-124100000D01*
X141947339Y-124100000D01*
X141845606Y-124127259D01*
X141754394Y-124179920D01*
X141679920Y-124254394D01*
X141627259Y-124345606D01*
X141600000Y-124447339D01*
X141600000Y-124453553D01*
X140920524Y-123774077D01*
X140920523Y-123774077D01*
X140888143Y-123818644D01*
X140795244Y-124000968D01*
X140732009Y-124195582D01*
X140700000Y-124397682D01*
X124735290Y-124397682D01*
X124717246Y-124283757D01*
X124651557Y-124081588D01*
X124555051Y-123892184D01*
X124555049Y-123892181D01*
X124555048Y-123892179D01*
X124430109Y-123720213D01*
X124279788Y-123569892D01*
X124277932Y-123568544D01*
X124277899Y-123568520D01*
X124107816Y-123444949D01*
X124091074Y-123436418D01*
X124083759Y-123431246D01*
X124067409Y-123410598D01*
X124048259Y-123392512D01*
X124046061Y-123383637D01*
X124040385Y-123376469D01*
X124037793Y-123350254D01*
X124031463Y-123324692D01*
X124034411Y-123316038D01*
X124033512Y-123306938D01*
X124045504Y-123283485D01*
X124053999Y-123258556D01*
X124061635Y-123251939D01*
X124065322Y-123244729D01*
X124079426Y-123236523D01*
X124099054Y-123219515D01*
X124107816Y-123215051D01*
X124129789Y-123199086D01*
X124279786Y-123090109D01*
X124279788Y-123090106D01*
X124279792Y-123090104D01*
X124430104Y-122939792D01*
X124430106Y-122939788D01*
X124430109Y-122939786D01*
X124555048Y-122767820D01*
X124555047Y-122767820D01*
X124555051Y-122767816D01*
X124651557Y-122578412D01*
X124717246Y-122376243D01*
X124750500Y-122166287D01*
X124750500Y-121953713D01*
X124717246Y-121743757D01*
X124651557Y-121541588D01*
X124555051Y-121352184D01*
X124555049Y-121352181D01*
X124555048Y-121352179D01*
X124430109Y-121180213D01*
X124279786Y-121029890D01*
X124107820Y-120904951D01*
X124107115Y-120904591D01*
X124099054Y-120900485D01*
X124048259Y-120852512D01*
X124031463Y-120784692D01*
X124053999Y-120718556D01*
X124099054Y-120679515D01*
X124107816Y-120675051D01*
X124129789Y-120659086D01*
X124279786Y-120550109D01*
X124279788Y-120550106D01*
X124279792Y-120550104D01*
X124430104Y-120399792D01*
X124430106Y-120399788D01*
X124430109Y-120399786D01*
X124555048Y-120227820D01*
X124555047Y-120227820D01*
X124555051Y-120227816D01*
X124651557Y-120038412D01*
X124717246Y-119836243D01*
X124750500Y-119626287D01*
X124750500Y-119413713D01*
X124717246Y-119203757D01*
X124651557Y-119001588D01*
X124555051Y-118812184D01*
X124555049Y-118812181D01*
X124555048Y-118812179D01*
X124430109Y-118640213D01*
X124279786Y-118489890D01*
X124107820Y-118364951D01*
X124107115Y-118364591D01*
X124099054Y-118360485D01*
X124048259Y-118312512D01*
X124031463Y-118244692D01*
X124053999Y-118178556D01*
X124099054Y-118139515D01*
X124107816Y-118135051D01*
X124129789Y-118119086D01*
X124279786Y-118010109D01*
X124279788Y-118010106D01*
X124279792Y-118010104D01*
X124430104Y-117859792D01*
X124430106Y-117859788D01*
X124430109Y-117859786D01*
X124555048Y-117687820D01*
X124555047Y-117687820D01*
X124555051Y-117687816D01*
X124651557Y-117498412D01*
X124717246Y-117296243D01*
X124750500Y-117086287D01*
X124750500Y-116873713D01*
X124717246Y-116663757D01*
X124651557Y-116461588D01*
X124555051Y-116272184D01*
X124555049Y-116272181D01*
X124555048Y-116272179D01*
X124430109Y-116100213D01*
X124279786Y-115949890D01*
X124207927Y-115897682D01*
X140700000Y-115897682D01*
X140700000Y-116102317D01*
X140732009Y-116304417D01*
X140795244Y-116499031D01*
X140888141Y-116681350D01*
X140888147Y-116681359D01*
X140920523Y-116725921D01*
X140920524Y-116725922D01*
X141600000Y-116046446D01*
X141600000Y-116052661D01*
X141627259Y-116154394D01*
X141679920Y-116245606D01*
X141754394Y-116320080D01*
X141845606Y-116372741D01*
X141947339Y-116400000D01*
X141953553Y-116400000D01*
X141274076Y-117079474D01*
X141318650Y-117111859D01*
X141500968Y-117204755D01*
X141695582Y-117267990D01*
X141897683Y-117300000D01*
X142102317Y-117300000D01*
X142304417Y-117267990D01*
X142499031Y-117204755D01*
X142681349Y-117111859D01*
X142725921Y-117079474D01*
X142046447Y-116400000D01*
X142052661Y-116400000D01*
X142154394Y-116372741D01*
X142245606Y-116320080D01*
X142320080Y-116245606D01*
X142372741Y-116154394D01*
X142400000Y-116052661D01*
X142400000Y-116046448D01*
X143079473Y-116725921D01*
X143117280Y-116722946D01*
X143185658Y-116737310D01*
X143235415Y-116786361D01*
X143244714Y-116807556D01*
X143265186Y-116869334D01*
X143357288Y-117018656D01*
X143481344Y-117142712D01*
X143630666Y-117234814D01*
X143797203Y-117289999D01*
X143899991Y-117300500D01*
X145100008Y-117300499D01*
X145202797Y-117289999D01*
X145369334Y-117234814D01*
X145518656Y-117142712D01*
X145642712Y-117018656D01*
X145734814Y-116869334D01*
X145789999Y-116702797D01*
X145800500Y-116600009D01*
X145800499Y-115399992D01*
X145794153Y-115337873D01*
X145789999Y-115297203D01*
X145789998Y-115297200D01*
X145782335Y-115274076D01*
X145734814Y-115130666D01*
X145642712Y-114981344D01*
X145518656Y-114857288D01*
X145369334Y-114765186D01*
X145202797Y-114710001D01*
X145202795Y-114710000D01*
X145100010Y-114699500D01*
X143899998Y-114699500D01*
X143899981Y-114699501D01*
X143797203Y-114710000D01*
X143797200Y-114710001D01*
X143630668Y-114765185D01*
X143630663Y-114765187D01*
X143481342Y-114857289D01*
X143357289Y-114981342D01*
X143265187Y-115130663D01*
X143265185Y-115130668D01*
X143244717Y-115192438D01*
X143204944Y-115249883D01*
X143140428Y-115276706D01*
X143117283Y-115277052D01*
X143079474Y-115274076D01*
X142400000Y-115953551D01*
X142400000Y-115947339D01*
X142372741Y-115845606D01*
X142320080Y-115754394D01*
X142245606Y-115679920D01*
X142154394Y-115627259D01*
X142052661Y-115600000D01*
X142046446Y-115600000D01*
X142725922Y-114920524D01*
X142725921Y-114920523D01*
X142681359Y-114888147D01*
X142681350Y-114888141D01*
X142499031Y-114795244D01*
X142304417Y-114732009D01*
X142102317Y-114700000D01*
X141897683Y-114700000D01*
X141695582Y-114732009D01*
X141500968Y-114795244D01*
X141318644Y-114888143D01*
X141274077Y-114920523D01*
X141274077Y-114920524D01*
X141953554Y-115600000D01*
X141947339Y-115600000D01*
X141845606Y-115627259D01*
X141754394Y-115679920D01*
X141679920Y-115754394D01*
X141627259Y-115845606D01*
X141600000Y-115947339D01*
X141600000Y-115953553D01*
X140920524Y-115274077D01*
X140920523Y-115274077D01*
X140888143Y-115318644D01*
X140795244Y-115500968D01*
X140732009Y-115695582D01*
X140700000Y-115897682D01*
X124207927Y-115897682D01*
X124107820Y-115824951D01*
X124107115Y-115824591D01*
X124099054Y-115820485D01*
X124048259Y-115772512D01*
X124031463Y-115704692D01*
X124053999Y-115638556D01*
X124099054Y-115599515D01*
X124107816Y-115595051D01*
X124194138Y-115532335D01*
X124279786Y-115470109D01*
X124279788Y-115470106D01*
X124279792Y-115470104D01*
X124430104Y-115319792D01*
X124430106Y-115319788D01*
X124430109Y-115319786D01*
X124555048Y-115147820D01*
X124555047Y-115147820D01*
X124555051Y-115147816D01*
X124651557Y-114958412D01*
X124717246Y-114756243D01*
X124750500Y-114546287D01*
X124750500Y-114333713D01*
X124717246Y-114123757D01*
X124651557Y-113921588D01*
X124555051Y-113732184D01*
X124555049Y-113732181D01*
X124555048Y-113732179D01*
X124430109Y-113560213D01*
X124279786Y-113409890D01*
X124107820Y-113284951D01*
X123918414Y-113188444D01*
X123918413Y-113188443D01*
X123918412Y-113188443D01*
X123716243Y-113122754D01*
X123716241Y-113122753D01*
X123716240Y-113122753D01*
X123554957Y-113097208D01*
X123506287Y-113089500D01*
X123293713Y-113089500D01*
X123245042Y-113097208D01*
X123083760Y-113122753D01*
X122881585Y-113188444D01*
X122692179Y-113284951D01*
X122520213Y-113409890D01*
X122369890Y-113560213D01*
X122244951Y-113732179D01*
X122148444Y-113921585D01*
X122082753Y-114123760D01*
X122049500Y-114333713D01*
X121500000Y-114333713D01*
X121500000Y-106500000D01*
X100000000Y-106500000D01*
X100000000Y-117000000D01*
X99350500Y-117000000D01*
X99350500Y-116873713D01*
X99317246Y-116663757D01*
X99251557Y-116461588D01*
X99155051Y-116272184D01*
X99155049Y-116272181D01*
X99155048Y-116272179D01*
X99030109Y-116100213D01*
X98916569Y-115986673D01*
X98883084Y-115925350D01*
X98888068Y-115855658D01*
X98929940Y-115799725D01*
X98960915Y-115782810D01*
X99092331Y-115733796D01*
X99207546Y-115647546D01*
X99293796Y-115532331D01*
X99344091Y-115397483D01*
X99350500Y-115337873D01*
X99350499Y-113542128D01*
X99344091Y-113482517D01*
X99321204Y-113421155D01*
X99293797Y-113347671D01*
X99293793Y-113347664D01*
X99207547Y-113232455D01*
X99207544Y-113232452D01*
X99092335Y-113146206D01*
X99092328Y-113146202D01*
X98957482Y-113095908D01*
X98957483Y-113095908D01*
X98897883Y-113089501D01*
X98897881Y-113089500D01*
X98897873Y-113089500D01*
X98897864Y-113089500D01*
X97102129Y-113089500D01*
X97102123Y-113089501D01*
X97042516Y-113095908D01*
X96907671Y-113146202D01*
X96907664Y-113146206D01*
X96792455Y-113232452D01*
X96792452Y-113232455D01*
X96706206Y-113347664D01*
X96706202Y-113347671D01*
X96655908Y-113482517D01*
X96649501Y-113542116D01*
X96649501Y-113542123D01*
X96649500Y-113542135D01*
X96649500Y-115337870D01*
X96649501Y-115337876D01*
X96655908Y-115397483D01*
X96706202Y-115532328D01*
X96706206Y-115532335D01*
X96792452Y-115647544D01*
X96792455Y-115647547D01*
X96907664Y-115733793D01*
X96907671Y-115733797D01*
X97039082Y-115782810D01*
X97095016Y-115824681D01*
X97119433Y-115890145D01*
X97104582Y-115958418D01*
X97083431Y-115986673D01*
X96969889Y-116100215D01*
X96844949Y-116272182D01*
X96811084Y-116338645D01*
X96763109Y-116389441D01*
X96695288Y-116406235D01*
X96629153Y-116383697D01*
X96612919Y-116370030D01*
X96136819Y-115893930D01*
X96103334Y-115832607D01*
X96100500Y-115806249D01*
X96100500Y-76250097D01*
X96120185Y-76183058D01*
X96136819Y-76162416D01*
X99792417Y-72506818D01*
X99853740Y-72473333D01*
X99880098Y-72470499D01*
X101227871Y-72470499D01*
X101227872Y-72470499D01*
X101287483Y-72464091D01*
X101422331Y-72413796D01*
X101537546Y-72327546D01*
X101623796Y-72212331D01*
X101674091Y-72077483D01*
X101680500Y-72017873D01*
X101680499Y-70222128D01*
X101674091Y-70162517D01*
X101631772Y-70049055D01*
X101623797Y-70027671D01*
X101623793Y-70027664D01*
X101537547Y-69912455D01*
X101537544Y-69912452D01*
X101422335Y-69826206D01*
X101422328Y-69826202D01*
X101290917Y-69777189D01*
X101234983Y-69735318D01*
X101210566Y-69669853D01*
X101225418Y-69601580D01*
X101246563Y-69573332D01*
X101360104Y-69459792D01*
X101485051Y-69287816D01*
X101581557Y-69098412D01*
X101647246Y-68896243D01*
X101680500Y-68686287D01*
X101680500Y-68473713D01*
X101647246Y-68263757D01*
X101581557Y-68061588D01*
X101485051Y-67872184D01*
X101485049Y-67872181D01*
X101485048Y-67872179D01*
X101360109Y-67700213D01*
X101209786Y-67549890D01*
X101037820Y-67424951D01*
X101037115Y-67424591D01*
X101029054Y-67420485D01*
X100978259Y-67372512D01*
X100961463Y-67304692D01*
X100983999Y-67238556D01*
X101029054Y-67199515D01*
X101037816Y-67195051D01*
X101059789Y-67179086D01*
X101209786Y-67070109D01*
X101209788Y-67070106D01*
X101209792Y-67070104D01*
X101360104Y-66919792D01*
X101360106Y-66919788D01*
X101360109Y-66919786D01*
X101485048Y-66747820D01*
X101485047Y-66747820D01*
X101485051Y-66747816D01*
X101581557Y-66558412D01*
X101647246Y-66356243D01*
X101680500Y-66146287D01*
X101680500Y-65933713D01*
X101647246Y-65723757D01*
X101581557Y-65521588D01*
X101485051Y-65332184D01*
X101485049Y-65332181D01*
X101485048Y-65332179D01*
X101360109Y-65160213D01*
X101209786Y-65009890D01*
X101037820Y-64884951D01*
X101037115Y-64884591D01*
X101029054Y-64880485D01*
X100978259Y-64832512D01*
X100961463Y-64764692D01*
X100983999Y-64698556D01*
X101029054Y-64659515D01*
X101037816Y-64655051D01*
X101059789Y-64639086D01*
X101209786Y-64530109D01*
X101209788Y-64530106D01*
X101209792Y-64530104D01*
X101360104Y-64379792D01*
X101360106Y-64379788D01*
X101360109Y-64379786D01*
X101485048Y-64207820D01*
X101485047Y-64207820D01*
X101485051Y-64207816D01*
X101581557Y-64018412D01*
X101647246Y-63816243D01*
X101680500Y-63606287D01*
X101680500Y-63393713D01*
X101647246Y-63183757D01*
X101581557Y-62981588D01*
X101485051Y-62792184D01*
X101485049Y-62792181D01*
X101485048Y-62792179D01*
X101360109Y-62620213D01*
X101209786Y-62469890D01*
X101037820Y-62344951D01*
X100848414Y-62248444D01*
X100848413Y-62248443D01*
X100848412Y-62248443D01*
X100646243Y-62182754D01*
X100646241Y-62182753D01*
X100646240Y-62182753D01*
X100484957Y-62157208D01*
X100436287Y-62149500D01*
X100223713Y-62149500D01*
X100175042Y-62157208D01*
X100013760Y-62182753D01*
X99811585Y-62248444D01*
X99622179Y-62344951D01*
X99450213Y-62469890D01*
X99299890Y-62620213D01*
X99174951Y-62792179D01*
X99078444Y-62981585D01*
X99012753Y-63183760D01*
X98979500Y-63393713D01*
X98979500Y-63606286D01*
X99012753Y-63816239D01*
X99078444Y-64018414D01*
X99174951Y-64207820D01*
X99299890Y-64379786D01*
X99450213Y-64530109D01*
X99622182Y-64655050D01*
X99630946Y-64659516D01*
X99681742Y-64707491D01*
X99698536Y-64775312D01*
X99675998Y-64841447D01*
X99630946Y-64880484D01*
X99622182Y-64884949D01*
X99450213Y-65009890D01*
X99299890Y-65160213D01*
X99174951Y-65332179D01*
X99078444Y-65521585D01*
X99012753Y-65723760D01*
X98979500Y-65933713D01*
X98979500Y-66146286D01*
X99012753Y-66356239D01*
X99078444Y-66558414D01*
X99174951Y-66747820D01*
X99299890Y-66919786D01*
X99450213Y-67070109D01*
X99622182Y-67195050D01*
X99630946Y-67199516D01*
X99681742Y-67247491D01*
X99698536Y-67315312D01*
X99675998Y-67381447D01*
X99630946Y-67420484D01*
X99622182Y-67424949D01*
X99450213Y-67549890D01*
X99299890Y-67700213D01*
X99174951Y-67872179D01*
X99078444Y-68061585D01*
X99012753Y-68263760D01*
X98979500Y-68473713D01*
X98979500Y-68686286D01*
X99011902Y-68890868D01*
X99012754Y-68896243D01*
X99069493Y-69070868D01*
X99078444Y-69098414D01*
X99174951Y-69287820D01*
X99299890Y-69459786D01*
X99413430Y-69573326D01*
X99446915Y-69634649D01*
X99441931Y-69704341D01*
X99400059Y-69760274D01*
X99369083Y-69777189D01*
X99237669Y-69826203D01*
X99237664Y-69826206D01*
X99122455Y-69912452D01*
X99122452Y-69912455D01*
X99036206Y-70027664D01*
X99036202Y-70027671D01*
X98985908Y-70162517D01*
X98979501Y-70222116D01*
X98979501Y-70222123D01*
X98979500Y-70222135D01*
X98979500Y-71569901D01*
X98959815Y-71636940D01*
X98943181Y-71657582D01*
X95131286Y-75469478D01*
X95019481Y-75581282D01*
X95019479Y-75581284D01*
X95004966Y-75606422D01*
X94998832Y-75617048D01*
X94940423Y-75718215D01*
X94899499Y-75870943D01*
X94899499Y-75870945D01*
X94899499Y-76039046D01*
X94899500Y-76039059D01*
X94899500Y-116019676D01*
X94899499Y-116019694D01*
X94899499Y-116185400D01*
X94899498Y-116185400D01*
X94940422Y-116338129D01*
X94942784Y-116342219D01*
X94942787Y-116342226D01*
X95019475Y-116475055D01*
X95019481Y-116475063D01*
X95138349Y-116593931D01*
X95138355Y-116593936D01*
X96989579Y-118445160D01*
X97023064Y-118506483D01*
X97018080Y-118576175D01*
X96989583Y-118620518D01*
X96969899Y-118640203D01*
X96969892Y-118640211D01*
X96844951Y-118812179D01*
X96748444Y-119001585D01*
X96682753Y-119203760D01*
X96649500Y-119413713D01*
X96649500Y-119626286D01*
X96682754Y-119836244D01*
X96682754Y-119836247D01*
X96696491Y-119878523D01*
X96698486Y-119948364D01*
X96666241Y-120004522D01*
X88811849Y-127858916D01*
X88750526Y-127892401D01*
X88724168Y-127895235D01*
X86583322Y-127895235D01*
X86425207Y-127895235D01*
X86272480Y-127936158D01*
X86272479Y-127936158D01*
X86272477Y-127936159D01*
X86272474Y-127936160D01*
X86222361Y-127965094D01*
X86222360Y-127965095D01*
X86178954Y-127990155D01*
X86135550Y-128015214D01*
X86135547Y-128015216D01*
X80985339Y-133165425D01*
X80924016Y-133198910D01*
X80921850Y-133199361D01*
X80766508Y-133230261D01*
X80766498Y-133230264D01*
X80620827Y-133290602D01*
X80620814Y-133290609D01*
X80489711Y-133378210D01*
X80489707Y-133378213D01*
X80378213Y-133489707D01*
X80378210Y-133489711D01*
X80290609Y-133620814D01*
X80290602Y-133620827D01*
X80230264Y-133766498D01*
X80230261Y-133766510D01*
X80199500Y-133921153D01*
X68500500Y-133921153D01*
X68500500Y-97853713D01*
X85399500Y-97853713D01*
X85399500Y-98066286D01*
X85432753Y-98276239D01*
X85498444Y-98478414D01*
X85594951Y-98667820D01*
X85719890Y-98839786D01*
X85870213Y-98990109D01*
X86042182Y-99115050D01*
X86050946Y-99119516D01*
X86101742Y-99167491D01*
X86118536Y-99235312D01*
X86095998Y-99301447D01*
X86050946Y-99340484D01*
X86042182Y-99344949D01*
X85870213Y-99469890D01*
X85719890Y-99620213D01*
X85594951Y-99792179D01*
X85498444Y-99981585D01*
X85432753Y-100183760D01*
X85422262Y-100250000D01*
X85399500Y-100393713D01*
X85399500Y-100606287D01*
X85432754Y-100816243D01*
X85480707Y-100963828D01*
X85498444Y-101018414D01*
X85594951Y-101207820D01*
X85719890Y-101379786D01*
X85870213Y-101530109D01*
X86042182Y-101655050D01*
X86050946Y-101659516D01*
X86101742Y-101707491D01*
X86118536Y-101775312D01*
X86095998Y-101841447D01*
X86050946Y-101880484D01*
X86042182Y-101884949D01*
X85870213Y-102009890D01*
X85719890Y-102160213D01*
X85594951Y-102332179D01*
X85498444Y-102521585D01*
X85432753Y-102723760D01*
X85399500Y-102933713D01*
X85399500Y-103146286D01*
X85432753Y-103356239D01*
X85498444Y-103558414D01*
X85594951Y-103747820D01*
X85719890Y-103919786D01*
X85833430Y-104033326D01*
X85866915Y-104094649D01*
X85861931Y-104164341D01*
X85820059Y-104220274D01*
X85789083Y-104237189D01*
X85657669Y-104286203D01*
X85657664Y-104286206D01*
X85542455Y-104372452D01*
X85542452Y-104372455D01*
X85456206Y-104487664D01*
X85456202Y-104487671D01*
X85405908Y-104622517D01*
X85399501Y-104682116D01*
X85399501Y-104682123D01*
X85399500Y-104682135D01*
X85399500Y-106477870D01*
X85399501Y-106477876D01*
X85405908Y-106537483D01*
X85456202Y-106672328D01*
X85456206Y-106672335D01*
X85542452Y-106787544D01*
X85542455Y-106787547D01*
X85657664Y-106873793D01*
X85657671Y-106873797D01*
X85792517Y-106924091D01*
X85792516Y-106924091D01*
X85799444Y-106924835D01*
X85852127Y-106930500D01*
X87647872Y-106930499D01*
X87707483Y-106924091D01*
X87842331Y-106873796D01*
X87957546Y-106787546D01*
X88043796Y-106672331D01*
X88094091Y-106537483D01*
X88100500Y-106477873D01*
X88100499Y-104682128D01*
X88094091Y-104622517D01*
X88043796Y-104487669D01*
X88043795Y-104487668D01*
X88043793Y-104487664D01*
X87957547Y-104372455D01*
X87957544Y-104372452D01*
X87842335Y-104286206D01*
X87842328Y-104286202D01*
X87710917Y-104237189D01*
X87654983Y-104195318D01*
X87630566Y-104129853D01*
X87645418Y-104061580D01*
X87666563Y-104033332D01*
X87780104Y-103919792D01*
X87905051Y-103747816D01*
X88001557Y-103558412D01*
X88067246Y-103356243D01*
X88100500Y-103146287D01*
X88100500Y-102933713D01*
X88067246Y-102723757D01*
X88001557Y-102521588D01*
X87905051Y-102332184D01*
X87905049Y-102332181D01*
X87905048Y-102332179D01*
X87780109Y-102160213D01*
X87629786Y-102009890D01*
X87457820Y-101884951D01*
X87457115Y-101884591D01*
X87449054Y-101880485D01*
X87398259Y-101832512D01*
X87381463Y-101764692D01*
X87403999Y-101698556D01*
X87449054Y-101659515D01*
X87457816Y-101655051D01*
X87489616Y-101631947D01*
X87629786Y-101530109D01*
X87629788Y-101530106D01*
X87629792Y-101530104D01*
X87780104Y-101379792D01*
X87780106Y-101379788D01*
X87780109Y-101379786D01*
X87905048Y-101207820D01*
X87905047Y-101207820D01*
X87905051Y-101207816D01*
X88001557Y-101018412D01*
X88067246Y-100816243D01*
X88100500Y-100606287D01*
X88100500Y-100393713D01*
X88067246Y-100183757D01*
X88001557Y-99981588D01*
X87905051Y-99792184D01*
X87905049Y-99792181D01*
X87905048Y-99792179D01*
X87780109Y-99620213D01*
X87629786Y-99469890D01*
X87457820Y-99344951D01*
X87457115Y-99344591D01*
X87449054Y-99340485D01*
X87398259Y-99292512D01*
X87381463Y-99224692D01*
X87403999Y-99158556D01*
X87449054Y-99119515D01*
X87457816Y-99115051D01*
X87479789Y-99099086D01*
X87629786Y-98990109D01*
X87629788Y-98990106D01*
X87629792Y-98990104D01*
X87780104Y-98839792D01*
X87780106Y-98839788D01*
X87780109Y-98839786D01*
X87905048Y-98667820D01*
X87905047Y-98667820D01*
X87905051Y-98667816D01*
X88001557Y-98478412D01*
X88067246Y-98276243D01*
X88100500Y-98066287D01*
X88100500Y-97853713D01*
X88085382Y-97758268D01*
X88094336Y-97688979D01*
X88120171Y-97651195D01*
X90082951Y-95688416D01*
X90165084Y-95565495D01*
X90221658Y-95428913D01*
X90241122Y-95331062D01*
X90250500Y-95283920D01*
X90250500Y-68942229D01*
X90270185Y-68875190D01*
X90286814Y-68854553D01*
X122438323Y-36703043D01*
X122499642Y-36669561D01*
X122569334Y-36674545D01*
X122625267Y-36716417D01*
X122649684Y-36781881D01*
X122650000Y-36790727D01*
X122650000Y-37354162D01*
X122656132Y-37421651D01*
X122656134Y-37421658D01*
X122704537Y-37576989D01*
X122704540Y-37576998D01*
X122788710Y-37716233D01*
X122788713Y-37716237D01*
X122903762Y-37831286D01*
X122903766Y-37831289D01*
X123043001Y-37915459D01*
X123043007Y-37915461D01*
X123198337Y-37963864D01*
X123198344Y-37963865D01*
X123265848Y-37969999D01*
X123749999Y-37969999D01*
X123750000Y-37969998D01*
X123750000Y-37053012D01*
X123807007Y-37085925D01*
X123934174Y-37120000D01*
X124065826Y-37120000D01*
X124192993Y-37085925D01*
X124250000Y-37053012D01*
X124250000Y-37969999D01*
X124734161Y-37969999D01*
X124801651Y-37963867D01*
X124801658Y-37963865D01*
X124956989Y-37915462D01*
X124956998Y-37915459D01*
X125096233Y-37831289D01*
X125096237Y-37831286D01*
X125211286Y-37716237D01*
X125211289Y-37716233D01*
X125295459Y-37576998D01*
X125295461Y-37576992D01*
X125343864Y-37421662D01*
X125343865Y-37421655D01*
X125350000Y-37354151D01*
X125350000Y-36870000D01*
X124433012Y-36870000D01*
X124465925Y-36812993D01*
X124500000Y-36685826D01*
X124500000Y-36554174D01*
X124465925Y-36427007D01*
X124433012Y-36370000D01*
X125349999Y-36370000D01*
X125349999Y-35885837D01*
X125343867Y-35818348D01*
X125343865Y-35818341D01*
X125295462Y-35663010D01*
X125295459Y-35663001D01*
X125211289Y-35523766D01*
X125211286Y-35523762D01*
X125096237Y-35408713D01*
X125096233Y-35408710D01*
X124956998Y-35324540D01*
X124956993Y-35324538D01*
X124930475Y-35316275D01*
X124872328Y-35277536D01*
X124844355Y-35213510D01*
X124855437Y-35144525D01*
X124879686Y-35110208D01*
X124879784Y-35110109D01*
X124879792Y-35110104D01*
X125030104Y-34959792D01*
X125055688Y-34924577D01*
X125086903Y-34881615D01*
X125142233Y-34838949D01*
X125187221Y-34830500D01*
X159217770Y-34830500D01*
X159284809Y-34850185D01*
X159305451Y-34866819D01*
X167213181Y-42774548D01*
X167246666Y-42835871D01*
X167249500Y-42862229D01*
X167249500Y-61393918D01*
X167249500Y-61393920D01*
X167249499Y-61393920D01*
X167278340Y-61538907D01*
X167278343Y-61538917D01*
X167334914Y-61675492D01*
X167367812Y-61724727D01*
X167367813Y-61724730D01*
X167417046Y-61798414D01*
X167417052Y-61798421D01*
X171349824Y-65731192D01*
X171383309Y-65792515D01*
X171384616Y-65838271D01*
X171369500Y-65933707D01*
X171369500Y-66146291D01*
X171384616Y-66241726D01*
X171375662Y-66311020D01*
X171349824Y-66348806D01*
X169417050Y-68281580D01*
X169417044Y-68281588D01*
X169367812Y-68355268D01*
X169367813Y-68355269D01*
X169334921Y-68404496D01*
X169334914Y-68404508D01*
X169278342Y-68541086D01*
X169278340Y-68541092D01*
X169249500Y-68686079D01*
X169249500Y-68686082D01*
X169249500Y-73553918D01*
X169249500Y-73553920D01*
X169249499Y-73553920D01*
X169278340Y-73698907D01*
X169278343Y-73698917D01*
X169334914Y-73835492D01*
X169367812Y-73884727D01*
X169367813Y-73884730D01*
X169417046Y-73958414D01*
X169417052Y-73958421D01*
X171349824Y-75891192D01*
X171383309Y-75952515D01*
X171384616Y-75998271D01*
X171369500Y-76093707D01*
X171369500Y-76306292D01*
X171384616Y-76401728D01*
X171375662Y-76471021D01*
X171349824Y-76508807D01*
X168917050Y-78941580D01*
X168917044Y-78941588D01*
X168867812Y-79015268D01*
X168867813Y-79015269D01*
X168834921Y-79064496D01*
X168834914Y-79064508D01*
X168778342Y-79201086D01*
X168778340Y-79201092D01*
X168749500Y-79346079D01*
X168749500Y-79346082D01*
X168749500Y-82073918D01*
X168749500Y-82073920D01*
X168749499Y-82073920D01*
X168778340Y-82218907D01*
X168778343Y-82218917D01*
X168834914Y-82355492D01*
X168867812Y-82404727D01*
X168867813Y-82404730D01*
X168917046Y-82478414D01*
X168917052Y-82478421D01*
X170737049Y-84298416D01*
X170841584Y-84402951D01*
X170841586Y-84402952D01*
X170841586Y-84402953D01*
X170856285Y-84412775D01*
X170901090Y-84466388D01*
X170909796Y-84535713D01*
X170879640Y-84598740D01*
X170875074Y-84603557D01*
X144687050Y-110791580D01*
X144687044Y-110791588D01*
X144637812Y-110865268D01*
X144637813Y-110865269D01*
X144604921Y-110914496D01*
X144604914Y-110914508D01*
X144548342Y-111051086D01*
X144548340Y-111051092D01*
X144519500Y-111196079D01*
X144519500Y-111196082D01*
X144519500Y-111843918D01*
X144519500Y-111843920D01*
X144519499Y-111843920D01*
X144548340Y-111988907D01*
X144548343Y-111988917D01*
X144604914Y-112125492D01*
X144637812Y-112174727D01*
X144637813Y-112174730D01*
X144687046Y-112248414D01*
X144687052Y-112248421D01*
X146253926Y-113815293D01*
X146280805Y-113855519D01*
X146290603Y-113879172D01*
X146290606Y-113879178D01*
X146290609Y-113879185D01*
X146378210Y-114010288D01*
X146378213Y-114010292D01*
X146489707Y-114121786D01*
X146489711Y-114121789D01*
X146620814Y-114209390D01*
X146620827Y-114209397D01*
X146766498Y-114269735D01*
X146766503Y-114269737D01*
X146921153Y-114300499D01*
X146921156Y-114300500D01*
X146921158Y-114300500D01*
X147078844Y-114300500D01*
X147078845Y-114300499D01*
X147233497Y-114269737D01*
X147379179Y-114209394D01*
X147510289Y-114121789D01*
X147621789Y-114010289D01*
X147709394Y-113879179D01*
X147769737Y-113733497D01*
X147800500Y-113578842D01*
X147800500Y-113421158D01*
X147800500Y-113421155D01*
X147800499Y-113421153D01*
X147785881Y-113347664D01*
X147769737Y-113266503D01*
X147719908Y-113146204D01*
X147709397Y-113120827D01*
X147709390Y-113120814D01*
X147621789Y-112989711D01*
X147621786Y-112989707D01*
X147510292Y-112878213D01*
X147510288Y-112878210D01*
X147379185Y-112790609D01*
X147379180Y-112790607D01*
X147379179Y-112790606D01*
X147355519Y-112780805D01*
X147315293Y-112753926D01*
X146169047Y-111607680D01*
X146135562Y-111546357D01*
X146140546Y-111476665D01*
X146169043Y-111432323D01*
X146469419Y-111131947D01*
X158250000Y-111131947D01*
X158250000Y-111368052D01*
X158286934Y-111601247D01*
X158359897Y-111825802D01*
X158467087Y-112036174D01*
X158527338Y-112119104D01*
X158527340Y-112119105D01*
X159226212Y-111420233D01*
X159237482Y-111462292D01*
X159309890Y-111587708D01*
X159412292Y-111690110D01*
X159537708Y-111762518D01*
X159579765Y-111773787D01*
X158880893Y-112472658D01*
X158963828Y-112532914D01*
X159174197Y-112640102D01*
X159398752Y-112713065D01*
X159398751Y-112713065D01*
X159631948Y-112750000D01*
X159868052Y-112750000D01*
X160101247Y-112713065D01*
X160325802Y-112640102D01*
X160536163Y-112532918D01*
X160536169Y-112532914D01*
X160619104Y-112472658D01*
X160619105Y-112472658D01*
X159920233Y-111773787D01*
X159962292Y-111762518D01*
X160087708Y-111690110D01*
X160190110Y-111587708D01*
X160262518Y-111462292D01*
X160273787Y-111420234D01*
X160972658Y-112119105D01*
X160972658Y-112119104D01*
X161032914Y-112036169D01*
X161032918Y-112036163D01*
X161140102Y-111825802D01*
X161213065Y-111601247D01*
X161250000Y-111368052D01*
X161250000Y-111131947D01*
X164750000Y-111131947D01*
X164750000Y-111368052D01*
X164786934Y-111601247D01*
X164859897Y-111825802D01*
X164967087Y-112036174D01*
X165027338Y-112119104D01*
X165027340Y-112119105D01*
X165726212Y-111420233D01*
X165737482Y-111462292D01*
X165809890Y-111587708D01*
X165912292Y-111690110D01*
X166037708Y-111762518D01*
X166079765Y-111773787D01*
X165380893Y-112472658D01*
X165463828Y-112532914D01*
X165674197Y-112640102D01*
X165898752Y-112713065D01*
X165898751Y-112713065D01*
X166131948Y-112750000D01*
X166368052Y-112750000D01*
X166601247Y-112713065D01*
X166825802Y-112640102D01*
X167036163Y-112532918D01*
X167036169Y-112532914D01*
X167119104Y-112472658D01*
X167119105Y-112472658D01*
X166420233Y-111773787D01*
X166462292Y-111762518D01*
X166587708Y-111690110D01*
X166690110Y-111587708D01*
X166762518Y-111462292D01*
X166773787Y-111420234D01*
X167472658Y-112119105D01*
X167472658Y-112119104D01*
X167532914Y-112036169D01*
X167532918Y-112036163D01*
X167618040Y-111869104D01*
X167618041Y-111869102D01*
X167640101Y-111825805D01*
X167713065Y-111601247D01*
X167750000Y-111368052D01*
X167750000Y-111131947D01*
X167713065Y-110898752D01*
X167640102Y-110674197D01*
X167618575Y-110631947D01*
X184250000Y-110631947D01*
X184250000Y-110868052D01*
X184286934Y-111101247D01*
X184359897Y-111325802D01*
X184467087Y-111536174D01*
X184527338Y-111619104D01*
X184527340Y-111619105D01*
X185226212Y-110920233D01*
X185237482Y-110962292D01*
X185309890Y-111087708D01*
X185412292Y-111190110D01*
X185537708Y-111262518D01*
X185579765Y-111273787D01*
X184880893Y-111972658D01*
X184963828Y-112032914D01*
X185174197Y-112140102D01*
X185398752Y-112213065D01*
X185398751Y-112213065D01*
X185631948Y-112250000D01*
X185868052Y-112250000D01*
X186101247Y-112213065D01*
X186325802Y-112140102D01*
X186536163Y-112032918D01*
X186536169Y-112032914D01*
X186619104Y-111972658D01*
X186619105Y-111972658D01*
X185920233Y-111273787D01*
X185962292Y-111262518D01*
X186087708Y-111190110D01*
X186190110Y-111087708D01*
X186262518Y-110962292D01*
X186273787Y-110920234D01*
X186972658Y-111619105D01*
X186972658Y-111619104D01*
X187032914Y-111536169D01*
X187032918Y-111536163D01*
X187140102Y-111325802D01*
X187213065Y-111101247D01*
X187250000Y-110868052D01*
X187250000Y-110631947D01*
X190750000Y-110631947D01*
X190750000Y-110868052D01*
X190786934Y-111101247D01*
X190859897Y-111325802D01*
X190967087Y-111536174D01*
X191027338Y-111619104D01*
X191027340Y-111619105D01*
X191726212Y-110920233D01*
X191737482Y-110962292D01*
X191809890Y-111087708D01*
X191912292Y-111190110D01*
X192037708Y-111262518D01*
X192079765Y-111273787D01*
X191380893Y-111972658D01*
X191463828Y-112032914D01*
X191674197Y-112140102D01*
X191898752Y-112213065D01*
X191898751Y-112213065D01*
X192131948Y-112250000D01*
X192368052Y-112250000D01*
X192601247Y-112213065D01*
X192825802Y-112140102D01*
X193036163Y-112032918D01*
X193036169Y-112032914D01*
X193119104Y-111972658D01*
X193119105Y-111972658D01*
X192420233Y-111273787D01*
X192462292Y-111262518D01*
X192587708Y-111190110D01*
X192690110Y-111087708D01*
X192762518Y-110962292D01*
X192773787Y-110920234D01*
X193472658Y-111619105D01*
X193472658Y-111619104D01*
X193532914Y-111536169D01*
X193532918Y-111536163D01*
X193640102Y-111325802D01*
X193713065Y-111101247D01*
X193750000Y-110868052D01*
X193750000Y-110631947D01*
X193713065Y-110398752D01*
X193640102Y-110174197D01*
X193532914Y-109963828D01*
X193472658Y-109880894D01*
X193472658Y-109880893D01*
X192773787Y-110579765D01*
X192762518Y-110537708D01*
X192690110Y-110412292D01*
X192587708Y-110309890D01*
X192462292Y-110237482D01*
X192420234Y-110226212D01*
X193119105Y-109527340D01*
X193119104Y-109527338D01*
X193036174Y-109467087D01*
X192825802Y-109359897D01*
X192601247Y-109286934D01*
X192601248Y-109286934D01*
X192368052Y-109250000D01*
X192131948Y-109250000D01*
X191898752Y-109286934D01*
X191674197Y-109359897D01*
X191463830Y-109467084D01*
X191380894Y-109527340D01*
X192079766Y-110226212D01*
X192037708Y-110237482D01*
X191912292Y-110309890D01*
X191809890Y-110412292D01*
X191737482Y-110537708D01*
X191726212Y-110579765D01*
X191027340Y-109880894D01*
X190967084Y-109963830D01*
X190859897Y-110174197D01*
X190786934Y-110398752D01*
X190750000Y-110631947D01*
X187250000Y-110631947D01*
X187213065Y-110398752D01*
X187140102Y-110174197D01*
X187032914Y-109963828D01*
X186972658Y-109880894D01*
X186972658Y-109880893D01*
X186273787Y-110579765D01*
X186262518Y-110537708D01*
X186190110Y-110412292D01*
X186087708Y-110309890D01*
X185962292Y-110237482D01*
X185920234Y-110226212D01*
X186619105Y-109527340D01*
X186619104Y-109527339D01*
X186536174Y-109467087D01*
X186325802Y-109359897D01*
X186101247Y-109286934D01*
X186101248Y-109286934D01*
X185868052Y-109250000D01*
X185631948Y-109250000D01*
X185398752Y-109286934D01*
X185174197Y-109359897D01*
X184963830Y-109467084D01*
X184880894Y-109527340D01*
X185579766Y-110226212D01*
X185537708Y-110237482D01*
X185412292Y-110309890D01*
X185309890Y-110412292D01*
X185237482Y-110537708D01*
X185226212Y-110579766D01*
X184527340Y-109880894D01*
X184467084Y-109963830D01*
X184359897Y-110174197D01*
X184286934Y-110398752D01*
X184250000Y-110631947D01*
X167618575Y-110631947D01*
X167532914Y-110463828D01*
X167472658Y-110380894D01*
X167472658Y-110380893D01*
X166773787Y-111079765D01*
X166762518Y-111037708D01*
X166690110Y-110912292D01*
X166587708Y-110809890D01*
X166462292Y-110737482D01*
X166420234Y-110726212D01*
X167119105Y-110027340D01*
X167119104Y-110027338D01*
X167036174Y-109967087D01*
X166825802Y-109859897D01*
X166601247Y-109786934D01*
X166601248Y-109786934D01*
X166368052Y-109750000D01*
X166131948Y-109750000D01*
X165898752Y-109786934D01*
X165674197Y-109859897D01*
X165463830Y-109967084D01*
X165380894Y-110027340D01*
X166079766Y-110726212D01*
X166037708Y-110737482D01*
X165912292Y-110809890D01*
X165809890Y-110912292D01*
X165737482Y-111037708D01*
X165726212Y-111079766D01*
X165027340Y-110380894D01*
X164967084Y-110463830D01*
X164859897Y-110674197D01*
X164786934Y-110898752D01*
X164750000Y-111131947D01*
X161250000Y-111131947D01*
X161213065Y-110898752D01*
X161140102Y-110674197D01*
X161032914Y-110463828D01*
X160972658Y-110380894D01*
X160972658Y-110380893D01*
X160273787Y-111079765D01*
X160262518Y-111037708D01*
X160190110Y-110912292D01*
X160087708Y-110809890D01*
X159962292Y-110737482D01*
X159920234Y-110726212D01*
X160619105Y-110027340D01*
X160619104Y-110027339D01*
X160536174Y-109967087D01*
X160325802Y-109859897D01*
X160101247Y-109786934D01*
X160101248Y-109786934D01*
X159868052Y-109750000D01*
X159631948Y-109750000D01*
X159398752Y-109786934D01*
X159174197Y-109859897D01*
X158963830Y-109967084D01*
X158880894Y-110027340D01*
X159579766Y-110726212D01*
X159537708Y-110737482D01*
X159412292Y-110809890D01*
X159309890Y-110912292D01*
X159237482Y-111037708D01*
X159226212Y-111079766D01*
X158527340Y-110380894D01*
X158467084Y-110463830D01*
X158359897Y-110674197D01*
X158286934Y-110898752D01*
X158250000Y-111131947D01*
X146469419Y-111131947D01*
X150969464Y-106631902D01*
X158249500Y-106631902D01*
X158249500Y-106868097D01*
X158286446Y-107101368D01*
X158359433Y-107325996D01*
X158394347Y-107394517D01*
X158466657Y-107536433D01*
X158605483Y-107727510D01*
X158772490Y-107894517D01*
X158963567Y-108033343D01*
X159062991Y-108084002D01*
X159174003Y-108140566D01*
X159174005Y-108140566D01*
X159174008Y-108140568D01*
X159294412Y-108179689D01*
X159398631Y-108213553D01*
X159631903Y-108250500D01*
X159631908Y-108250500D01*
X159868097Y-108250500D01*
X160101368Y-108213553D01*
X160325992Y-108140568D01*
X160536433Y-108033343D01*
X160727510Y-107894517D01*
X160894517Y-107727510D01*
X161033343Y-107536433D01*
X161140568Y-107325992D01*
X161213553Y-107101368D01*
X161240616Y-106930499D01*
X161250500Y-106868097D01*
X161250500Y-106631902D01*
X164749500Y-106631902D01*
X164749500Y-106868097D01*
X164786446Y-107101368D01*
X164859433Y-107325996D01*
X164894347Y-107394517D01*
X164966657Y-107536433D01*
X165105483Y-107727510D01*
X165272490Y-107894517D01*
X165463567Y-108033343D01*
X165562991Y-108084002D01*
X165674003Y-108140566D01*
X165674005Y-108140566D01*
X165674008Y-108140568D01*
X165794412Y-108179689D01*
X165898631Y-108213553D01*
X166131903Y-108250500D01*
X166131908Y-108250500D01*
X166368097Y-108250500D01*
X166601368Y-108213553D01*
X166825992Y-108140568D01*
X167036433Y-108033343D01*
X167227510Y-107894517D01*
X167394517Y-107727510D01*
X167533343Y-107536433D01*
X167640568Y-107325992D01*
X167713553Y-107101368D01*
X167740616Y-106930499D01*
X167750500Y-106868097D01*
X167750500Y-106631902D01*
X167713553Y-106398631D01*
X167640566Y-106174003D01*
X167619114Y-106131902D01*
X184249500Y-106131902D01*
X184249500Y-106368097D01*
X184286446Y-106601368D01*
X184359433Y-106825996D01*
X184412681Y-106930500D01*
X184466657Y-107036433D01*
X184605483Y-107227510D01*
X184772490Y-107394517D01*
X184963567Y-107533343D01*
X185062991Y-107584002D01*
X185174003Y-107640566D01*
X185174005Y-107640566D01*
X185174008Y-107640568D01*
X185294412Y-107679689D01*
X185398631Y-107713553D01*
X185631903Y-107750500D01*
X185631908Y-107750500D01*
X185868097Y-107750500D01*
X186101368Y-107713553D01*
X186325992Y-107640568D01*
X186536433Y-107533343D01*
X186727510Y-107394517D01*
X186894517Y-107227510D01*
X187033343Y-107036433D01*
X187140568Y-106825992D01*
X187213553Y-106601368D01*
X187250500Y-106368097D01*
X187250500Y-106131902D01*
X190749500Y-106131902D01*
X190749500Y-106368097D01*
X190786446Y-106601368D01*
X190859433Y-106825996D01*
X190912681Y-106930500D01*
X190966657Y-107036433D01*
X191105483Y-107227510D01*
X191272490Y-107394517D01*
X191463567Y-107533343D01*
X191562991Y-107584002D01*
X191674003Y-107640566D01*
X191674005Y-107640566D01*
X191674008Y-107640568D01*
X191794412Y-107679689D01*
X191898631Y-107713553D01*
X192131903Y-107750500D01*
X192131908Y-107750500D01*
X192368097Y-107750500D01*
X192601368Y-107713553D01*
X192825992Y-107640568D01*
X193036433Y-107533343D01*
X193227510Y-107394517D01*
X193394517Y-107227510D01*
X193533343Y-107036433D01*
X193640568Y-106825992D01*
X193713553Y-106601368D01*
X193750500Y-106368097D01*
X193750500Y-106131902D01*
X193713553Y-105898631D01*
X193640566Y-105674003D01*
X193533342Y-105463566D01*
X193394517Y-105272490D01*
X193227510Y-105105483D01*
X193036433Y-104966657D01*
X192825996Y-104859433D01*
X192601368Y-104786446D01*
X192368097Y-104749500D01*
X192368092Y-104749500D01*
X192131908Y-104749500D01*
X192131903Y-104749500D01*
X191898631Y-104786446D01*
X191674003Y-104859433D01*
X191463566Y-104966657D01*
X191354550Y-105045862D01*
X191272490Y-105105483D01*
X191272488Y-105105485D01*
X191272487Y-105105485D01*
X191105485Y-105272487D01*
X191105485Y-105272488D01*
X191105483Y-105272490D01*
X191095343Y-105286447D01*
X190966657Y-105463566D01*
X190859433Y-105674003D01*
X190786446Y-105898631D01*
X190749500Y-106131902D01*
X187250500Y-106131902D01*
X187213553Y-105898631D01*
X187140566Y-105674003D01*
X187033342Y-105463566D01*
X186894517Y-105272490D01*
X186727510Y-105105483D01*
X186536433Y-104966657D01*
X186325996Y-104859433D01*
X186101368Y-104786446D01*
X185868097Y-104749500D01*
X185868092Y-104749500D01*
X185631908Y-104749500D01*
X185631903Y-104749500D01*
X185398631Y-104786446D01*
X185174003Y-104859433D01*
X184963566Y-104966657D01*
X184854550Y-105045862D01*
X184772490Y-105105483D01*
X184772488Y-105105485D01*
X184772487Y-105105485D01*
X184605485Y-105272487D01*
X184605485Y-105272488D01*
X184605483Y-105272490D01*
X184595343Y-105286447D01*
X184466657Y-105463566D01*
X184359433Y-105674003D01*
X184286446Y-105898631D01*
X184249500Y-106131902D01*
X167619114Y-106131902D01*
X167533342Y-105963566D01*
X167394517Y-105772490D01*
X167227510Y-105605483D01*
X167036433Y-105466657D01*
X167030367Y-105463566D01*
X166825996Y-105359433D01*
X166601368Y-105286446D01*
X166368097Y-105249500D01*
X166368092Y-105249500D01*
X166131908Y-105249500D01*
X166131903Y-105249500D01*
X165898631Y-105286446D01*
X165674003Y-105359433D01*
X165463566Y-105466657D01*
X165354550Y-105545862D01*
X165272490Y-105605483D01*
X165272488Y-105605485D01*
X165272487Y-105605485D01*
X165105485Y-105772487D01*
X165105485Y-105772488D01*
X165105483Y-105772490D01*
X165045862Y-105854550D01*
X164966657Y-105963566D01*
X164859433Y-106174003D01*
X164786446Y-106398631D01*
X164749500Y-106631902D01*
X161250500Y-106631902D01*
X161213553Y-106398631D01*
X161140566Y-106174003D01*
X161033342Y-105963566D01*
X160894517Y-105772490D01*
X160727510Y-105605483D01*
X160536433Y-105466657D01*
X160530367Y-105463566D01*
X160325996Y-105359433D01*
X160101368Y-105286446D01*
X159868097Y-105249500D01*
X159868092Y-105249500D01*
X159631908Y-105249500D01*
X159631903Y-105249500D01*
X159398631Y-105286446D01*
X159174003Y-105359433D01*
X158963566Y-105466657D01*
X158854550Y-105545862D01*
X158772490Y-105605483D01*
X158772488Y-105605485D01*
X158772487Y-105605485D01*
X158605485Y-105772487D01*
X158605485Y-105772488D01*
X158605483Y-105772490D01*
X158545862Y-105854550D01*
X158466657Y-105963566D01*
X158359433Y-106174003D01*
X158286446Y-106398631D01*
X158249500Y-106631902D01*
X150969464Y-106631902D01*
X155969419Y-101631947D01*
X171750000Y-101631947D01*
X171750000Y-101868052D01*
X171786934Y-102101247D01*
X171859897Y-102325802D01*
X171967087Y-102536174D01*
X172027338Y-102619104D01*
X172027340Y-102619105D01*
X172726212Y-101920233D01*
X172737482Y-101962292D01*
X172809890Y-102087708D01*
X172912292Y-102190110D01*
X173037708Y-102262518D01*
X173079765Y-102273787D01*
X172380893Y-102972658D01*
X172463828Y-103032914D01*
X172674197Y-103140102D01*
X172898752Y-103213065D01*
X172898751Y-103213065D01*
X173131948Y-103250000D01*
X173368052Y-103250000D01*
X173601247Y-103213065D01*
X173825802Y-103140102D01*
X174036163Y-103032918D01*
X174036169Y-103032914D01*
X174119104Y-102972658D01*
X174119105Y-102972658D01*
X173420233Y-102273787D01*
X173462292Y-102262518D01*
X173587708Y-102190110D01*
X173690110Y-102087708D01*
X173762518Y-101962292D01*
X173773787Y-101920234D01*
X174472658Y-102619105D01*
X174472658Y-102619104D01*
X174532914Y-102536169D01*
X174532918Y-102536163D01*
X174640102Y-102325802D01*
X174713065Y-102101247D01*
X174750000Y-101868052D01*
X174750000Y-101631947D01*
X178250000Y-101631947D01*
X178250000Y-101868052D01*
X178286934Y-102101247D01*
X178359897Y-102325802D01*
X178467087Y-102536174D01*
X178527338Y-102619104D01*
X178527340Y-102619105D01*
X179226212Y-101920233D01*
X179237482Y-101962292D01*
X179309890Y-102087708D01*
X179412292Y-102190110D01*
X179537708Y-102262518D01*
X179579765Y-102273787D01*
X178880893Y-102972658D01*
X178963828Y-103032914D01*
X179174197Y-103140102D01*
X179398752Y-103213065D01*
X179398751Y-103213065D01*
X179631948Y-103250000D01*
X179868052Y-103250000D01*
X180101247Y-103213065D01*
X180325802Y-103140102D01*
X180536163Y-103032918D01*
X180536169Y-103032914D01*
X180619104Y-102972658D01*
X180619105Y-102972658D01*
X179920233Y-102273787D01*
X179962292Y-102262518D01*
X180087708Y-102190110D01*
X180190110Y-102087708D01*
X180262518Y-101962292D01*
X180273787Y-101920233D01*
X180972658Y-102619105D01*
X180972658Y-102619104D01*
X181032914Y-102536169D01*
X181032918Y-102536163D01*
X181140102Y-102325802D01*
X181213065Y-102101247D01*
X181250000Y-101868052D01*
X181250000Y-101631947D01*
X181213065Y-101398752D01*
X181140102Y-101174197D01*
X181032914Y-100963828D01*
X180972658Y-100880894D01*
X180972658Y-100880893D01*
X180273787Y-101579765D01*
X180262518Y-101537708D01*
X180190110Y-101412292D01*
X180087708Y-101309890D01*
X179962292Y-101237482D01*
X179920234Y-101226212D01*
X180619105Y-100527340D01*
X180619104Y-100527338D01*
X180536174Y-100467087D01*
X180325802Y-100359897D01*
X180101247Y-100286934D01*
X180101248Y-100286934D01*
X179868052Y-100250000D01*
X179631948Y-100250000D01*
X179398752Y-100286934D01*
X179174197Y-100359897D01*
X178963830Y-100467084D01*
X178880894Y-100527340D01*
X179579766Y-101226212D01*
X179537708Y-101237482D01*
X179412292Y-101309890D01*
X179309890Y-101412292D01*
X179237482Y-101537708D01*
X179226212Y-101579765D01*
X178527340Y-100880894D01*
X178467084Y-100963830D01*
X178359897Y-101174197D01*
X178286934Y-101398752D01*
X178250000Y-101631947D01*
X174750000Y-101631947D01*
X174713065Y-101398752D01*
X174640102Y-101174197D01*
X174532914Y-100963828D01*
X174472658Y-100880894D01*
X174472658Y-100880893D01*
X173773787Y-101579765D01*
X173762518Y-101537708D01*
X173690110Y-101412292D01*
X173587708Y-101309890D01*
X173462292Y-101237482D01*
X173420234Y-101226212D01*
X174119105Y-100527340D01*
X174119104Y-100527339D01*
X174036174Y-100467087D01*
X173825802Y-100359897D01*
X173601247Y-100286934D01*
X173601248Y-100286934D01*
X173368052Y-100250000D01*
X173131948Y-100250000D01*
X172898752Y-100286934D01*
X172674197Y-100359897D01*
X172463830Y-100467084D01*
X172380894Y-100527340D01*
X173079766Y-101226212D01*
X173037708Y-101237482D01*
X172912292Y-101309890D01*
X172809890Y-101412292D01*
X172737482Y-101537708D01*
X172726212Y-101579765D01*
X172027340Y-100880894D01*
X171967084Y-100963830D01*
X171859897Y-101174197D01*
X171786934Y-101398752D01*
X171750000Y-101631947D01*
X155969419Y-101631947D01*
X160469464Y-97131902D01*
X171749500Y-97131902D01*
X171749500Y-97368097D01*
X171786446Y-97601368D01*
X171859433Y-97825996D01*
X171966657Y-98036433D01*
X172105483Y-98227510D01*
X172272490Y-98394517D01*
X172463567Y-98533343D01*
X172562991Y-98584002D01*
X172674003Y-98640566D01*
X172674005Y-98640566D01*
X172674008Y-98640568D01*
X172757881Y-98667820D01*
X172898631Y-98713553D01*
X173131903Y-98750500D01*
X173131908Y-98750500D01*
X173368097Y-98750500D01*
X173601368Y-98713553D01*
X173825992Y-98640568D01*
X174036433Y-98533343D01*
X174227510Y-98394517D01*
X174394517Y-98227510D01*
X174533343Y-98036433D01*
X174640568Y-97825992D01*
X174713553Y-97601368D01*
X174750500Y-97368097D01*
X174750500Y-97131902D01*
X178249500Y-97131902D01*
X178249500Y-97368097D01*
X178286446Y-97601368D01*
X178359433Y-97825996D01*
X178466657Y-98036433D01*
X178605483Y-98227510D01*
X178772490Y-98394517D01*
X178963567Y-98533343D01*
X179062991Y-98584002D01*
X179174003Y-98640566D01*
X179174005Y-98640566D01*
X179174008Y-98640568D01*
X179257881Y-98667820D01*
X179398631Y-98713553D01*
X179631903Y-98750500D01*
X179631908Y-98750500D01*
X179868097Y-98750500D01*
X180101368Y-98713553D01*
X180325992Y-98640568D01*
X180536433Y-98533343D01*
X180727510Y-98394517D01*
X180894517Y-98227510D01*
X181033343Y-98036433D01*
X181140568Y-97825992D01*
X181213553Y-97601368D01*
X181250500Y-97368097D01*
X181250500Y-97131902D01*
X181213553Y-96898631D01*
X181168887Y-96761164D01*
X181140568Y-96674008D01*
X181140566Y-96674005D01*
X181140566Y-96674003D01*
X181033342Y-96463566D01*
X180894517Y-96272490D01*
X180727510Y-96105483D01*
X180536433Y-95966657D01*
X180325996Y-95859433D01*
X180101368Y-95786446D01*
X179868097Y-95749500D01*
X179868092Y-95749500D01*
X179631908Y-95749500D01*
X179631903Y-95749500D01*
X179398631Y-95786446D01*
X179174003Y-95859433D01*
X178963566Y-95966657D01*
X178854550Y-96045862D01*
X178772490Y-96105483D01*
X178772488Y-96105485D01*
X178772487Y-96105485D01*
X178605485Y-96272487D01*
X178605485Y-96272488D01*
X178605483Y-96272490D01*
X178545862Y-96354550D01*
X178466657Y-96463566D01*
X178359433Y-96674003D01*
X178286446Y-96898631D01*
X178249500Y-97131902D01*
X174750500Y-97131902D01*
X174713553Y-96898631D01*
X174668887Y-96761164D01*
X174640568Y-96674008D01*
X174640566Y-96674005D01*
X174640566Y-96674003D01*
X174533342Y-96463566D01*
X174394517Y-96272490D01*
X174227510Y-96105483D01*
X174036433Y-95966657D01*
X173825996Y-95859433D01*
X173601368Y-95786446D01*
X173368097Y-95749500D01*
X173368092Y-95749500D01*
X173131908Y-95749500D01*
X173131903Y-95749500D01*
X172898631Y-95786446D01*
X172674003Y-95859433D01*
X172463566Y-95966657D01*
X172354550Y-96045862D01*
X172272490Y-96105483D01*
X172272488Y-96105485D01*
X172272487Y-96105485D01*
X172105485Y-96272487D01*
X172105485Y-96272488D01*
X172105483Y-96272490D01*
X172045862Y-96354550D01*
X171966657Y-96463566D01*
X171859433Y-96674003D01*
X171786446Y-96898631D01*
X171749500Y-97131902D01*
X160469464Y-97131902D01*
X172394548Y-85206817D01*
X172455871Y-85173333D01*
X172482229Y-85170499D01*
X173617871Y-85170499D01*
X173617872Y-85170499D01*
X173677483Y-85164091D01*
X173812331Y-85113796D01*
X173927546Y-85027546D01*
X174013796Y-84912331D01*
X174064091Y-84777483D01*
X174070500Y-84717873D01*
X174070499Y-82922128D01*
X174064091Y-82862517D01*
X174013796Y-82727669D01*
X174013795Y-82727668D01*
X174013793Y-82727664D01*
X173927547Y-82612455D01*
X173927544Y-82612452D01*
X173812335Y-82526206D01*
X173812328Y-82526202D01*
X173677482Y-82475908D01*
X173677483Y-82475908D01*
X173617883Y-82469501D01*
X173617881Y-82469500D01*
X173617873Y-82469500D01*
X173617865Y-82469500D01*
X173607309Y-82469500D01*
X173540270Y-82449815D01*
X173519628Y-82433181D01*
X172849408Y-81762962D01*
X172912993Y-81745925D01*
X173027007Y-81680099D01*
X173120099Y-81587007D01*
X173185925Y-81472993D01*
X173202962Y-81409408D01*
X173835270Y-82041717D01*
X173835270Y-82041716D01*
X173874622Y-81987554D01*
X173971095Y-81798217D01*
X174036757Y-81596130D01*
X174036757Y-81596127D01*
X174070000Y-81386246D01*
X174070000Y-81173753D01*
X174036757Y-80963872D01*
X174036757Y-80963869D01*
X173971095Y-80761782D01*
X173874624Y-80572449D01*
X173835270Y-80518282D01*
X173835269Y-80518282D01*
X173202962Y-81150590D01*
X173185925Y-81087007D01*
X173120099Y-80972993D01*
X173027007Y-80879901D01*
X172912993Y-80814075D01*
X172849409Y-80797037D01*
X173481716Y-80164728D01*
X173427547Y-80125373D01*
X173427547Y-80125372D01*
X173418500Y-80120763D01*
X173367706Y-80072788D01*
X173350912Y-80004966D01*
X173373451Y-79938832D01*
X173418508Y-79899793D01*
X173427816Y-79895051D01*
X173507007Y-79837515D01*
X173599786Y-79770109D01*
X173599788Y-79770106D01*
X173599792Y-79770104D01*
X173750104Y-79619792D01*
X173750106Y-79619788D01*
X173750109Y-79619786D01*
X173875048Y-79447820D01*
X173875047Y-79447820D01*
X173875051Y-79447816D01*
X173971557Y-79258412D01*
X174037246Y-79056243D01*
X174070500Y-78846287D01*
X174070500Y-78633713D01*
X174037246Y-78423757D01*
X173971557Y-78221588D01*
X173875051Y-78032184D01*
X173875049Y-78032181D01*
X173875048Y-78032179D01*
X173750109Y-77860213D01*
X173599786Y-77709890D01*
X173427820Y-77584951D01*
X173427115Y-77584591D01*
X173419054Y-77580485D01*
X173368259Y-77532512D01*
X173351463Y-77464692D01*
X173373999Y-77398556D01*
X173419054Y-77359515D01*
X173427816Y-77355051D01*
X173449789Y-77339086D01*
X173599786Y-77230109D01*
X173599788Y-77230106D01*
X173599792Y-77230104D01*
X173750104Y-77079792D01*
X173750106Y-77079788D01*
X173750109Y-77079786D01*
X173875048Y-76907820D01*
X173875047Y-76907820D01*
X173875051Y-76907816D01*
X173971557Y-76718412D01*
X174037246Y-76516243D01*
X174070500Y-76306287D01*
X174070500Y-76093713D01*
X174037246Y-75883757D01*
X173971557Y-75681588D01*
X173875051Y-75492184D01*
X173875049Y-75492181D01*
X173875048Y-75492179D01*
X173750109Y-75320213D01*
X173599786Y-75169890D01*
X173427820Y-75044951D01*
X173427115Y-75044591D01*
X173419054Y-75040485D01*
X173368259Y-74992512D01*
X173351463Y-74924692D01*
X173373999Y-74858556D01*
X173419054Y-74819515D01*
X173427816Y-74815051D01*
X173449789Y-74799086D01*
X173599786Y-74690109D01*
X173599788Y-74690106D01*
X173599792Y-74690104D01*
X173750104Y-74539792D01*
X173750106Y-74539788D01*
X173750109Y-74539786D01*
X173875048Y-74367820D01*
X173875047Y-74367820D01*
X173875051Y-74367816D01*
X173971557Y-74178412D01*
X174037246Y-73976243D01*
X174070500Y-73766287D01*
X174070500Y-73553713D01*
X174037246Y-73343757D01*
X173971557Y-73141588D01*
X173875051Y-72952184D01*
X173875049Y-72952181D01*
X173875048Y-72952179D01*
X173750109Y-72780213D01*
X173599786Y-72629890D01*
X173427820Y-72504951D01*
X173427115Y-72504591D01*
X173419054Y-72500485D01*
X173368259Y-72452512D01*
X173351463Y-72384692D01*
X173373999Y-72318556D01*
X173419054Y-72279515D01*
X173427816Y-72275051D01*
X173514138Y-72212335D01*
X173599786Y-72150109D01*
X173599788Y-72150106D01*
X173599792Y-72150104D01*
X173750104Y-71999792D01*
X173750106Y-71999788D01*
X173750109Y-71999786D01*
X173875048Y-71827820D01*
X173875047Y-71827820D01*
X173875051Y-71827816D01*
X173971557Y-71638412D01*
X174037246Y-71436243D01*
X174070500Y-71226287D01*
X174070500Y-71013713D01*
X174037246Y-70803757D01*
X174023506Y-70761473D01*
X174021512Y-70691635D01*
X174053753Y-70635480D01*
X174350520Y-70338716D01*
X174429577Y-70201784D01*
X174470501Y-70049057D01*
X174470501Y-69890942D01*
X174470501Y-69883347D01*
X174470500Y-69883329D01*
X174470500Y-57119060D01*
X174470501Y-57119047D01*
X174470501Y-56950944D01*
X174429576Y-56798214D01*
X174429573Y-56798209D01*
X174350524Y-56661290D01*
X174350518Y-56661282D01*
X174053757Y-56364522D01*
X174020272Y-56303199D01*
X174023507Y-56238523D01*
X174037246Y-56196243D01*
X174070500Y-55986287D01*
X174070500Y-55773713D01*
X174037246Y-55563757D01*
X173971557Y-55361588D01*
X173875051Y-55172184D01*
X173875049Y-55172181D01*
X173875048Y-55172179D01*
X173750109Y-55000213D01*
X173599786Y-54849890D01*
X173427820Y-54724951D01*
X173427115Y-54724591D01*
X173419054Y-54720485D01*
X173368259Y-54672512D01*
X173351463Y-54604692D01*
X173373999Y-54538556D01*
X173419054Y-54499515D01*
X173427816Y-54495051D01*
X173449789Y-54479086D01*
X173599786Y-54370109D01*
X173599788Y-54370106D01*
X173599792Y-54370104D01*
X173750104Y-54219792D01*
X173750106Y-54219788D01*
X173750109Y-54219786D01*
X173875048Y-54047820D01*
X173875047Y-54047820D01*
X173875051Y-54047816D01*
X173971557Y-53858412D01*
X174037246Y-53656243D01*
X174070500Y-53446287D01*
X174070500Y-53233713D01*
X174037246Y-53023757D01*
X173971557Y-52821588D01*
X173875051Y-52632184D01*
X173875049Y-52632181D01*
X173875048Y-52632179D01*
X173750109Y-52460213D01*
X173599786Y-52309890D01*
X173427820Y-52184951D01*
X173427115Y-52184591D01*
X173419054Y-52180485D01*
X173368259Y-52132512D01*
X173351463Y-52064692D01*
X173373999Y-51998556D01*
X173419054Y-51959515D01*
X173427816Y-51955051D01*
X173449789Y-51939086D01*
X173599786Y-51830109D01*
X173599788Y-51830106D01*
X173599792Y-51830104D01*
X173750104Y-51679792D01*
X173750106Y-51679788D01*
X173750109Y-51679786D01*
X173875048Y-51507820D01*
X173875047Y-51507820D01*
X173875051Y-51507816D01*
X173971557Y-51318412D01*
X174037246Y-51116243D01*
X174070500Y-50906287D01*
X174070500Y-50693713D01*
X174037246Y-50483757D01*
X173971557Y-50281588D01*
X173875051Y-50092184D01*
X173875049Y-50092181D01*
X173875048Y-50092179D01*
X173750109Y-49920213D01*
X173599786Y-49769890D01*
X173427820Y-49644951D01*
X173238414Y-49548444D01*
X173238413Y-49548443D01*
X173238412Y-49548443D01*
X173036243Y-49482754D01*
X173036241Y-49482753D01*
X173036240Y-49482753D01*
X172874957Y-49457208D01*
X172826287Y-49449500D01*
X172613713Y-49449500D01*
X172565042Y-49457208D01*
X172403760Y-49482753D01*
X172201585Y-49548444D01*
X172012179Y-49644951D01*
X171840213Y-49769890D01*
X171689890Y-49920213D01*
X171564951Y-50092179D01*
X171468444Y-50281585D01*
X171402753Y-50483760D01*
X171369500Y-50693713D01*
X171369500Y-50906286D01*
X171402753Y-51116239D01*
X171468444Y-51318414D01*
X171564951Y-51507820D01*
X171689890Y-51679786D01*
X171840213Y-51830109D01*
X172012182Y-51955050D01*
X172020946Y-51959516D01*
X172071742Y-52007491D01*
X172088536Y-52075312D01*
X172065998Y-52141447D01*
X172020946Y-52180484D01*
X172012182Y-52184949D01*
X171840213Y-52309890D01*
X171689890Y-52460213D01*
X171564951Y-52632179D01*
X171468444Y-52821585D01*
X171402753Y-53023760D01*
X171369500Y-53233713D01*
X171369500Y-53446286D01*
X171402753Y-53656239D01*
X171468444Y-53858414D01*
X171564951Y-54047820D01*
X171689890Y-54219786D01*
X171840213Y-54370109D01*
X172012182Y-54495050D01*
X172020946Y-54499516D01*
X172071742Y-54547491D01*
X172088536Y-54615312D01*
X172065998Y-54681447D01*
X172020946Y-54720484D01*
X172012182Y-54724949D01*
X171840213Y-54849890D01*
X171689890Y-55000213D01*
X171564951Y-55172179D01*
X171468444Y-55361585D01*
X171402753Y-55563760D01*
X171369500Y-55773713D01*
X171369500Y-55986286D01*
X171402753Y-56196239D01*
X171402753Y-56196241D01*
X171402754Y-56196243D01*
X171457431Y-56364522D01*
X171468444Y-56398414D01*
X171564951Y-56587820D01*
X171689890Y-56759786D01*
X171840213Y-56910109D01*
X172012182Y-57035050D01*
X172020946Y-57039516D01*
X172071742Y-57087491D01*
X172088536Y-57155312D01*
X172065998Y-57221447D01*
X172020946Y-57260484D01*
X172012182Y-57264949D01*
X171840213Y-57389890D01*
X171689890Y-57540213D01*
X171564951Y-57712179D01*
X171468444Y-57901585D01*
X171402753Y-58103760D01*
X171369500Y-58313713D01*
X171369500Y-58526286D01*
X171402753Y-58736239D01*
X171468444Y-58938414D01*
X171564951Y-59127820D01*
X171689890Y-59299786D01*
X171840213Y-59450109D01*
X172012182Y-59575050D01*
X172020946Y-59579516D01*
X172071742Y-59627491D01*
X172088536Y-59695312D01*
X172065998Y-59761447D01*
X172020946Y-59800484D01*
X172012182Y-59804949D01*
X171840213Y-59929890D01*
X171689890Y-60080213D01*
X171564951Y-60252179D01*
X171468444Y-60441585D01*
X171402753Y-60643760D01*
X171369500Y-60853713D01*
X171369500Y-61066286D01*
X171402753Y-61276239D01*
X171468444Y-61478414D01*
X171564951Y-61667820D01*
X171689890Y-61839786D01*
X171840213Y-61990109D01*
X172012182Y-62115050D01*
X172020946Y-62119516D01*
X172071742Y-62167491D01*
X172088536Y-62235312D01*
X172065998Y-62301447D01*
X172020946Y-62340484D01*
X172012182Y-62344949D01*
X171840213Y-62469890D01*
X171689890Y-62620213D01*
X171564951Y-62792179D01*
X171468444Y-62981585D01*
X171402753Y-63183760D01*
X171375518Y-63355713D01*
X171345589Y-63418848D01*
X171286277Y-63455779D01*
X171216414Y-63454781D01*
X171165364Y-63423996D01*
X168786819Y-61045451D01*
X168753334Y-60984128D01*
X168750500Y-60957770D01*
X168750500Y-42426079D01*
X168721659Y-42281092D01*
X168721658Y-42281091D01*
X168721658Y-42281087D01*
X168721656Y-42281082D01*
X168665087Y-42144511D01*
X168665080Y-42144498D01*
X168582952Y-42021585D01*
X168582951Y-42021584D01*
X168478416Y-41917049D01*
X159978421Y-33417052D01*
X159978417Y-33417049D01*
X159978416Y-33417048D01*
X159855494Y-33334916D01*
X159855492Y-33334915D01*
X159855490Y-33334914D01*
X159718912Y-33278342D01*
X159718906Y-33278340D01*
X159573919Y-33249500D01*
X159573917Y-33249500D01*
X159426083Y-33249500D01*
X159426081Y-33249500D01*
X159281092Y-33278340D01*
X159281086Y-33278342D01*
X159180369Y-33320061D01*
X159132916Y-33329500D01*
X125187221Y-33329500D01*
X125120182Y-33309815D01*
X125086903Y-33278385D01*
X125030107Y-33200211D01*
X124879786Y-33049890D01*
X124707820Y-32924951D01*
X124707115Y-32924591D01*
X124699054Y-32920485D01*
X124648259Y-32872512D01*
X124631463Y-32804692D01*
X124653999Y-32738556D01*
X124699054Y-32699515D01*
X124707816Y-32695051D01*
X124729789Y-32679086D01*
X124879786Y-32570109D01*
X124879788Y-32570106D01*
X124879792Y-32570104D01*
X125030104Y-32419792D01*
X125030106Y-32419788D01*
X125030109Y-32419786D01*
X125155048Y-32247820D01*
X125155047Y-32247820D01*
X125155051Y-32247816D01*
X125251557Y-32058412D01*
X125317246Y-31856243D01*
X125350500Y-31646287D01*
X125350500Y-31433713D01*
X125317246Y-31223757D01*
X125251557Y-31021588D01*
X125155051Y-30832184D01*
X125155049Y-30832181D01*
X125155048Y-30832179D01*
X125030109Y-30660213D01*
X124879786Y-30509890D01*
X124707820Y-30384951D01*
X124707115Y-30384591D01*
X124699054Y-30380485D01*
X124648259Y-30332512D01*
X124631463Y-30264692D01*
X124653999Y-30198556D01*
X124699054Y-30159515D01*
X124707816Y-30155051D01*
X124729789Y-30139086D01*
X124879786Y-30030109D01*
X124879788Y-30030106D01*
X124879792Y-30030104D01*
X125030104Y-29879792D01*
X125030106Y-29879788D01*
X125030109Y-29879786D01*
X125155048Y-29707820D01*
X125155047Y-29707820D01*
X125155051Y-29707816D01*
X125251557Y-29518412D01*
X125317246Y-29316243D01*
X125350500Y-29106287D01*
X125350500Y-28893713D01*
X125317246Y-28683757D01*
X125251557Y-28481588D01*
X125155051Y-28292184D01*
X125155049Y-28292181D01*
X125155048Y-28292179D01*
X125030109Y-28120213D01*
X124879786Y-27969890D01*
X124707820Y-27844951D01*
X124518414Y-27748444D01*
X124518413Y-27748443D01*
X124518412Y-27748443D01*
X124316243Y-27682754D01*
X124316241Y-27682753D01*
X124316240Y-27682753D01*
X124154957Y-27657208D01*
X124106287Y-27649500D01*
X123893713Y-27649500D01*
X123845042Y-27657208D01*
X123683760Y-27682753D01*
X123481585Y-27748444D01*
X123292179Y-27844951D01*
X123120213Y-27969890D01*
X122969890Y-28120213D01*
X122844951Y-28292179D01*
X122748444Y-28481585D01*
X122682753Y-28683760D01*
X122649500Y-28893713D01*
X122649500Y-29106286D01*
X122682753Y-29316239D01*
X122748444Y-29518414D01*
X122844951Y-29707820D01*
X122969890Y-29879786D01*
X123120213Y-30030109D01*
X123292182Y-30155050D01*
X123300946Y-30159516D01*
X123351742Y-30207491D01*
X123368536Y-30275312D01*
X123345998Y-30341447D01*
X123300946Y-30380484D01*
X123292182Y-30384949D01*
X123120213Y-30509890D01*
X122969890Y-30660213D01*
X122844951Y-30832179D01*
X122748444Y-31021585D01*
X122682753Y-31223760D01*
X122649500Y-31433713D01*
X122649500Y-31646286D01*
X122682753Y-31856239D01*
X122748444Y-32058414D01*
X122844951Y-32247820D01*
X122969890Y-32419786D01*
X123120213Y-32570109D01*
X123292182Y-32695050D01*
X123300946Y-32699516D01*
X123351742Y-32747491D01*
X123368536Y-32815312D01*
X123345998Y-32881447D01*
X123300946Y-32920484D01*
X123292182Y-32924949D01*
X123120213Y-33049890D01*
X122969890Y-33200213D01*
X122844951Y-33372179D01*
X122748444Y-33561585D01*
X122682753Y-33763760D01*
X122649500Y-33973713D01*
X122649500Y-34186291D01*
X122664616Y-34281726D01*
X122655662Y-34351020D01*
X122629824Y-34388806D01*
X88917050Y-68101580D01*
X88917044Y-68101588D01*
X88867812Y-68175268D01*
X88867813Y-68175269D01*
X88834921Y-68224496D01*
X88834914Y-68224508D01*
X88778342Y-68361086D01*
X88778340Y-68361092D01*
X88749500Y-68506079D01*
X88749500Y-94847769D01*
X88729815Y-94914808D01*
X88713181Y-94935450D01*
X88304198Y-95344433D01*
X88242875Y-95377918D01*
X88173183Y-95372934D01*
X88117250Y-95331062D01*
X88094044Y-95276150D01*
X88066757Y-95103872D01*
X88066757Y-95103869D01*
X88001095Y-94901782D01*
X87904624Y-94712449D01*
X87865270Y-94658282D01*
X87865269Y-94658282D01*
X87232962Y-95290590D01*
X87215925Y-95227007D01*
X87150099Y-95112993D01*
X87057007Y-95019901D01*
X86942993Y-94954075D01*
X86879409Y-94937037D01*
X87511716Y-94304728D01*
X87457550Y-94265375D01*
X87268217Y-94168904D01*
X87066129Y-94103242D01*
X86856246Y-94070000D01*
X86643754Y-94070000D01*
X86433872Y-94103242D01*
X86433869Y-94103242D01*
X86231782Y-94168904D01*
X86042439Y-94265380D01*
X85988282Y-94304727D01*
X85988282Y-94304728D01*
X86620591Y-94937037D01*
X86557007Y-94954075D01*
X86442993Y-95019901D01*
X86349901Y-95112993D01*
X86284075Y-95227007D01*
X86267037Y-95290591D01*
X85634728Y-94658282D01*
X85634727Y-94658282D01*
X85595380Y-94712439D01*
X85498904Y-94901782D01*
X85433242Y-95103869D01*
X85433242Y-95103872D01*
X85400000Y-95313753D01*
X85400000Y-95526246D01*
X85433242Y-95736127D01*
X85433242Y-95736130D01*
X85498904Y-95938217D01*
X85595375Y-96127550D01*
X85634728Y-96181716D01*
X86267037Y-95549408D01*
X86284075Y-95612993D01*
X86349901Y-95727007D01*
X86442993Y-95820099D01*
X86557007Y-95885925D01*
X86620590Y-95902962D01*
X85988282Y-96535269D01*
X85988282Y-96535270D01*
X86042452Y-96574626D01*
X86042451Y-96574626D01*
X86051495Y-96579234D01*
X86102292Y-96627208D01*
X86119087Y-96695029D01*
X86096550Y-96761164D01*
X86051499Y-96800202D01*
X86042182Y-96804949D01*
X85870213Y-96929890D01*
X85719890Y-97080213D01*
X85594951Y-97252179D01*
X85498444Y-97441585D01*
X85432753Y-97643760D01*
X85399500Y-97853713D01*
X68500500Y-97853713D01*
X68500500Y-20724500D01*
X68520185Y-20657461D01*
X68572989Y-20611706D01*
X68624500Y-20600500D01*
X207875500Y-20600500D01*
X207942539Y-20620185D01*
G37*
G04 #@! TD.AperFunction*
G04 #@! TD*
M02*
